{"glyphs":{"0":{"ha":833,"x_min":93,"x_max":767,"o":"m 410 -11 q 174 98 254 -11 q 93 417 93 207 q 186 847 93 694 q 447 1000 279 1000 q 685 891 604 1000 q 767 572 767 782 q 673 142 767 294 q 410 -11 579 -11 m 413 46 q 628 183 554 46 q 703 585 703 319 q 640 854 703 765 q 447 943 576 943 q 230 806 304 943 q 156 404 156 669 q 219 134 156 222 q 413 46 282 46 z "},"1":{"ha":833,"x_min":171,"x_max":674,"o":"m 674 53 l 669 0 l 171 0 l 176 53 l 394 53 l 461 903 l 246 767 l 253 833 l 467 971 l 468 981 l 474 975 l 496 989 l 526 989 l 453 53 l 674 53 z "},"2":{"ha":833,"x_min":103,"x_max":729,"o":"m 190 53 l 719 53 l 715 0 l 103 0 l 106 44 l 496 443 q 631 613 592 542 q 669 761 669 683 q 616 894 669 844 q 476 944 563 944 q 320 915 393 944 q 172 821 247 885 l 149 869 q 297 965 210 931 q 471 1000 383 1000 q 660 936 590 1000 q 729 763 729 872 q 683 588 729 672 q 531 393 638 503 l 190 53 z "},"3":{"ha":833,"x_min":75,"x_max":729,"o":"m 542 506 q 668 426 624 483 q 713 282 713 368 q 673 128 713 194 q 561 26 633 63 q 393 -10 489 -10 q 219 24 300 -10 q 75 121 139 57 l 107 169 q 247 76 176 107 q 397 46 317 46 q 583 107 515 46 q 651 278 651 168 q 590 425 651 375 q 407 475 528 475 l 308 475 l 313 531 l 406 531 q 597 596 525 531 q 669 769 669 661 q 615 897 669 849 q 472 944 561 944 q 320 915 393 944 q 172 821 247 885 l 149 869 q 297 965 211 931 q 472 1000 383 1000 q 660 936 590 1000 q 729 765 729 872 q 678 607 729 678 q 542 506 628 536 z "},"4":{"ha":833,"x_min":72,"x_max":772,"o":"m 768 233 l 608 233 l 589 0 l 532 0 l 550 233 l 111 233 l 108 231 l 108 233 l 72 233 l 76 279 l 619 989 l 669 989 l 613 288 l 772 288 l 768 233 m 554 288 l 600 868 l 153 288 l 554 288 z "},"5":{"ha":833,"x_min":111,"x_max":771,"o":"m 257 935 l 224 501 q 328 581 264 551 q 463 610 393 610 q 674 532 594 610 q 753 325 753 454 q 711 151 753 228 q 594 33 669 75 q 424 -10 519 -10 q 254 24 335 -10 q 111 121 174 57 l 143 169 q 285 76 215 107 q 428 46 354 46 q 619 122 547 46 q 692 325 692 199 q 630 490 692 428 q 468 553 568 553 q 211 413 297 553 l 156 413 l 200 989 l 771 989 l 767 935 l 257 935 z "},"6":{"ha":833,"x_min":97,"x_max":796,"o":"m 493 944 q 263 825 350 944 q 160 483 176 706 l 154 419 q 267 558 190 507 q 443 610 343 610 q 606 573 536 610 q 713 468 675 536 q 751 311 751 400 q 710 146 751 219 q 598 31 669 72 q 438 -11 526 -11 q 186 98 275 -11 q 97 407 97 207 q 146 720 97 586 q 285 927 194 854 q 494 1000 375 1000 q 656 967 578 1000 q 796 869 733 933 l 763 821 q 629 913 697 882 q 493 944 561 944 m 442 553 q 308 519 367 553 q 215 424 249 485 q 182 288 182 364 q 253 112 182 179 q 438 44 324 44 q 569 78 511 44 q 658 172 626 111 q 690 313 690 233 q 622 487 690 421 q 442 553 553 553 z "},"7":{"ha":833,"x_min":153,"x_max":779,"o":"m 779 989 l 775 946 l 231 0 l 167 0 l 706 936 l 153 936 l 157 989 l 779 989 z "},"8":{"ha":833,"x_min":67,"x_max":767,"o":"m 561 507 q 700 417 649 482 q 751 263 751 353 q 709 119 751 181 q 585 24 667 58 q 392 -10 504 -10 q 218 23 292 -10 q 106 113 144 56 q 67 243 67 169 q 126 412 67 342 q 294 508 185 482 q 172 594 217 535 q 128 740 128 653 q 213 931 128 861 q 460 1000 299 1000 q 683 934 600 1000 q 767 757 767 868 q 713 600 767 667 q 561 507 658 533 m 190 739 q 253 592 190 649 q 431 526 315 536 q 629 599 556 536 q 703 756 703 663 q 640 895 703 846 q 463 944 576 944 q 259 891 328 944 q 190 739 190 838 m 396 46 q 610 102 533 46 q 688 258 688 158 q 426 476 688 458 q 203 407 275 465 q 131 251 131 349 q 200 99 131 153 q 396 46 269 46 z "},"9":{"ha":833,"x_min":64,"x_max":764,"o":"m 424 1000 q 675 891 586 1000 q 764 582 764 782 q 715 269 764 403 q 576 62 665 135 q 367 -11 486 -11 q 206 22 283 -11 q 64 119 128 56 l 97 168 q 368 44 232 44 q 597 164 510 44 q 700 506 683 283 l 706 569 q 593 431 669 482 q 417 379 517 379 q 255 417 325 379 q 147 522 185 454 q 108 678 108 589 q 149 843 108 769 q 262 958 190 917 q 424 1000 333 1000 m 418 436 q 553 470 493 436 q 646 565 613 504 q 679 701 679 625 q 608 877 679 810 q 421 944 536 944 q 290 911 347 944 q 202 817 233 878 q 171 676 171 756 q 239 502 171 568 q 418 436 307 436 z "},"\u0000":{"ha":0,"x_min":0,"x_max":0,"o":""},"\r":{"ha":347,"x_min":0,"x_max":0,"o":""}," ":{"ha":347,"x_min":0,"x_max":0,"o":""},"A":{"ha":1001,"x_min":21,"x_max":928,"o":"m 769 274 l 224 274 l 85 0 l 21 0 l 524 989 l 579 989 l 928 0 l 865 0 l 769 274 m 750 329 l 546 913 l 251 329 l 750 329 z "},"Á":{"ha":1001,"x_min":21,"x_max":928,"o":"m 769 274 l 224 274 l 85 0 l 21 0 l 524 989 l 579 989 l 928 0 l 865 0 l 769 274 m 750 329 l 546 913 l 251 329 l 750 329 m 533 1074 l 688 1282 l 778 1282 l 583 1074 l 533 1074 z "},"Ă":{"ha":1001,"x_min":21,"x_max":928,"o":"m 769 274 l 224 274 l 85 0 l 21 0 l 524 989 l 579 989 l 928 0 l 865 0 l 769 274 m 750 329 l 546 913 l 251 329 l 750 329 m 558 1092 q 434 1127 489 1092 q 354 1239 379 1163 l 413 1264 q 477 1173 442 1197 q 563 1149 513 1149 q 653 1173 614 1149 q 731 1264 692 1197 l 788 1239 q 558 1092 714 1092 z "},"Ắ":{"ha":1001,"x_min":21,"x_max":928,"o":"m 769 274 l 224 274 l 85 0 l 21 0 l 524 989 l 579 989 l 928 0 l 865 0 l 769 274 m 750 329 l 546 913 l 251 329 l 750 329 m 697 1413 l 789 1413 l 593 1214 l 546 1214 l 697 1413 m 557 1067 q 433 1102 488 1067 q 353 1214 379 1138 l 414 1239 q 477 1149 443 1174 q 561 1125 511 1125 q 649 1149 611 1125 q 728 1239 688 1172 l 786 1214 q 557 1067 714 1067 z "},"Ặ":{"ha":1001,"x_min":21,"x_max":928,"o":"m 769 274 l 224 274 l 85 0 l 21 0 l 524 989 l 579 989 l 928 0 l 865 0 l 769 274 m 750 329 l 546 913 l 251 329 l 750 329 m 510 -153 l 501 -243 l 408 -243 l 417 -153 l 510 -153 m 558 1092 q 434 1127 489 1092 q 354 1239 379 1163 l 413 1264 q 477 1173 442 1197 q 563 1149 513 1149 q 653 1173 614 1149 q 731 1264 692 1197 l 788 1239 q 558 1092 714 1092 z "},"Ằ":{"ha":1001,"x_min":21,"x_max":928,"o":"m 769 274 l 224 274 l 85 0 l 21 0 l 524 989 l 579 989 l 928 0 l 865 0 l 769 274 m 750 329 l 546 913 l 251 329 l 750 329 m 388 1413 l 467 1413 l 593 1214 l 546 1214 l 388 1413 m 557 1067 q 433 1102 488 1067 q 353 1214 379 1138 l 414 1239 q 477 1149 443 1174 q 561 1125 511 1125 q 649 1149 611 1125 q 728 1239 688 1172 l 786 1214 q 557 1067 714 1067 z "},"Ẳ":{"ha":1001,"x_min":21,"x_max":928,"o":"m 769 274 l 224 274 l 85 0 l 21 0 l 524 989 l 579 989 l 928 0 l 865 0 l 769 274 m 750 329 l 546 913 l 251 329 l 750 329 m 543 1236 q 560 1272 544 1260 q 604 1297 575 1283 q 637 1314 626 1307 q 647 1333 647 1321 q 630 1353 647 1346 q 586 1361 613 1361 q 494 1344 546 1361 l 483 1397 q 589 1419 532 1419 q 681 1397 647 1419 q 714 1340 714 1375 q 697 1297 714 1311 q 647 1265 681 1282 q 613 1247 625 1256 q 600 1226 601 1239 l 599 1214 l 542 1214 l 543 1236 m 557 1067 q 433 1102 488 1067 q 353 1214 379 1138 l 414 1239 q 477 1149 443 1174 q 561 1125 511 1125 q 649 1149 611 1125 q 728 1239 688 1172 l 786 1214 q 557 1067 714 1067 z "},"Ẵ":{"ha":1001,"x_min":21,"x_max":928,"o":"m 769 274 l 224 274 l 85 0 l 21 0 l 524 989 l 579 989 l 928 0 l 865 0 l 769 274 m 750 329 l 546 913 l 251 329 l 750 329 m 681 1279 q 626 1292 651 1279 q 564 1329 600 1306 q 517 1357 536 1347 q 482 1367 499 1367 q 429 1343 449 1367 q 407 1283 410 1319 l 358 1283 q 395 1390 363 1353 q 482 1426 428 1426 q 538 1414 511 1426 q 599 1378 565 1401 q 645 1350 626 1360 q 681 1340 664 1340 q 734 1363 714 1340 q 754 1422 754 1386 l 803 1422 q 767 1316 800 1353 q 681 1279 733 1279 m 557 1067 q 433 1102 488 1067 q 353 1214 379 1138 l 414 1239 q 477 1149 443 1174 q 561 1125 511 1125 q 649 1149 611 1125 q 728 1239 688 1172 l 786 1214 q 557 1067 714 1067 z "},"Â":{"ha":1001,"x_min":21,"x_max":928,"o":"m 769 274 l 224 274 l 85 0 l 21 0 l 524 989 l 579 989 l 928 0 l 865 0 l 769 274 m 750 329 l 546 913 l 251 329 l 750 329 m 376 1074 l 550 1282 l 600 1282 l 740 1074 l 671 1074 l 574 1232 l 449 1074 l 376 1074 z "},"Ấ":{"ha":1001,"x_min":21,"x_max":931,"o":"m 769 274 l 224 274 l 85 0 l 21 0 l 524 989 l 579 989 l 928 0 l 865 0 l 769 274 m 750 329 l 546 913 l 251 329 l 750 329 m 838 1413 l 931 1413 l 731 1214 l 681 1214 l 838 1413 m 550 1285 l 600 1285 l 740 1074 l 671 1074 l 574 1235 l 449 1074 l 376 1074 l 550 1285 z "},"Ậ":{"ha":1001,"x_min":21,"x_max":928,"o":"m 769 274 l 224 274 l 85 0 l 21 0 l 524 989 l 579 989 l 928 0 l 865 0 l 769 274 m 750 329 l 546 913 l 251 329 l 750 329 m 510 -153 l 501 -243 l 408 -243 l 417 -153 l 510 -153 m 376 1074 l 550 1282 l 600 1282 l 740 1074 l 671 1074 l 574 1232 l 449 1074 l 376 1074 z "},"Ầ":{"ha":1001,"x_min":21,"x_max":928,"o":"m 769 274 l 224 274 l 85 0 l 21 0 l 524 989 l 579 989 l 928 0 l 865 0 l 769 274 m 750 329 l 546 913 l 251 329 l 750 329 m 610 1413 l 693 1413 l 792 1214 l 740 1214 l 610 1413 m 550 1285 l 600 1285 l 740 1074 l 671 1074 l 574 1235 l 449 1074 l 376 1074 l 550 1285 z "},"Ẩ":{"ha":1001,"x_min":21,"x_max":928,"o":"m 769 274 l 224 274 l 85 0 l 21 0 l 524 989 l 579 989 l 928 0 l 865 0 l 769 274 m 750 329 l 546 913 l 251 329 l 750 329 m 681 1236 q 697 1272 682 1260 q 743 1297 713 1283 q 776 1314 765 1307 q 786 1333 786 1321 q 769 1353 786 1346 q 725 1361 751 1361 q 633 1344 685 1361 l 622 1397 q 726 1419 671 1419 q 819 1397 786 1419 q 853 1340 853 1375 q 836 1297 853 1311 q 786 1265 819 1282 q 752 1247 764 1256 q 739 1226 740 1239 l 738 1214 l 679 1214 l 681 1236 m 550 1285 l 600 1285 l 740 1074 l 671 1074 l 574 1235 l 449 1074 l 376 1074 l 550 1285 z "},"Ẫ":{"ha":1001,"x_min":21,"x_max":928,"o":"m 769 274 l 224 274 l 85 0 l 21 0 l 524 989 l 579 989 l 928 0 l 865 0 l 769 274 m 750 329 l 546 913 l 251 329 l 750 329 m 360 1304 q 397 1402 364 1367 q 483 1438 431 1438 q 538 1428 513 1438 q 601 1399 564 1418 q 648 1376 631 1383 q 682 1369 665 1369 q 735 1392 715 1369 q 756 1443 756 1414 l 804 1443 q 768 1345 801 1381 q 682 1310 735 1310 q 626 1319 651 1310 q 561 1349 600 1329 q 517 1370 535 1363 q 482 1378 499 1378 q 429 1356 449 1378 q 408 1304 410 1335 l 360 1304 m 550 1285 l 600 1285 l 740 1074 l 671 1074 l 574 1235 l 449 1074 l 376 1074 l 550 1285 z "},"Ȁ":{"ha":1001,"x_min":21,"x_max":928,"o":"m 769 274 l 224 274 l 85 0 l 21 0 l 524 989 l 579 989 l 928 0 l 865 0 l 769 274 m 750 329 l 546 913 l 251 329 l 750 329 m 344 1282 l 419 1282 l 501 1074 l 463 1074 l 344 1282 m 497 1282 l 571 1282 l 654 1074 l 615 1074 l 497 1282 z "},"Ä":{"ha":1001,"x_min":21,"x_max":928,"o":"m 769 274 l 224 274 l 85 0 l 21 0 l 524 989 l 579 989 l 928 0 l 865 0 l 769 274 m 750 329 l 546 913 l 251 329 l 750 329 m 501 1222 l 494 1138 l 408 1138 l 415 1222 l 501 1222 m 726 1222 l 719 1138 l 633 1138 l 639 1222 l 726 1222 z "},"Ạ":{"ha":1001,"x_min":21,"x_max":928,"o":"m 769 274 l 224 274 l 85 0 l 21 0 l 524 989 l 579 989 l 928 0 l 865 0 l 769 274 m 750 329 l 546 913 l 251 329 l 750 329 m 510 -153 l 501 -243 l 408 -243 l 417 -153 l 510 -153 z "},"À":{"ha":1001,"x_min":21,"x_max":928,"o":"m 769 274 l 224 274 l 85 0 l 21 0 l 524 989 l 579 989 l 928 0 l 865 0 l 769 274 m 750 329 l 546 913 l 251 329 l 750 329 m 379 1282 l 457 1282 l 583 1074 l 533 1074 l 379 1282 z "},"Ả":{"ha":1001,"x_min":21,"x_max":928,"o":"m 769 274 l 224 274 l 85 0 l 21 0 l 524 989 l 579 989 l 928 0 l 865 0 l 769 274 m 750 329 l 546 913 l 251 329 l 750 329 m 588 1074 l 531 1074 l 532 1094 q 549 1133 533 1119 q 594 1164 565 1147 q 626 1185 617 1178 q 635 1204 635 1192 q 619 1224 635 1217 q 575 1231 603 1231 q 485 1214 533 1231 l 472 1265 q 578 1289 521 1289 q 670 1267 638 1289 q 703 1208 703 1246 q 684 1159 703 1176 q 633 1126 665 1142 q 601 1108 613 1117 q 589 1086 590 1099 l 588 1074 z "},"Ȃ":{"ha":1001,"x_min":21,"x_max":928,"o":"m 769 274 l 224 274 l 85 0 l 21 0 l 524 989 l 579 989 l 928 0 l 865 0 l 769 274 m 750 329 l 546 913 l 251 329 l 750 329 m 575 1265 q 699 1230 644 1265 q 779 1118 754 1194 l 721 1094 q 656 1184 692 1160 q 571 1208 621 1208 q 481 1184 521 1208 q 403 1094 442 1160 l 346 1118 q 575 1265 419 1265 z "},"Ā":{"ha":1001,"x_min":21,"x_max":928,"o":"m 769 274 l 224 274 l 85 0 l 21 0 l 524 989 l 579 989 l 928 0 l 865 0 l 769 274 m 750 329 l 546 913 l 251 329 l 750 329 m 365 1210 l 772 1210 l 768 1150 l 358 1150 l 365 1210 z "},"Ą":{"ha":1001,"x_min":21,"x_max":978,"o":"m 978 -235 q 929 -258 958 -249 q 868 -267 900 -267 q 760 -230 800 -267 q 721 -129 721 -193 q 753 -26 721 -71 q 851 42 786 19 l 769 274 l 224 274 l 85 0 l 21 0 l 524 989 l 579 989 l 928 0 l 925 0 q 818 -37 851 0 q 785 -124 785 -74 q 807 -190 785 -167 q 871 -212 829 -212 q 913 -205 889 -212 q 960 -185 938 -197 l 978 -235 m 750 329 l 546 913 l 251 329 l 750 329 z "},"Å":{"ha":1001,"x_min":21,"x_max":928,"o":"m 769 274 l 224 274 l 85 0 l 21 0 l 507 957 q 444 1004 468 971 q 419 1081 419 1038 q 459 1175 419 1136 q 556 1214 499 1214 q 651 1175 611 1214 q 690 1081 690 1136 q 663 999 690 1035 q 592 953 635 964 l 928 0 l 865 0 l 769 274 m 483 1081 q 504 1027 483 1049 q 556 1006 525 1006 q 606 1027 586 1006 q 625 1081 625 1049 q 606 1133 625 1113 q 556 1154 586 1154 q 504 1133 525 1154 q 483 1081 483 1113 m 750 329 l 546 913 l 251 329 l 750 329 z "},"Ǻ":{"ha":1001,"x_min":21,"x_max":928,"o":"m 769 274 l 224 274 l 85 0 l 21 0 l 507 957 q 444 1004 468 971 q 419 1081 419 1038 q 459 1175 419 1136 q 556 1214 499 1214 q 640 1185 604 1214 l 778 1315 l 872 1315 l 668 1153 q 690 1081 690 1119 q 663 999 690 1035 q 592 953 635 964 l 928 0 l 865 0 l 769 274 m 483 1081 q 504 1027 483 1049 q 556 1006 525 1006 q 606 1027 586 1006 q 625 1081 625 1049 q 606 1133 625 1113 q 556 1154 586 1154 q 504 1133 525 1154 q 483 1081 483 1113 m 750 329 l 546 913 l 251 329 l 750 329 z "},"Ã":{"ha":1001,"x_min":21,"x_max":928,"o":"m 769 274 l 224 274 l 85 0 l 21 0 l 524 989 l 579 989 l 928 0 l 865 0 l 769 274 m 750 329 l 546 913 l 251 329 l 750 329 m 344 1114 q 381 1215 347 1179 q 467 1250 414 1250 q 522 1238 496 1250 q 585 1201 549 1225 q 633 1174 615 1182 q 667 1165 650 1165 q 719 1188 700 1165 q 740 1246 739 1210 l 789 1246 q 753 1146 786 1182 q 667 1110 719 1110 q 612 1122 638 1110 q 550 1157 586 1133 q 504 1184 524 1175 q 468 1193 485 1193 q 415 1172 435 1193 q 393 1114 396 1150 l 344 1114 z "},"Æ":{"ha":1383,"x_min":-7,"x_max":1357,"o":"m 792 933 l 800 529 l 1292 529 l 1288 474 l 800 474 l 808 56 l 1283 56 l 1279 0 l 757 0 l 753 274 l 244 274 l 61 0 l -7 0 l 661 989 l 1357 989 l 1353 933 l 792 933 m 740 933 l 688 933 l 282 329 l 751 329 l 740 933 z "},"Ǽ":{"ha":1383,"x_min":-7,"x_max":1357,"o":"m 792 933 l 800 529 l 1292 529 l 1288 474 l 800 474 l 808 56 l 1283 56 l 1279 0 l 757 0 l 753 274 l 244 274 l 61 0 l -7 0 l 661 989 l 1357 989 l 1353 933 l 792 933 m 740 933 l 688 933 l 282 329 l 751 329 l 740 933 m 843 1074 l 997 1282 l 1088 1282 l 893 1074 l 843 1074 z "},"B":{"ha":936,"x_min":110,"x_max":846,"o":"m 665 504 q 790 426 749 482 q 832 286 832 371 q 747 75 832 150 q 506 0 661 0 l 110 0 l 186 989 l 538 989 q 767 928 689 989 q 846 749 846 867 q 800 596 846 660 q 665 504 754 532 m 242 935 l 210 531 l 525 531 q 717 588 647 531 q 786 751 786 646 q 724 888 786 842 q 542 935 663 935 l 242 935 m 508 54 q 702 110 635 54 q 769 275 769 167 q 525 474 769 474 l 206 474 l 172 54 l 508 54 z "},"C":{"ha":950,"x_min":106,"x_max":914,"o":"m 506 -11 q 294 44 385 -11 q 155 203 204 99 q 106 449 106 307 q 160 741 106 617 q 318 933 215 865 q 561 1000 421 1000 q 914 867 790 1000 l 879 819 q 737 915 811 886 q 557 943 663 943 q 347 883 435 943 q 213 713 260 824 q 167 447 167 601 q 260 150 167 254 q 524 46 353 46 q 828 171 699 46 l 854 122 q 698 22 783 56 q 506 -11 613 -11 z "},"Ć":{"ha":950,"x_min":106,"x_max":914,"o":"m 506 -11 q 294 44 385 -11 q 155 203 204 99 q 106 449 106 307 q 160 741 106 617 q 318 933 215 865 q 561 1000 421 1000 q 914 867 790 1000 l 879 819 q 737 915 811 886 q 557 943 663 943 q 347 883 435 943 q 213 713 260 824 q 167 447 167 601 q 260 150 167 254 q 524 46 353 46 q 828 171 699 46 l 854 122 q 698 22 783 56 q 506 -11 613 -11 m 568 1074 l 722 1282 l 813 1282 l 618 1074 l 568 1074 z "},"Č":{"ha":950,"x_min":106,"x_max":914,"o":"m 506 -11 q 294 44 385 -11 q 155 203 204 99 q 106 449 106 307 q 160 741 106 617 q 318 933 215 865 q 561 1000 421 1000 q 914 867 790 1000 l 879 819 q 737 915 811 886 q 557 943 663 943 q 347 883 435 943 q 213 713 260 824 q 167 447 167 601 q 260 150 167 254 q 524 46 353 46 q 828 171 699 46 l 854 122 q 698 22 783 56 q 506 -11 613 -11 m 792 1282 l 618 1074 l 568 1074 l 428 1282 l 497 1282 l 596 1124 l 719 1282 l 792 1282 z "},"Ç":{"ha":950,"x_min":106,"x_max":914,"o":"m 557 943 q 347 883 435 943 q 213 713 260 824 q 167 447 167 601 q 260 150 167 254 q 524 46 353 46 q 828 171 699 46 l 854 122 q 705 25 786 58 q 525 -11 624 -8 l 514 -62 q 551 -57 532 -57 q 623 -82 596 -57 q 650 -151 650 -107 q 610 -235 650 -204 q 497 -267 569 -267 q 438 -260 469 -267 q 379 -240 406 -254 l 400 -192 q 501 -211 450 -211 q 569 -197 546 -211 q 592 -154 592 -182 q 578 -122 592 -133 q 540 -111 565 -111 q 472 -126 508 -111 l 447 -107 l 465 -10 q 274 56 356 -1 q 149 215 193 114 q 106 449 106 315 q 160 741 106 617 q 318 933 215 865 q 561 1000 421 1000 q 914 867 790 1000 l 879 819 q 737 915 811 886 q 557 943 663 943 z "},"Ḉ":{"ha":950,"x_min":106,"x_max":914,"o":"m 618 1074 l 568 1074 l 722 1282 l 813 1282 l 618 1074 m 557 943 q 347 883 435 943 q 213 713 260 824 q 167 447 167 601 q 260 150 167 254 q 524 46 353 46 q 828 171 699 46 l 854 122 q 705 25 786 58 q 525 -11 624 -8 l 514 -62 q 551 -57 532 -57 q 623 -82 596 -57 q 650 -151 650 -107 q 610 -235 650 -204 q 497 -267 569 -267 q 438 -260 469 -267 q 379 -240 406 -254 l 400 -192 q 501 -211 450 -211 q 569 -197 546 -211 q 592 -154 592 -182 q 578 -122 592 -133 q 540 -111 565 -111 q 472 -126 508 -111 l 447 -107 l 465 -10 q 274 56 356 -1 q 149 215 193 114 q 106 449 106 315 q 160 741 106 617 q 318 933 215 865 q 561 1000 421 1000 q 914 867 790 1000 l 879 819 q 737 915 811 886 q 557 943 663 943 z "},"Ĉ":{"ha":950,"x_min":106,"x_max":914,"o":"m 506 -11 q 294 44 385 -11 q 155 203 204 99 q 106 449 106 307 q 160 741 106 617 q 318 933 215 865 q 561 1000 421 1000 q 914 867 790 1000 l 879 819 q 737 915 811 886 q 557 943 663 943 q 347 883 435 943 q 213 713 260 824 q 167 447 167 601 q 260 150 167 254 q 524 46 353 46 q 828 171 699 46 l 854 122 q 698 22 783 56 q 506 -11 613 -11 m 411 1074 l 585 1282 l 635 1282 l 775 1074 l 706 1074 l 608 1232 l 483 1074 l 411 1074 z "},"Ċ":{"ha":950,"x_min":106,"x_max":914,"o":"m 506 -11 q 294 44 385 -11 q 155 203 204 99 q 106 449 106 307 q 160 741 106 617 q 318 933 215 865 q 561 1000 421 1000 q 914 867 790 1000 l 879 819 q 737 915 811 886 q 557 943 663 943 q 347 883 435 943 q 213 713 260 824 q 167 447 167 601 q 260 150 167 254 q 524 46 353 46 q 828 171 699 46 l 854 122 q 698 22 783 56 q 506 -11 613 -11 m 649 1224 l 642 1135 l 554 1135 l 561 1224 l 649 1224 z "},"D":{"ha":1019,"x_min":110,"x_max":938,"o":"m 186 989 l 482 989 q 821 873 704 989 q 938 539 938 757 q 881 251 938 372 q 715 65 825 129 q 451 0 606 0 l 110 0 l 186 989 m 453 53 q 767 181 660 53 q 874 540 874 308 q 483 936 874 936 l 242 936 l 172 53 l 453 53 z "},"Ǆ":{"ha":1811,"x_min":110,"x_max":1796,"o":"m 186 989 l 482 989 q 821 873 704 989 q 938 539 938 757 q 881 251 938 372 q 715 65 825 129 q 451 0 606 0 l 110 0 l 186 989 m 453 53 q 767 181 660 53 q 874 540 874 308 q 483 936 874 936 l 242 936 l 172 53 l 453 53 m 1792 946 l 1111 54 l 1736 54 l 1731 0 l 1071 0 l 1068 -3 l 1068 0 l 1031 0 l 1033 43 l 1717 935 l 1106 935 l 1110 989 l 1757 989 l 1760 992 l 1760 989 l 1796 989 l 1792 946 m 1658 1282 l 1485 1074 l 1435 1074 l 1294 1282 l 1364 1282 l 1463 1124 l 1586 1282 l 1658 1282 z "},"Ð":{"ha":1024,"x_min":15,"x_max":942,"o":"m 488 989 q 826 873 710 989 q 942 539 942 757 q 815 142 942 285 q 456 0 689 0 l 114 0 l 150 476 l 15 476 l 19 529 l 154 529 l 190 989 l 488 989 m 457 53 q 771 181 664 53 q 878 540 878 308 q 490 936 878 936 l 246 936 l 214 529 l 489 529 l 485 476 l 210 476 l 176 53 l 457 53 z "},"Ď":{"ha":1019,"x_min":110,"x_max":938,"o":"m 186 989 l 482 989 q 821 873 704 989 q 938 539 938 757 q 881 251 938 372 q 715 65 825 129 q 451 0 606 0 l 110 0 l 186 989 m 453 53 q 767 181 660 53 q 874 540 874 308 q 483 936 874 936 l 242 936 l 172 53 l 453 53 m 765 1282 l 592 1074 l 542 1074 l 401 1282 l 471 1282 l 569 1124 l 693 1282 l 765 1282 z "},"Đ":{"ha":1024,"x_min":15,"x_max":942,"o":"m 488 989 q 826 873 710 989 q 942 539 942 757 q 815 142 942 285 q 456 0 689 0 l 114 0 l 150 476 l 15 476 l 19 529 l 154 529 l 190 989 l 488 989 m 457 53 q 771 181 664 53 q 878 540 878 308 q 490 936 878 936 l 246 936 l 214 529 l 489 529 l 485 476 l 210 476 l 176 53 l 457 53 z "},"Ḍ":{"ha":1019,"x_min":110,"x_max":938,"o":"m 186 989 l 482 989 q 821 873 704 989 q 938 539 938 757 q 881 251 938 372 q 715 65 825 129 q 451 0 606 0 l 110 0 l 186 989 m 453 53 q 767 181 660 53 q 874 540 874 308 q 483 936 874 936 l 242 936 l 172 53 l 453 53 m 519 -153 l 511 -243 l 418 -243 l 426 -153 l 519 -153 z "},"Ḏ":{"ha":1019,"x_min":110,"x_max":938,"o":"m 186 989 l 482 989 q 821 873 704 989 q 938 539 938 757 q 881 251 938 372 q 715 65 825 129 q 451 0 606 0 l 110 0 l 186 989 m 453 53 q 767 181 660 53 q 874 540 874 308 q 483 936 874 936 l 242 936 l 172 53 l 453 53 m 267 -167 l 676 -167 l 671 -228 l 261 -228 l 267 -167 z "},"ǅ":{"ha":1731,"x_min":110,"x_max":1674,"o":"m 186 989 l 482 989 q 821 873 704 989 q 938 539 938 757 q 881 251 938 372 q 715 65 825 129 q 451 0 606 0 l 110 0 l 186 989 m 453 53 q 767 181 660 53 q 874 540 874 308 q 483 936 874 936 l 242 936 l 172 53 l 453 53 m 1672 649 l 1151 49 l 1640 49 l 1636 0 l 1063 0 l 1067 38 l 1596 646 l 1135 646 l 1139 694 l 1674 694 l 1672 649 m 1617 1067 l 1439 786 l 1386 786 l 1253 1067 l 1322 1067 l 1415 844 l 1546 1067 l 1617 1067 z "},"E":{"ha":810,"x_min":110,"x_max":782,"o":"m 242 935 l 210 529 l 718 529 l 714 474 l 206 474 l 172 54 l 708 54 l 704 0 l 110 0 l 186 989 l 782 989 l 779 935 l 242 935 z "},"É":{"ha":810,"x_min":110,"x_max":782,"o":"m 242 935 l 210 529 l 718 529 l 714 474 l 206 474 l 172 54 l 708 54 l 704 0 l 110 0 l 186 989 l 782 989 l 779 935 l 242 935 m 483 1074 l 638 1282 l 728 1282 l 533 1074 l 483 1074 z "},"Ĕ":{"ha":810,"x_min":110,"x_max":782,"o":"m 242 935 l 210 529 l 718 529 l 714 474 l 206 474 l 172 54 l 708 54 l 704 0 l 110 0 l 186 989 l 782 989 l 779 935 l 242 935 m 508 1092 q 384 1127 439 1092 q 304 1239 329 1163 l 363 1264 q 427 1173 392 1197 q 513 1149 463 1149 q 603 1173 564 1149 q 681 1264 642 1197 l 738 1239 q 508 1092 664 1092 z "},"Ě":{"ha":810,"x_min":110,"x_max":782,"o":"m 242 935 l 210 529 l 718 529 l 714 474 l 206 474 l 172 54 l 708 54 l 704 0 l 110 0 l 186 989 l 782 989 l 779 935 l 242 935 m 707 1282 l 533 1074 l 483 1074 l 343 1282 l 413 1282 l 511 1124 l 635 1282 l 707 1282 z "},"Ȩ":{"ha":810,"x_min":110,"x_max":782,"o":"m 242 935 l 210 529 l 718 529 l 714 474 l 206 474 l 172 54 l 708 54 l 704 0 l 443 0 l 431 -62 q 468 -57 449 -57 q 540 -82 513 -57 q 567 -151 567 -107 q 526 -235 567 -204 q 414 -267 486 -267 q 354 -260 386 -267 q 296 -240 322 -254 l 317 -192 q 418 -211 367 -211 q 485 -197 463 -211 q 508 -154 508 -182 q 495 -122 508 -133 q 457 -111 482 -111 q 389 -126 425 -111 l 364 -107 l 383 0 l 110 0 l 186 989 l 782 989 l 779 935 l 242 935 z "},"Ḝ":{"ha":810,"x_min":110,"x_max":782,"o":"m 508 1092 q 384 1127 439 1092 q 304 1239 329 1163 l 363 1264 q 427 1173 392 1197 q 513 1149 463 1149 q 603 1173 564 1149 q 681 1264 642 1197 l 738 1239 q 508 1092 664 1092 m 242 935 l 210 529 l 718 529 l 714 474 l 206 474 l 172 54 l 708 54 l 704 0 l 443 0 l 431 -62 q 468 -57 449 -57 q 540 -82 513 -57 q 567 -151 567 -107 q 526 -235 567 -204 q 414 -267 486 -267 q 354 -260 386 -267 q 296 -240 322 -254 l 317 -192 q 418 -211 367 -211 q 485 -197 463 -211 q 508 -154 508 -182 q 495 -122 508 -133 q 457 -111 482 -111 q 389 -126 425 -111 l 364 -107 l 383 0 l 110 0 l 186 989 l 782 989 l 779 935 l 242 935 z "},"Ê":{"ha":810,"x_min":110,"x_max":782,"o":"m 242 935 l 210 529 l 718 529 l 714 474 l 206 474 l 172 54 l 708 54 l 704 0 l 110 0 l 186 989 l 782 989 l 779 935 l 242 935 m 326 1074 l 500 1282 l 550 1282 l 690 1074 l 621 1074 l 524 1232 l 399 1074 l 326 1074 z "},"Ế":{"ha":810,"x_min":110,"x_max":881,"o":"m 242 935 l 210 529 l 718 529 l 714 474 l 206 474 l 172 54 l 708 54 l 704 0 l 110 0 l 186 989 l 782 989 l 779 935 l 242 935 m 788 1413 l 881 1413 l 681 1214 l 631 1214 l 788 1413 m 500 1285 l 550 1285 l 690 1074 l 621 1074 l 524 1235 l 399 1074 l 326 1074 l 500 1285 z "},"Ệ":{"ha":810,"x_min":110,"x_max":782,"o":"m 242 935 l 210 529 l 718 529 l 714 474 l 206 474 l 172 54 l 708 54 l 704 0 l 110 0 l 186 989 l 782 989 l 779 935 l 242 935 m 460 -153 l 451 -243 l 358 -243 l 367 -153 l 460 -153 m 326 1074 l 500 1282 l 550 1282 l 690 1074 l 621 1074 l 524 1232 l 399 1074 l 326 1074 z "},"Ề":{"ha":810,"x_min":110,"x_max":782,"o":"m 242 935 l 210 529 l 718 529 l 714 474 l 206 474 l 172 54 l 708 54 l 704 0 l 110 0 l 186 989 l 782 989 l 779 935 l 242 935 m 560 1413 l 643 1413 l 742 1214 l 690 1214 l 560 1413 m 500 1285 l 550 1285 l 690 1074 l 621 1074 l 524 1235 l 399 1074 l 326 1074 l 500 1285 z "},"Ể":{"ha":810,"x_min":110,"x_max":803,"o":"m 242 935 l 210 529 l 718 529 l 714 474 l 206 474 l 172 54 l 708 54 l 704 0 l 110 0 l 186 989 l 782 989 l 779 935 l 242 935 m 631 1236 q 647 1272 632 1260 q 693 1297 663 1283 q 726 1314 715 1307 q 736 1333 736 1321 q 719 1353 736 1346 q 675 1361 701 1361 q 583 1344 635 1361 l 572 1397 q 676 1419 621 1419 q 769 1397 736 1419 q 803 1340 803 1375 q 786 1297 803 1311 q 736 1265 769 1282 q 702 1247 714 1256 q 689 1226 690 1239 l 688 1214 l 629 1214 l 631 1236 m 500 1285 l 550 1285 l 690 1074 l 621 1074 l 524 1235 l 399 1074 l 326 1074 l 500 1285 z "},"Ễ":{"ha":810,"x_min":110,"x_max":782,"o":"m 242 935 l 210 529 l 718 529 l 714 474 l 206 474 l 172 54 l 708 54 l 704 0 l 110 0 l 186 989 l 782 989 l 779 935 l 242 935 m 310 1304 q 347 1402 314 1367 q 433 1438 381 1438 q 488 1428 463 1438 q 551 1399 514 1418 q 598 1376 581 1383 q 632 1369 615 1369 q 685 1392 665 1369 q 706 1443 706 1414 l 754 1443 q 718 1345 751 1381 q 632 1310 685 1310 q 576 1319 601 1310 q 511 1349 550 1329 q 467 1370 485 1363 q 432 1378 449 1378 q 379 1356 399 1378 q 358 1304 360 1335 l 310 1304 m 500 1285 l 550 1285 l 690 1074 l 621 1074 l 524 1235 l 399 1074 l 326 1074 l 500 1285 z "},"Ȅ":{"ha":810,"x_min":110,"x_max":782,"o":"m 242 935 l 210 529 l 718 529 l 714 474 l 206 474 l 172 54 l 708 54 l 704 0 l 110 0 l 186 989 l 782 989 l 779 935 l 242 935 m 294 1282 l 369 1282 l 451 1074 l 413 1074 l 294 1282 m 447 1282 l 521 1282 l 604 1074 l 565 1074 l 447 1282 z "},"Ë":{"ha":810,"x_min":110,"x_max":782,"o":"m 242 935 l 210 529 l 718 529 l 714 474 l 206 474 l 172 54 l 708 54 l 704 0 l 110 0 l 186 989 l 782 989 l 779 935 l 242 935 m 451 1222 l 444 1138 l 358 1138 l 365 1222 l 451 1222 m 676 1222 l 669 1138 l 583 1138 l 589 1222 l 676 1222 z "},"Ė":{"ha":810,"x_min":110,"x_max":782,"o":"m 242 935 l 210 529 l 718 529 l 714 474 l 206 474 l 172 54 l 708 54 l 704 0 l 110 0 l 186 989 l 782 989 l 779 935 l 242 935 m 564 1224 l 557 1135 l 469 1135 l 476 1224 l 564 1224 z "},"Ẹ":{"ha":810,"x_min":110,"x_max":782,"o":"m 242 935 l 210 529 l 718 529 l 714 474 l 206 474 l 172 54 l 708 54 l 704 0 l 110 0 l 186 989 l 782 989 l 779 935 l 242 935 m 460 -153 l 451 -243 l 358 -243 l 367 -153 l 460 -153 z "},"È":{"ha":810,"x_min":110,"x_max":782,"o":"m 242 935 l 210 529 l 718 529 l 714 474 l 206 474 l 172 54 l 708 54 l 704 0 l 110 0 l 186 989 l 782 989 l 779 935 l 242 935 m 329 1282 l 407 1282 l 533 1074 l 483 1074 l 329 1282 z "},"Ẻ":{"ha":810,"x_min":110,"x_max":782,"o":"m 242 935 l 210 529 l 718 529 l 714 474 l 206 474 l 172 54 l 708 54 l 704 0 l 110 0 l 186 989 l 782 989 l 779 935 l 242 935 m 538 1074 l 481 1074 l 482 1094 q 499 1133 483 1119 q 544 1164 515 1147 q 576 1185 567 1178 q 585 1204 585 1192 q 569 1224 585 1217 q 525 1231 553 1231 q 435 1214 483 1231 l 422 1265 q 528 1289 471 1289 q 620 1267 588 1289 q 653 1208 653 1246 q 634 1159 653 1176 q 583 1126 615 1142 q 551 1108 563 1117 q 539 1086 540 1099 l 538 1074 z "},"Ȇ":{"ha":810,"x_min":110,"x_max":782,"o":"m 242 935 l 210 529 l 718 529 l 714 474 l 206 474 l 172 54 l 708 54 l 704 0 l 110 0 l 186 989 l 782 989 l 779 935 l 242 935 m 525 1265 q 649 1230 594 1265 q 729 1118 704 1194 l 671 1094 q 606 1184 642 1160 q 521 1208 571 1208 q 431 1184 471 1208 q 353 1094 392 1160 l 296 1118 q 525 1265 369 1265 z "},"Ē":{"ha":810,"x_min":110,"x_max":782,"o":"m 242 935 l 210 529 l 718 529 l 714 474 l 206 474 l 172 54 l 708 54 l 704 0 l 110 0 l 186 989 l 782 989 l 779 935 l 242 935 m 315 1210 l 722 1210 l 718 1150 l 308 1150 l 315 1210 z "},"Ḗ":{"ha":810,"x_min":110,"x_max":782,"o":"m 242 935 l 210 529 l 718 529 l 714 474 l 206 474 l 172 54 l 708 54 l 704 0 l 110 0 l 186 989 l 782 989 l 779 935 l 242 935 m 315 1210 l 722 1210 l 718 1150 l 308 1150 l 315 1210 m 501 1299 l 656 1507 l 746 1507 l 551 1299 l 501 1299 z "},"Ḕ":{"ha":810,"x_min":110,"x_max":782,"o":"m 242 935 l 210 529 l 718 529 l 714 474 l 206 474 l 172 54 l 708 54 l 704 0 l 110 0 l 186 989 l 782 989 l 779 935 l 242 935 m 315 1210 l 722 1210 l 718 1150 l 308 1150 l 315 1210 m 347 1507 l 425 1507 l 551 1299 l 501 1299 l 347 1507 z "},"Ę":{"ha":810,"x_min":110,"x_max":782,"o":"m 242 935 l 210 529 l 718 529 l 714 474 l 206 474 l 172 54 l 708 54 l 704 0 l 688 0 q 574 -34 610 0 q 538 -122 538 -68 q 560 -190 538 -167 q 626 -212 583 -212 q 711 -185 664 -212 l 729 -235 q 681 -258 711 -249 q 619 -267 651 -267 q 513 -231 553 -267 q 474 -133 474 -194 q 536 0 474 -54 l 110 0 l 186 989 l 782 989 l 779 935 l 242 935 z "},"Ẽ":{"ha":810,"x_min":110,"x_max":782,"o":"m 242 935 l 210 529 l 718 529 l 714 474 l 206 474 l 172 54 l 708 54 l 704 0 l 110 0 l 186 989 l 782 989 l 779 935 l 242 935 m 294 1114 q 331 1215 297 1179 q 417 1250 364 1250 q 472 1238 446 1250 q 535 1201 499 1225 q 583 1174 565 1182 q 617 1165 600 1165 q 669 1188 650 1165 q 690 1246 689 1210 l 739 1246 q 703 1146 736 1182 q 617 1110 669 1110 q 562 1122 588 1110 q 500 1157 536 1133 q 454 1184 474 1175 q 418 1193 435 1193 q 365 1172 385 1193 q 343 1114 346 1150 l 294 1114 z "},"F":{"ha":772,"x_min":110,"x_max":768,"o":"m 242 935 l 210 529 l 704 529 l 700 475 l 206 475 l 168 0 l 110 0 l 186 989 l 768 989 l 764 935 l 242 935 z "},"G":{"ha":1004,"x_min":106,"x_max":918,"o":"m 565 499 l 893 499 l 860 54 q 712 8 801 26 q 544 -11 622 -11 q 218 106 331 -11 q 106 433 106 222 q 163 733 106 606 q 328 930 221 861 q 582 999 436 999 q 918 867 788 999 l 883 818 q 740 914 811 885 q 582 943 669 943 q 359 883 453 943 q 216 709 265 822 q 167 439 167 596 q 261 147 167 250 q 539 44 356 44 q 677 58 606 44 q 808 96 749 72 l 835 442 l 561 442 l 565 499 z "},"Ğ":{"ha":1004,"x_min":106,"x_max":918,"o":"m 565 499 l 893 499 l 860 54 q 712 8 801 26 q 544 -11 622 -11 q 218 106 331 -11 q 106 433 106 222 q 163 733 106 606 q 328 930 221 861 q 582 999 436 999 q 918 867 788 999 l 883 818 q 740 914 811 885 q 582 943 669 943 q 359 883 453 943 q 216 709 265 822 q 167 439 167 596 q 261 147 167 250 q 539 44 356 44 q 677 58 606 44 q 808 96 749 72 l 835 442 l 561 442 l 565 499 m 597 1092 q 473 1127 528 1092 q 393 1239 418 1163 l 451 1264 q 516 1173 481 1197 q 601 1149 551 1149 q 692 1173 653 1149 q 769 1264 731 1197 l 826 1239 q 597 1092 753 1092 z "},"Ǧ":{"ha":1004,"x_min":106,"x_max":918,"o":"m 565 499 l 893 499 l 860 54 q 712 8 801 26 q 544 -11 622 -11 q 218 106 331 -11 q 106 433 106 222 q 163 733 106 606 q 328 930 221 861 q 582 999 436 999 q 918 867 788 999 l 883 818 q 740 914 811 885 q 582 943 669 943 q 359 883 453 943 q 216 709 265 822 q 167 439 167 596 q 261 147 167 250 q 539 44 356 44 q 677 58 606 44 q 808 96 749 72 l 835 442 l 561 442 l 565 499 m 796 1282 l 622 1074 l 572 1074 l 432 1282 l 501 1282 l 600 1124 l 724 1282 l 796 1282 z "},"Ĝ":{"ha":1004,"x_min":106,"x_max":918,"o":"m 565 499 l 893 499 l 860 54 q 712 8 801 26 q 544 -11 622 -11 q 218 106 331 -11 q 106 433 106 222 q 163 733 106 606 q 328 930 221 861 q 582 999 436 999 q 918 867 788 999 l 883 818 q 740 914 811 885 q 582 943 669 943 q 359 883 453 943 q 216 709 265 822 q 167 439 167 596 q 261 147 167 250 q 539 44 356 44 q 677 58 606 44 q 808 96 749 72 l 835 442 l 561 442 l 565 499 m 415 1074 l 589 1282 l 639 1282 l 779 1074 l 710 1074 l 613 1232 l 488 1074 l 415 1074 z "},"Ģ":{"ha":1004,"x_min":106,"x_max":918,"o":"m 565 499 l 893 499 l 860 54 q 712 8 801 26 q 544 -11 622 -11 q 218 106 331 -11 q 106 433 106 222 q 163 733 106 606 q 328 930 221 861 q 582 999 436 999 q 918 867 788 999 l 883 818 q 740 914 811 885 q 582 943 669 943 q 359 883 453 943 q 216 709 265 822 q 167 439 167 596 q 261 147 167 250 q 539 44 356 44 q 677 58 606 44 q 808 96 749 72 l 835 442 l 561 442 l 565 499 m 565 -107 l 560 -182 q 538 -274 556 -232 q 482 -351 519 -315 l 446 -321 q 490 -261 478 -289 q 506 -197 501 -233 l 461 -197 l 467 -107 l 565 -107 z "},"Ġ":{"ha":1004,"x_min":106,"x_max":918,"o":"m 565 499 l 893 499 l 860 54 q 712 8 801 26 q 544 -11 622 -11 q 218 106 331 -11 q 106 433 106 222 q 163 733 106 606 q 328 930 221 861 q 582 999 436 999 q 918 867 788 999 l 883 818 q 740 914 811 885 q 582 943 669 943 q 359 883 453 943 q 216 709 265 822 q 167 439 167 596 q 261 147 167 250 q 539 44 356 44 q 677 58 606 44 q 808 96 749 72 l 835 442 l 561 442 l 565 499 m 653 1224 l 646 1135 l 558 1135 l 565 1224 l 653 1224 z "},"Ḡ":{"ha":1004,"x_min":106,"x_max":918,"o":"m 565 499 l 893 499 l 860 54 q 712 8 801 26 q 544 -11 622 -11 q 218 106 331 -11 q 106 433 106 222 q 163 733 106 606 q 328 930 221 861 q 582 999 436 999 q 918 867 788 999 l 883 818 q 740 914 811 885 q 582 943 669 943 q 359 883 453 943 q 216 709 265 822 q 167 439 167 596 q 261 147 167 250 q 539 44 356 44 q 677 58 606 44 q 808 96 749 72 l 835 442 l 561 442 l 565 499 m 404 1210 l 811 1210 l 807 1150 l 397 1150 l 404 1210 z "},"H":{"ha":1054,"x_min":110,"x_max":971,"o":"m 971 989 l 893 0 l 835 0 l 871 475 l 206 475 l 168 0 l 110 0 l 186 989 l 246 989 l 210 529 l 875 529 l 911 989 l 971 989 z "},"Ħ":{"ha":1065,"x_min":36,"x_max":1096,"o":"m 1090 739 l 953 739 l 894 0 l 836 0 l 875 499 l 872 475 l 206 475 l 168 0 l 111 0 l 168 739 l 36 739 l 40 793 l 172 793 l 188 989 l 246 989 l 231 793 l 897 793 l 913 989 l 972 989 l 957 793 l 1096 793 l 1090 739 m 893 739 l 226 739 l 210 529 l 876 529 l 893 739 z "},"Ḫ":{"ha":1054,"x_min":110,"x_max":971,"o":"m 971 989 l 893 0 l 835 0 l 871 475 l 206 475 l 168 0 l 110 0 l 186 989 l 246 989 l 210 529 l 875 529 l 911 989 l 971 989 m 481 -283 q 356 -244 411 -283 q 278 -121 301 -204 l 336 -97 q 397 -197 360 -167 q 483 -228 433 -228 q 577 -198 535 -228 q 651 -97 619 -168 l 708 -119 q 481 -283 636 -283 z "},"Ĥ":{"ha":1054,"x_min":110,"x_max":971,"o":"m 971 989 l 893 0 l 835 0 l 871 475 l 206 475 l 168 0 l 110 0 l 186 989 l 246 989 l 210 529 l 875 529 l 911 989 l 971 989 m 403 1074 l 576 1282 l 626 1282 l 767 1074 l 697 1074 l 600 1232 l 475 1074 l 403 1074 z "},"Ḥ":{"ha":1054,"x_min":110,"x_max":971,"o":"m 971 989 l 893 0 l 835 0 l 871 475 l 206 475 l 168 0 l 110 0 l 186 989 l 246 989 l 210 529 l 875 529 l 911 989 l 971 989 m 539 -153 l 531 -243 l 438 -243 l 446 -153 l 539 -153 z "},"I":{"ha":326,"x_min":110,"x_max":244,"o":"m 186 989 l 244 989 l 167 0 l 110 0 l 186 989 z "},"Í":{"ha":326,"x_min":110,"x_max":443,"o":"m 186 989 l 244 989 l 167 0 l 110 0 l 186 989 m 199 1074 l 353 1282 l 443 1282 l 249 1074 l 199 1074 z "},"Ĭ":{"ha":326,"x_min":19,"x_max":453,"o":"m 186 989 l 244 989 l 167 0 l 110 0 l 186 989 m 224 1092 q 99 1127 154 1092 q 19 1239 44 1163 l 78 1264 q 142 1173 107 1197 q 228 1149 178 1149 q 318 1173 279 1149 q 396 1264 357 1197 l 453 1239 q 224 1092 379 1092 z "},"Î":{"ha":326,"x_min":42,"x_max":406,"o":"m 186 989 l 244 989 l 167 0 l 110 0 l 186 989 m 42 1074 l 215 1282 l 265 1282 l 406 1074 l 336 1074 l 239 1232 l 114 1074 l 42 1074 z "},"Ȉ":{"ha":326,"x_min":10,"x_max":319,"o":"m 186 989 l 244 989 l 167 0 l 110 0 l 186 989 m 10 1282 l 85 1282 l 167 1074 l 128 1074 l 10 1282 m 163 1282 l 236 1282 l 319 1074 l 281 1074 l 163 1282 z "},"Ï":{"ha":326,"x_min":74,"x_max":392,"o":"m 186 989 l 244 989 l 167 0 l 110 0 l 186 989 m 167 1222 l 160 1138 l 74 1138 l 81 1222 l 167 1222 m 392 1222 l 385 1138 l 299 1138 l 304 1222 l 392 1222 z "},"Ḯ":{"ha":326,"x_min":74,"x_max":461,"o":"m 186 989 l 244 989 l 167 0 l 110 0 l 186 989 m 167 1222 l 160 1138 l 74 1138 l 81 1222 l 167 1222 m 392 1222 l 385 1138 l 299 1138 l 304 1222 l 392 1222 m 217 1299 l 371 1507 l 461 1507 l 267 1299 l 217 1299 z "},"İ":{"ha":326,"x_min":110,"x_max":279,"o":"m 186 989 l 244 989 l 167 0 l 110 0 l 186 989 m 279 1224 l 272 1135 l 185 1135 l 192 1224 l 279 1224 z "},"Ị":{"ha":326,"x_min":74,"x_max":244,"o":"m 186 989 l 244 989 l 167 0 l 110 0 l 186 989 m 175 -153 l 167 -243 l 74 -243 l 82 -153 l 175 -153 z "},"Ì":{"ha":326,"x_min":44,"x_max":249,"o":"m 186 989 l 244 989 l 167 0 l 110 0 l 186 989 m 44 1282 l 122 1282 l 249 1074 l 199 1074 l 44 1282 z "},"Ỉ":{"ha":326,"x_min":110,"x_max":368,"o":"m 186 989 l 244 989 l 167 0 l 110 0 l 186 989 m 253 1074 l 196 1074 l 197 1094 q 215 1133 199 1119 q 260 1164 231 1147 q 291 1185 282 1178 q 300 1204 300 1192 q 284 1224 300 1217 q 240 1231 268 1231 q 150 1214 199 1231 l 138 1265 q 243 1289 186 1289 q 335 1267 303 1289 q 368 1208 368 1246 q 349 1159 368 1176 q 299 1126 331 1142 q 267 1108 278 1117 q 254 1086 256 1099 l 253 1074 z "},"Ȋ":{"ha":326,"x_min":11,"x_max":444,"o":"m 186 989 l 244 989 l 167 0 l 110 0 l 186 989 m 240 1265 q 365 1230 310 1265 q 444 1118 419 1194 l 386 1094 q 322 1184 357 1160 q 236 1208 286 1208 q 147 1184 186 1208 q 68 1094 107 1160 l 11 1118 q 240 1265 85 1265 z "},"Ī":{"ha":326,"x_min":24,"x_max":438,"o":"m 186 989 l 244 989 l 167 0 l 110 0 l 186 989 m 31 1210 l 438 1210 l 433 1150 l 24 1150 l 31 1210 z "},"Į":{"ha":326,"x_min":-40,"x_max":243,"o":"m 111 -212 q 151 -205 128 -212 q 197 -185 175 -197 l 217 -235 q 167 -258 197 -249 q 107 -267 138 -267 q -1 -230 39 -267 q -40 -129 -40 -193 q -1 -17 -40 -64 q 113 49 38 31 l 185 989 l 243 989 l 165 0 l 161 0 q 56 -35 90 0 q 22 -121 22 -69 q 46 -190 22 -167 q 111 -212 69 -212 z "},"Ĩ":{"ha":326,"x_min":10,"x_max":454,"o":"m 186 989 l 244 989 l 167 0 l 110 0 l 186 989 m 10 1114 q 46 1215 13 1179 q 132 1250 79 1250 q 188 1238 161 1250 q 250 1201 214 1225 q 298 1174 281 1182 q 332 1165 315 1165 q 385 1188 365 1165 q 406 1246 404 1210 l 454 1246 q 418 1146 451 1182 q 332 1110 385 1110 q 277 1122 303 1110 q 215 1157 251 1133 q 169 1184 189 1175 q 133 1193 150 1193 q 81 1172 100 1193 q 58 1114 61 1150 l 10 1114 z "},"J":{"ha":417,"x_min":-58,"x_max":333,"o":"m -54 -190 q 39 -203 -3 -203 q 149 -157 111 -203 q 196 -7 186 -111 l 275 989 l 333 989 l 254 -10 q 190 -199 243 -140 q 39 -258 138 -258 q -58 -247 0 -258 l -54 -190 z "},"Ĵ":{"ha":417,"x_min":-58,"x_max":492,"o":"m -54 -190 q 39 -203 -3 -203 q 149 -157 111 -203 q 196 -7 186 -111 l 275 989 l 333 989 l 254 -10 q 190 -199 243 -140 q 39 -258 138 -258 q -58 -247 0 -258 l -54 -190 m 128 1074 l 301 1282 l 351 1282 l 492 1074 l 422 1074 l 325 1232 l 200 1074 l 128 1074 z "},"K":{"ha":840,"x_min":110,"x_max":851,"o":"m 261 506 l 807 0 l 728 0 l 204 481 l 167 0 l 110 0 l 186 989 l 244 989 l 208 531 l 763 989 l 851 989 l 261 506 z "},"Ķ":{"ha":840,"x_min":110,"x_max":851,"o":"m 261 506 l 807 0 l 728 0 l 204 481 l 167 0 l 110 0 l 186 989 l 244 989 l 208 531 l 763 989 l 851 989 l 261 506 m 440 -107 l 435 -182 q 413 -274 431 -232 q 357 -351 394 -315 l 321 -321 q 365 -261 353 -289 q 381 -197 376 -233 l 336 -197 l 342 -107 l 440 -107 z "},"L":{"ha":739,"x_min":110,"x_max":697,"o":"m 186 989 l 244 989 l 172 53 l 697 53 l 693 0 l 110 0 l 186 989 z "},"Ǉ":{"ha":1028,"x_min":110,"x_max":946,"o":"m 186 989 l 244 989 l 172 53 l 656 53 l 651 0 l 110 0 l 186 989 m 558 -190 q 651 -203 611 -203 q 762 -157 724 -203 q 808 -7 800 -111 l 886 989 l 946 989 l 865 -10 q 801 -199 854 -140 q 650 -258 749 -258 q 553 -247 611 -258 l 558 -190 z "},"Ĺ":{"ha":739,"x_min":110,"x_max":697,"o":"m 186 989 l 244 989 l 172 53 l 697 53 l 693 0 l 110 0 l 186 989 m 199 1074 l 353 1282 l 443 1282 l 249 1074 l 199 1074 z "},"Ľ":{"ha":739,"x_min":110,"x_max":697,"o":"m 186 989 l 244 989 l 172 53 l 697 53 l 693 0 l 110 0 l 186 989 m 340 725 l 360 989 l 435 989 l 379 725 l 340 725 z "},"Ļ":{"ha":739,"x_min":110,"x_max":697,"o":"m 186 989 l 244 989 l 172 53 l 697 53 l 693 0 l 110 0 l 186 989 m 446 -107 l 440 -182 q 418 -274 436 -232 q 363 -351 400 -315 l 326 -321 q 370 -261 358 -289 q 386 -197 382 -233 l 342 -197 l 347 -107 l 446 -107 z "},"Ŀ":{"ha":739,"x_min":110,"x_max":697,"o":"m 186 989 l 244 989 l 172 53 l 697 53 l 693 0 l 110 0 l 186 989 m 525 543 l 517 447 l 419 447 l 428 543 l 525 543 z "},"Ḷ":{"ha":739,"x_min":110,"x_max":697,"o":"m 186 989 l 244 989 l 172 53 l 697 53 l 693 0 l 110 0 l 186 989 m 440 -153 l 432 -243 l 339 -243 l 347 -153 l 440 -153 z "},"ǈ":{"ha":1042,"x_min":110,"x_max":983,"o":"m 186 989 l 244 989 l 172 53 l 697 53 l 693 0 l 110 0 l 186 989 m 624 -237 q 690 -249 661 -249 q 783 -215 749 -249 q 825 -93 818 -182 l 889 694 l 946 694 l 881 -114 q 822 -256 872 -210 q 694 -303 772 -303 q 619 -293 665 -303 l 624 -237 m 983 972 l 976 883 l 888 883 l 894 972 l 983 972 z "},"Ḻ":{"ha":739,"x_min":110,"x_max":697,"o":"m 186 989 l 244 989 l 172 53 l 697 53 l 693 0 l 110 0 l 186 989 m 188 -167 l 597 -167 l 592 -228 l 182 -228 l 188 -167 z "},"Ł":{"ha":743,"x_min":14,"x_max":701,"o":"m 701 53 l 697 0 l 114 0 l 149 453 l 14 379 l 19 442 l 154 515 l 190 989 l 249 989 l 215 550 l 493 703 l 489 640 l 210 488 l 176 53 l 701 53 z "},"M":{"ha":1178,"x_min":110,"x_max":1094,"o":"m 1094 989 l 1017 0 l 960 0 l 1025 838 l 589 0 l 542 0 l 233 840 l 167 0 l 110 0 l 186 989 l 239 989 l 569 68 l 1043 989 l 1094 989 z "},"Ṃ":{"ha":1178,"x_min":110,"x_max":1094,"o":"m 1094 989 l 1017 0 l 960 0 l 1025 838 l 589 0 l 542 0 l 233 840 l 167 0 l 110 0 l 186 989 l 239 989 l 569 68 l 1043 989 l 1094 989 m 600 -153 l 592 -243 l 499 -243 l 507 -153 l 600 -153 z "},"N":{"ha":1026,"x_min":110,"x_max":943,"o":"m 943 989 l 865 0 l 818 0 l 236 892 l 164 0 l 110 0 l 186 989 l 236 989 l 817 101 l 888 989 l 943 989 z "},"Ǌ":{"ha":1443,"x_min":110,"x_max":1360,"o":"m 943 989 l 865 0 l 818 0 l 236 892 l 164 0 l 110 0 l 186 989 l 236 989 l 817 101 l 888 989 l 943 989 m 972 -190 q 1065 -203 1024 -203 q 1175 -157 1138 -203 q 1222 -7 1213 -111 l 1301 989 l 1360 989 l 1281 -10 q 1217 -199 1269 -140 q 1065 -258 1164 -258 q 968 -247 1026 -258 l 972 -190 z "},"Ń":{"ha":1026,"x_min":110,"x_max":943,"o":"m 943 989 l 865 0 l 818 0 l 236 892 l 164 0 l 110 0 l 186 989 l 236 989 l 817 101 l 888 989 l 943 989 m 547 1074 l 701 1282 l 792 1282 l 597 1074 l 547 1074 z "},"Ň":{"ha":1026,"x_min":110,"x_max":943,"o":"m 943 989 l 865 0 l 818 0 l 236 892 l 164 0 l 110 0 l 186 989 l 236 989 l 817 101 l 888 989 l 943 989 m 771 1282 l 597 1074 l 547 1074 l 407 1282 l 476 1282 l 575 1124 l 699 1282 l 771 1282 z "},"Ņ":{"ha":1026,"x_min":110,"x_max":943,"o":"m 943 989 l 865 0 l 818 0 l 236 892 l 164 0 l 110 0 l 186 989 l 236 989 l 817 101 l 888 989 l 943 989 m 529 -107 l 524 -182 q 501 -274 519 -232 q 446 -351 483 -315 l 410 -321 q 453 -261 442 -289 q 469 -197 465 -233 l 425 -197 l 431 -107 l 529 -107 z "},"Ṅ":{"ha":1026,"x_min":110,"x_max":943,"o":"m 943 989 l 865 0 l 818 0 l 236 892 l 164 0 l 110 0 l 186 989 l 236 989 l 817 101 l 888 989 l 943 989 m 628 1224 l 621 1135 l 533 1135 l 540 1224 l 628 1224 z "},"Ṇ":{"ha":1026,"x_min":110,"x_max":943,"o":"m 943 989 l 865 0 l 818 0 l 236 892 l 164 0 l 110 0 l 186 989 l 236 989 l 817 101 l 888 989 l 943 989 m 524 -153 l 515 -243 l 422 -243 l 431 -153 l 524 -153 z "},"Ŋ":{"ha":1026,"x_min":110,"x_max":943,"o":"m 943 989 l 864 -21 q 798 -185 856 -124 q 626 -256 740 -247 l 553 -261 l 554 -206 l 624 -200 q 810 -25 796 -187 l 811 10 l 236 892 l 164 0 l 110 0 l 186 989 l 236 989 l 817 101 l 888 989 l 943 989 z "},"ǋ":{"ha":1329,"x_min":110,"x_max":1271,"o":"m 943 989 l 865 0 l 818 0 l 236 892 l 164 0 l 110 0 l 186 989 l 236 989 l 817 101 l 888 989 l 943 989 m 911 -237 q 978 -249 949 -249 q 1071 -215 1036 -249 q 1113 -93 1106 -182 l 1176 694 l 1233 694 l 1168 -114 q 1110 -256 1160 -210 q 982 -303 1060 -303 q 907 -293 953 -303 l 911 -237 m 1271 972 l 1264 883 l 1175 883 l 1182 972 l 1271 972 z "},"Ṉ":{"ha":1026,"x_min":110,"x_max":943,"o":"m 943 989 l 865 0 l 818 0 l 236 892 l 164 0 l 110 0 l 186 989 l 236 989 l 817 101 l 888 989 l 943 989 m 271 -167 l 681 -167 l 675 -228 l 265 -228 l 271 -167 z "},"Ñ":{"ha":1026,"x_min":110,"x_max":943,"o":"m 943 989 l 865 0 l 818 0 l 236 892 l 164 0 l 110 0 l 186 989 l 236 989 l 817 101 l 888 989 l 943 989 m 358 1114 q 394 1215 361 1179 q 481 1250 428 1250 q 536 1238 510 1250 q 599 1201 563 1225 q 647 1174 629 1182 q 681 1165 664 1165 q 733 1188 714 1165 q 754 1246 753 1210 l 803 1246 q 767 1146 800 1182 q 681 1110 733 1110 q 626 1122 651 1110 q 564 1157 600 1133 q 518 1184 538 1175 q 482 1193 499 1193 q 429 1172 449 1193 q 407 1114 410 1150 l 358 1114 z "},"O":{"ha":1054,"x_min":106,"x_max":972,"o":"m 526 -11 q 301 44 396 -11 q 156 203 207 100 q 106 449 106 307 q 160 740 106 615 q 315 933 215 865 q 550 1000 415 1000 q 776 944 681 1000 q 922 785 871 889 q 972 539 972 682 q 917 248 972 372 q 762 56 863 124 q 526 -11 661 -11 m 528 47 q 731 106 644 47 q 863 276 817 165 q 908 540 908 388 q 816 838 908 735 q 550 942 724 942 q 346 883 432 942 q 214 712 260 824 q 168 447 168 600 q 261 151 168 254 q 528 47 354 47 z "},"Ó":{"ha":1054,"x_min":106,"x_max":972,"o":"m 526 -11 q 301 44 396 -11 q 156 203 207 100 q 106 449 106 307 q 160 740 106 615 q 315 933 215 865 q 550 1000 415 1000 q 776 944 681 1000 q 922 785 871 889 q 972 539 972 682 q 917 248 972 372 q 762 56 863 124 q 526 -11 661 -11 m 528 47 q 731 106 644 47 q 863 276 817 165 q 908 540 908 388 q 816 838 908 735 q 550 942 724 942 q 346 883 432 942 q 214 712 260 824 q 168 447 168 600 q 261 151 168 254 q 528 47 354 47 m 558 1074 l 713 1282 l 803 1282 l 608 1074 l 558 1074 z "},"Ŏ":{"ha":1054,"x_min":106,"x_max":972,"o":"m 526 -11 q 301 44 396 -11 q 156 203 207 100 q 106 449 106 307 q 160 740 106 615 q 315 933 215 865 q 550 1000 415 1000 q 776 944 681 1000 q 922 785 871 889 q 972 539 972 682 q 917 248 972 372 q 762 56 863 124 q 526 -11 661 -11 m 528 47 q 731 106 644 47 q 863 276 817 165 q 908 540 908 388 q 816 838 908 735 q 550 942 724 942 q 346 883 432 942 q 214 712 260 824 q 168 447 168 600 q 261 151 168 254 q 528 47 354 47 m 583 1092 q 459 1127 514 1092 q 379 1239 404 1163 l 438 1264 q 502 1173 467 1197 q 588 1149 538 1149 q 678 1173 639 1149 q 756 1264 717 1197 l 813 1239 q 583 1092 739 1092 z "},"Ô":{"ha":1054,"x_min":106,"x_max":972,"o":"m 526 -11 q 301 44 396 -11 q 156 203 207 100 q 106 449 106 307 q 160 740 106 615 q 315 933 215 865 q 550 1000 415 1000 q 776 944 681 1000 q 922 785 871 889 q 972 539 972 682 q 917 248 972 372 q 762 56 863 124 q 526 -11 661 -11 m 528 47 q 731 106 644 47 q 863 276 817 165 q 908 540 908 388 q 816 838 908 735 q 550 942 724 942 q 346 883 432 942 q 214 712 260 824 q 168 447 168 600 q 261 151 168 254 q 528 47 354 47 m 401 1074 l 575 1282 l 625 1282 l 765 1074 l 696 1074 l 599 1232 l 474 1074 l 401 1074 z "},"Ố":{"ha":1054,"x_min":106,"x_max":972,"o":"m 526 -11 q 301 44 396 -11 q 156 203 207 100 q 106 449 106 307 q 160 740 106 615 q 315 933 215 865 q 550 1000 415 1000 q 776 944 681 1000 q 922 785 871 889 q 972 539 972 682 q 917 248 972 372 q 762 56 863 124 q 526 -11 661 -11 m 528 47 q 731 106 644 47 q 863 276 817 165 q 908 540 908 388 q 816 838 908 735 q 550 942 724 942 q 346 883 432 942 q 214 712 260 824 q 168 447 168 600 q 261 151 168 254 q 528 47 354 47 m 863 1413 l 956 1413 l 756 1214 l 706 1214 l 863 1413 m 575 1285 l 625 1285 l 765 1074 l 696 1074 l 599 1235 l 474 1074 l 401 1074 l 575 1285 z "},"Ộ":{"ha":1054,"x_min":106,"x_max":972,"o":"m 526 -11 q 301 44 396 -11 q 156 203 207 100 q 106 449 106 307 q 160 740 106 615 q 315 933 215 865 q 550 1000 415 1000 q 776 944 681 1000 q 922 785 871 889 q 972 539 972 682 q 917 248 972 372 q 762 56 863 124 q 526 -11 661 -11 m 528 47 q 731 106 644 47 q 863 276 817 165 q 908 540 908 388 q 816 838 908 735 q 550 942 724 942 q 346 883 432 942 q 214 712 260 824 q 168 447 168 600 q 261 151 168 254 q 528 47 354 47 m 536 -153 l 528 -243 l 435 -243 l 443 -153 l 536 -153 m 401 1074 l 575 1282 l 625 1282 l 765 1074 l 696 1074 l 599 1232 l 474 1074 l 401 1074 z "},"Ồ":{"ha":1054,"x_min":106,"x_max":972,"o":"m 526 -11 q 301 44 396 -11 q 156 203 207 100 q 106 449 106 307 q 160 740 106 615 q 315 933 215 865 q 550 1000 415 1000 q 776 944 681 1000 q 922 785 871 889 q 972 539 972 682 q 917 248 972 372 q 762 56 863 124 q 526 -11 661 -11 m 528 47 q 731 106 644 47 q 863 276 817 165 q 908 540 908 388 q 816 838 908 735 q 550 942 724 942 q 346 883 432 942 q 214 712 260 824 q 168 447 168 600 q 261 151 168 254 q 528 47 354 47 m 635 1413 l 718 1413 l 817 1214 l 765 1214 l 635 1413 m 575 1285 l 625 1285 l 765 1074 l 696 1074 l 599 1235 l 474 1074 l 401 1074 l 575 1285 z "},"Ổ":{"ha":1054,"x_min":106,"x_max":972,"o":"m 526 -11 q 301 44 396 -11 q 156 203 207 100 q 106 449 106 307 q 160 740 106 615 q 315 933 215 865 q 550 1000 415 1000 q 776 944 681 1000 q 922 785 871 889 q 972 539 972 682 q 917 248 972 372 q 762 56 863 124 q 526 -11 661 -11 m 528 47 q 731 106 644 47 q 863 276 817 165 q 908 540 908 388 q 816 838 908 735 q 550 942 724 942 q 346 883 432 942 q 214 712 260 824 q 168 447 168 600 q 261 151 168 254 q 528 47 354 47 m 706 1236 q 722 1272 707 1260 q 768 1297 738 1283 q 801 1314 790 1307 q 811 1333 811 1321 q 794 1353 811 1346 q 750 1361 776 1361 q 658 1344 710 1361 l 647 1397 q 751 1419 696 1419 q 844 1397 811 1419 q 878 1340 878 1375 q 861 1297 878 1311 q 811 1265 844 1282 q 777 1247 789 1256 q 764 1226 765 1239 l 763 1214 l 704 1214 l 706 1236 m 575 1285 l 625 1285 l 765 1074 l 696 1074 l 599 1235 l 474 1074 l 401 1074 l 575 1285 z "},"Ỗ":{"ha":1054,"x_min":106,"x_max":972,"o":"m 526 -11 q 301 44 396 -11 q 156 203 207 100 q 106 449 106 307 q 160 740 106 615 q 315 933 215 865 q 550 1000 415 1000 q 776 944 681 1000 q 922 785 871 889 q 972 539 972 682 q 917 248 972 372 q 762 56 863 124 q 526 -11 661 -11 m 528 47 q 731 106 644 47 q 863 276 817 165 q 908 540 908 388 q 816 838 908 735 q 550 942 724 942 q 346 883 432 942 q 214 712 260 824 q 168 447 168 600 q 261 151 168 254 q 528 47 354 47 m 385 1304 q 422 1402 389 1367 q 508 1438 456 1438 q 563 1428 538 1438 q 626 1399 589 1418 q 673 1376 656 1383 q 707 1369 690 1369 q 760 1392 740 1369 q 781 1443 781 1414 l 829 1443 q 793 1345 826 1381 q 707 1310 760 1310 q 651 1319 676 1310 q 586 1349 625 1329 q 542 1370 560 1363 q 507 1378 524 1378 q 454 1356 474 1378 q 433 1304 435 1335 l 385 1304 m 575 1285 l 625 1285 l 765 1074 l 696 1074 l 599 1235 l 474 1074 l 401 1074 l 575 1285 z "},"Ȍ":{"ha":1054,"x_min":106,"x_max":972,"o":"m 526 -11 q 301 44 396 -11 q 156 203 207 100 q 106 449 106 307 q 160 740 106 615 q 315 933 215 865 q 550 1000 415 1000 q 776 944 681 1000 q 922 785 871 889 q 972 539 972 682 q 917 248 972 372 q 762 56 863 124 q 526 -11 661 -11 m 528 47 q 731 106 644 47 q 863 276 817 165 q 908 540 908 388 q 816 838 908 735 q 550 942 724 942 q 346 883 432 942 q 214 712 260 824 q 168 447 168 600 q 261 151 168 254 q 528 47 354 47 m 369 1282 l 444 1282 l 526 1074 l 488 1074 l 369 1282 m 522 1282 l 596 1282 l 679 1074 l 640 1074 l 522 1282 z "},"Ö":{"ha":1054,"x_min":106,"x_max":972,"o":"m 526 -11 q 301 44 396 -11 q 156 203 207 100 q 106 449 106 307 q 160 740 106 615 q 315 933 215 865 q 550 1000 415 1000 q 776 944 681 1000 q 922 785 871 889 q 972 539 972 682 q 917 248 972 372 q 762 56 863 124 q 526 -11 661 -11 m 528 47 q 731 106 644 47 q 863 276 817 165 q 908 540 908 388 q 816 838 908 735 q 550 942 724 942 q 346 883 432 942 q 214 712 260 824 q 168 447 168 600 q 261 151 168 254 q 528 47 354 47 m 526 1222 l 519 1138 l 433 1138 l 440 1222 l 526 1222 m 751 1222 l 744 1138 l 658 1138 l 664 1222 l 751 1222 z "},"Ȫ":{"ha":1054,"x_min":106,"x_max":972,"o":"m 526 -11 q 301 44 396 -11 q 156 203 207 100 q 106 449 106 307 q 160 740 106 615 q 315 933 215 865 q 550 1000 415 1000 q 776 944 681 1000 q 922 785 871 889 q 972 539 972 682 q 917 248 972 372 q 762 56 863 124 q 526 -11 661 -11 m 528 47 q 731 106 644 47 q 863 276 817 165 q 908 540 908 388 q 816 838 908 735 q 550 942 724 942 q 346 883 432 942 q 214 712 260 824 q 168 447 168 600 q 261 151 168 254 q 528 47 354 47 m 526 1222 l 519 1138 l 433 1138 l 440 1222 l 526 1222 m 751 1222 l 744 1138 l 658 1138 l 664 1222 l 751 1222 m 408 1435 l 815 1435 l 811 1375 l 401 1375 l 408 1435 z "},"Ȱ":{"ha":1054,"x_min":106,"x_max":972,"o":"m 526 -11 q 301 44 396 -11 q 156 203 207 100 q 106 449 106 307 q 160 740 106 615 q 315 933 215 865 q 550 1000 415 1000 q 776 944 681 1000 q 922 785 871 889 q 972 539 972 682 q 917 248 972 372 q 762 56 863 124 q 526 -11 661 -11 m 528 47 q 731 106 644 47 q 863 276 817 165 q 908 540 908 388 q 816 838 908 735 q 550 942 724 942 q 346 883 432 942 q 214 712 260 824 q 168 447 168 600 q 261 151 168 254 q 528 47 354 47 m 639 1224 l 632 1135 l 544 1135 l 551 1224 l 639 1224 m 408 1435 l 815 1435 l 811 1375 l 401 1375 l 408 1435 z "},"Ọ":{"ha":1054,"x_min":106,"x_max":972,"o":"m 526 -11 q 301 44 396 -11 q 156 203 207 100 q 106 449 106 307 q 160 740 106 615 q 315 933 215 865 q 550 1000 415 1000 q 776 944 681 1000 q 922 785 871 889 q 972 539 972 682 q 917 248 972 372 q 762 56 863 124 q 526 -11 661 -11 m 528 47 q 731 106 644 47 q 863 276 817 165 q 908 540 908 388 q 816 838 908 735 q 550 942 724 942 q 346 883 432 942 q 214 712 260 824 q 168 447 168 600 q 261 151 168 254 q 528 47 354 47 m 536 -153 l 528 -243 l 435 -243 l 443 -153 l 536 -153 z "},"Ò":{"ha":1054,"x_min":106,"x_max":972,"o":"m 526 -11 q 301 44 396 -11 q 156 203 207 100 q 106 449 106 307 q 160 740 106 615 q 315 933 215 865 q 550 1000 415 1000 q 776 944 681 1000 q 922 785 871 889 q 972 539 972 682 q 917 248 972 372 q 762 56 863 124 q 526 -11 661 -11 m 528 47 q 731 106 644 47 q 863 276 817 165 q 908 540 908 388 q 816 838 908 735 q 550 942 724 942 q 346 883 432 942 q 214 712 260 824 q 168 447 168 600 q 261 151 168 254 q 528 47 354 47 m 404 1282 l 482 1282 l 608 1074 l 558 1074 l 404 1282 z "},"Ỏ":{"ha":1054,"x_min":106,"x_max":972,"o":"m 526 -11 q 301 44 396 -11 q 156 203 207 100 q 106 449 106 307 q 160 740 106 615 q 315 933 215 865 q 550 1000 415 1000 q 776 944 681 1000 q 922 785 871 889 q 972 539 972 682 q 917 248 972 372 q 762 56 863 124 q 526 -11 661 -11 m 528 47 q 731 106 644 47 q 863 276 817 165 q 908 540 908 388 q 816 838 908 735 q 550 942 724 942 q 346 883 432 942 q 214 712 260 824 q 168 447 168 600 q 261 151 168 254 q 528 47 354 47 m 613 1074 l 556 1074 l 557 1094 q 574 1133 558 1119 q 619 1164 590 1147 q 651 1185 642 1178 q 660 1204 660 1192 q 644 1224 660 1217 q 600 1231 628 1231 q 510 1214 558 1231 l 497 1265 q 603 1289 546 1289 q 695 1267 663 1289 q 728 1208 728 1246 q 709 1159 728 1176 q 658 1126 690 1142 q 626 1108 638 1117 q 614 1086 615 1099 l 613 1074 z "},"Ơ":{"ha":1054,"x_min":106,"x_max":1024,"o":"m 1022 1139 q 960 990 1014 1042 q 794 936 906 939 q 922 784 872 885 q 972 539 972 683 q 917 248 972 372 q 762 56 863 124 q 526 -11 661 -11 q 301 44 396 -11 q 156 203 207 100 q 106 449 106 307 q 160 741 106 617 q 319 933 215 865 q 564 1000 422 1000 q 658 994 594 1000 q 783 989 733 989 q 918 1026 876 989 q 967 1149 960 1063 l 968 1167 l 1024 1167 l 1022 1139 m 908 540 q 816 838 908 735 q 550 942 724 942 q 346 883 432 942 q 214 712 260 824 q 168 447 168 600 q 261 151 168 254 q 528 47 354 47 q 731 106 644 47 q 863 276 817 165 q 908 540 908 388 z "},"Ớ":{"ha":1054,"x_min":106,"x_max":1024,"o":"m 1022 1139 q 960 990 1014 1042 q 794 936 906 939 q 922 784 872 885 q 972 539 972 683 q 917 248 972 372 q 762 56 863 124 q 526 -11 661 -11 q 301 44 396 -11 q 156 203 207 100 q 106 449 106 307 q 160 741 106 617 q 319 933 215 865 q 564 1000 422 1000 q 658 994 594 1000 q 783 989 733 989 q 918 1026 876 989 q 967 1149 960 1063 l 968 1167 l 1024 1167 l 1022 1139 m 908 540 q 816 838 908 735 q 550 942 724 942 q 346 883 432 942 q 214 712 260 824 q 168 447 168 600 q 261 151 168 254 q 528 47 354 47 q 731 106 644 47 q 863 276 817 165 q 908 540 908 388 m 558 1074 l 713 1282 l 803 1282 l 608 1074 l 558 1074 z "},"Ợ":{"ha":1054,"x_min":106,"x_max":1024,"o":"m 1022 1139 q 960 990 1014 1042 q 794 936 906 939 q 922 784 872 885 q 972 539 972 683 q 917 248 972 372 q 762 56 863 124 q 526 -11 661 -11 q 301 44 396 -11 q 156 203 207 100 q 106 449 106 307 q 160 741 106 617 q 319 933 215 865 q 564 1000 422 1000 q 658 994 594 1000 q 783 989 733 989 q 918 1026 876 989 q 967 1149 960 1063 l 968 1167 l 1024 1167 l 1022 1139 m 908 540 q 816 838 908 735 q 550 942 724 942 q 346 883 432 942 q 214 712 260 824 q 168 447 168 600 q 261 151 168 254 q 528 47 354 47 q 731 106 644 47 q 863 276 817 165 q 908 540 908 388 m 538 -153 l 529 -243 l 436 -243 l 444 -153 l 538 -153 z "},"Ờ":{"ha":1054,"x_min":106,"x_max":1024,"o":"m 1022 1139 q 960 990 1014 1042 q 794 936 906 939 q 922 784 872 885 q 972 539 972 683 q 917 248 972 372 q 762 56 863 124 q 526 -11 661 -11 q 301 44 396 -11 q 156 203 207 100 q 106 449 106 307 q 160 741 106 617 q 319 933 215 865 q 564 1000 422 1000 q 658 994 594 1000 q 783 989 733 989 q 918 1026 876 989 q 967 1149 960 1063 l 968 1167 l 1024 1167 l 1022 1139 m 908 540 q 816 838 908 735 q 550 942 724 942 q 346 883 432 942 q 214 712 260 824 q 168 447 168 600 q 261 151 168 254 q 528 47 354 47 q 731 106 644 47 q 863 276 817 165 q 908 540 908 388 m 404 1282 l 482 1282 l 608 1074 l 558 1074 l 404 1282 z "},"Ở":{"ha":1054,"x_min":106,"x_max":1024,"o":"m 1022 1139 q 960 990 1014 1042 q 794 936 906 939 q 922 784 872 885 q 972 539 972 683 q 917 248 972 372 q 762 56 863 124 q 526 -11 661 -11 q 301 44 396 -11 q 156 203 207 100 q 106 449 106 307 q 160 741 106 617 q 319 933 215 865 q 564 1000 422 1000 q 658 994 594 1000 q 783 989 733 989 q 918 1026 876 989 q 967 1149 960 1063 l 968 1167 l 1024 1167 l 1022 1139 m 908 540 q 816 838 908 735 q 550 942 724 942 q 346 883 432 942 q 214 712 260 824 q 168 447 168 600 q 261 151 168 254 q 528 47 354 47 q 731 106 644 47 q 863 276 817 165 q 908 540 908 388 m 613 1074 l 556 1074 l 557 1094 q 574 1133 558 1119 q 619 1164 590 1147 q 651 1185 642 1178 q 660 1204 660 1192 q 644 1224 660 1217 q 600 1231 628 1231 q 510 1214 558 1231 l 497 1265 q 603 1289 546 1289 q 695 1267 663 1289 q 728 1208 728 1246 q 709 1159 728 1176 q 658 1126 690 1142 q 626 1108 638 1117 q 614 1086 615 1099 l 613 1074 z "},"Ỡ":{"ha":1054,"x_min":106,"x_max":1024,"o":"m 1022 1139 q 960 990 1014 1042 q 794 936 906 939 q 922 784 872 885 q 972 539 972 683 q 917 248 972 372 q 762 56 863 124 q 526 -11 661 -11 q 301 44 396 -11 q 156 203 207 100 q 106 449 106 307 q 160 741 106 617 q 319 933 215 865 q 564 1000 422 1000 q 658 994 594 1000 q 783 989 733 989 q 918 1026 876 989 q 967 1149 960 1063 l 968 1167 l 1024 1167 l 1022 1139 m 908 540 q 816 838 908 735 q 550 942 724 942 q 346 883 432 942 q 214 712 260 824 q 168 447 168 600 q 261 151 168 254 q 528 47 354 47 q 731 106 644 47 q 863 276 817 165 q 908 540 908 388 m 369 1114 q 406 1215 372 1179 q 492 1250 439 1250 q 547 1238 521 1250 q 610 1201 574 1225 q 658 1174 640 1182 q 692 1165 675 1165 q 744 1188 725 1165 q 765 1246 764 1210 l 814 1246 q 778 1146 811 1182 q 692 1110 744 1110 q 637 1122 663 1110 q 575 1157 611 1133 q 529 1184 549 1175 q 493 1193 510 1193 q 440 1172 460 1193 q 418 1114 421 1150 l 369 1114 z "},"Ő":{"ha":1054,"x_min":106,"x_max":972,"o":"m 526 -11 q 301 44 396 -11 q 156 203 207 100 q 106 449 106 307 q 160 740 106 615 q 315 933 215 865 q 550 1000 415 1000 q 776 944 681 1000 q 922 785 871 889 q 972 539 972 682 q 917 248 972 372 q 762 56 863 124 q 526 -11 661 -11 m 528 47 q 731 106 644 47 q 863 276 817 165 q 908 540 908 388 q 816 838 908 735 q 550 942 724 942 q 346 883 432 942 q 214 712 260 824 q 168 447 168 600 q 261 151 168 254 q 528 47 354 47 m 601 1282 l 681 1282 l 526 1074 l 488 1074 l 601 1282 m 754 1282 l 832 1282 l 679 1074 l 640 1074 l 754 1282 z "},"Ȏ":{"ha":1054,"x_min":106,"x_max":972,"o":"m 526 -11 q 301 44 396 -11 q 156 203 207 100 q 106 449 106 307 q 160 740 106 615 q 315 933 215 865 q 550 1000 415 1000 q 776 944 681 1000 q 922 785 871 889 q 972 539 972 682 q 917 248 972 372 q 762 56 863 124 q 526 -11 661 -11 m 528 47 q 731 106 644 47 q 863 276 817 165 q 908 540 908 388 q 816 838 908 735 q 550 942 724 942 q 346 883 432 942 q 214 712 260 824 q 168 447 168 600 q 261 151 168 254 q 528 47 354 47 m 600 1265 q 724 1230 669 1265 q 804 1118 779 1194 l 746 1094 q 681 1184 717 1160 q 596 1208 646 1208 q 506 1184 546 1208 q 428 1094 467 1160 l 371 1118 q 600 1265 444 1265 z "},"Ō":{"ha":1054,"x_min":106,"x_max":972,"o":"m 526 -11 q 301 44 396 -11 q 156 203 207 100 q 106 449 106 307 q 160 740 106 615 q 315 933 215 865 q 550 1000 415 1000 q 776 944 681 1000 q 922 785 871 889 q 972 539 972 682 q 917 248 972 372 q 762 56 863 124 q 526 -11 661 -11 m 528 47 q 731 106 644 47 q 863 276 817 165 q 908 540 908 388 q 816 838 908 735 q 550 942 724 942 q 346 883 432 942 q 214 712 260 824 q 168 447 168 600 q 261 151 168 254 q 528 47 354 47 m 390 1210 l 797 1210 l 793 1150 l 383 1150 l 390 1210 z "},"Ṓ":{"ha":1054,"x_min":106,"x_max":972,"o":"m 526 -11 q 301 44 396 -11 q 156 203 207 100 q 106 449 106 307 q 160 740 106 615 q 315 933 215 865 q 550 1000 415 1000 q 776 944 681 1000 q 922 785 871 889 q 972 539 972 682 q 917 248 972 372 q 762 56 863 124 q 526 -11 661 -11 m 528 47 q 731 106 644 47 q 863 276 817 165 q 908 540 908 388 q 816 838 908 735 q 550 942 724 942 q 346 883 432 942 q 214 712 260 824 q 168 447 168 600 q 261 151 168 254 q 528 47 354 47 m 390 1210 l 797 1210 l 793 1150 l 383 1150 l 390 1210 m 576 1299 l 731 1507 l 821 1507 l 626 1299 l 576 1299 z "},"Ṑ":{"ha":1054,"x_min":106,"x_max":972,"o":"m 526 -11 q 301 44 396 -11 q 156 203 207 100 q 106 449 106 307 q 160 740 106 615 q 315 933 215 865 q 550 1000 415 1000 q 776 944 681 1000 q 922 785 871 889 q 972 539 972 682 q 917 248 972 372 q 762 56 863 124 q 526 -11 661 -11 m 528 47 q 731 106 644 47 q 863 276 817 165 q 908 540 908 388 q 816 838 908 735 q 550 942 724 942 q 346 883 432 942 q 214 712 260 824 q 168 447 168 600 q 261 151 168 254 q 528 47 354 47 m 390 1210 l 797 1210 l 793 1150 l 383 1150 l 390 1210 m 422 1507 l 500 1507 l 626 1299 l 576 1299 l 422 1507 z "},"Ǫ":{"ha":1054,"x_min":106,"x_max":972,"o":"m 625 0 q 504 -124 504 -26 q 527 -190 504 -167 q 592 -212 550 -212 q 632 -205 608 -212 q 678 -185 656 -197 l 696 -235 q 648 -258 678 -249 q 586 -267 618 -267 q 478 -230 518 -267 q 439 -131 439 -193 q 453 -62 439 -93 q 494 -10 468 -31 q 288 52 375 -4 q 153 210 200 108 q 106 449 106 311 q 160 740 106 615 q 315 933 215 865 q 550 1000 415 1000 q 776 944 681 1000 q 922 785 871 889 q 972 539 972 682 q 878 174 972 311 q 625 0 783 36 m 168 447 q 261 151 168 254 q 528 47 354 47 q 731 106 644 47 q 863 276 817 165 q 908 540 908 388 q 816 838 908 735 q 550 942 724 942 q 346 883 432 942 q 214 712 260 824 q 168 447 168 600 z "},"Ø":{"ha":1054,"x_min":106,"x_max":972,"o":"m 840 897 q 938 746 904 838 q 972 539 972 654 q 917 248 972 372 q 762 56 863 124 q 526 -11 661 -11 q 281 57 381 -11 l 210 -49 l 164 -19 l 238 92 q 140 242 174 151 q 106 449 106 333 q 160 740 106 615 q 315 933 215 865 q 550 1000 415 1000 q 799 931 697 1000 l 869 1038 l 915 1008 l 840 897 m 168 447 q 271 140 168 246 l 765 882 q 550 942 681 942 q 346 883 432 942 q 214 712 260 824 q 168 447 168 600 m 528 47 q 731 106 644 47 q 863 276 817 165 q 908 540 908 388 q 807 847 908 743 l 313 106 q 528 47 399 47 z "},"Ǿ":{"ha":1054,"x_min":106,"x_max":972,"o":"m 840 897 q 938 746 904 838 q 972 539 972 654 q 917 248 972 372 q 762 56 863 124 q 526 -11 661 -11 q 281 57 381 -11 l 210 -49 l 164 -19 l 238 92 q 140 242 174 151 q 106 449 106 333 q 160 740 106 615 q 315 933 215 865 q 550 1000 415 1000 q 799 931 697 1000 l 869 1038 l 915 1008 l 840 897 m 168 447 q 271 140 168 246 l 765 882 q 550 942 681 942 q 346 883 432 942 q 214 712 260 824 q 168 447 168 600 m 528 47 q 731 106 644 47 q 863 276 817 165 q 908 540 908 388 q 807 847 908 743 l 313 106 q 528 47 399 47 m 558 1074 l 713 1282 l 803 1282 l 608 1074 l 558 1074 z "},"Õ":{"ha":1054,"x_min":106,"x_max":972,"o":"m 526 -11 q 301 44 396 -11 q 156 203 207 100 q 106 449 106 307 q 160 740 106 615 q 315 933 215 865 q 550 1000 415 1000 q 776 944 681 1000 q 922 785 871 889 q 972 539 972 682 q 917 248 972 372 q 762 56 863 124 q 526 -11 661 -11 m 528 47 q 731 106 644 47 q 863 276 817 165 q 908 540 908 388 q 816 838 908 735 q 550 942 724 942 q 346 883 432 942 q 214 712 260 824 q 168 447 168 600 q 261 151 168 254 q 528 47 354 47 m 369 1114 q 406 1215 372 1179 q 492 1250 439 1250 q 547 1238 521 1250 q 610 1201 574 1225 q 658 1174 640 1182 q 692 1165 675 1165 q 744 1188 725 1165 q 765 1246 764 1210 l 814 1246 q 778 1146 811 1182 q 692 1110 744 1110 q 637 1122 663 1110 q 575 1157 611 1133 q 529 1184 549 1175 q 493 1193 510 1193 q 440 1172 460 1193 q 418 1114 421 1150 l 369 1114 z "},"Ṍ":{"ha":1054,"x_min":106,"x_max":972,"o":"m 526 -11 q 301 44 396 -11 q 156 203 207 100 q 106 449 106 307 q 160 740 106 615 q 315 933 215 865 q 550 1000 415 1000 q 776 944 681 1000 q 922 785 871 889 q 972 539 972 682 q 917 248 972 372 q 762 56 863 124 q 526 -11 661 -11 m 528 47 q 731 106 644 47 q 863 276 817 165 q 908 540 908 388 q 816 838 908 735 q 550 942 724 942 q 346 883 432 942 q 214 712 260 824 q 168 447 168 600 q 261 151 168 254 q 528 47 354 47 m 369 1114 q 406 1215 372 1179 q 492 1250 439 1250 q 547 1238 521 1250 q 610 1201 574 1225 q 658 1174 640 1182 q 692 1165 675 1165 q 744 1188 725 1165 q 765 1246 764 1210 l 814 1246 q 778 1146 811 1182 q 692 1110 744 1110 q 637 1122 663 1110 q 575 1157 611 1133 q 529 1184 549 1175 q 493 1193 510 1193 q 440 1172 460 1193 q 418 1114 421 1150 l 369 1114 m 576 1299 l 731 1507 l 821 1507 l 626 1299 l 576 1299 z "},"Ṏ":{"ha":1054,"x_min":106,"x_max":972,"o":"m 526 -11 q 301 44 396 -11 q 156 203 207 100 q 106 449 106 307 q 160 740 106 615 q 315 933 215 865 q 550 1000 415 1000 q 776 944 681 1000 q 922 785 871 889 q 972 539 972 682 q 917 248 972 372 q 762 56 863 124 q 526 -11 661 -11 m 528 47 q 731 106 644 47 q 863 276 817 165 q 908 540 908 388 q 816 838 908 735 q 550 942 724 942 q 346 883 432 942 q 214 712 260 824 q 168 447 168 600 q 261 151 168 254 q 528 47 354 47 m 369 1114 q 406 1215 372 1179 q 492 1250 439 1250 q 547 1238 521 1250 q 610 1201 574 1225 q 658 1174 640 1182 q 692 1165 675 1165 q 744 1188 725 1165 q 765 1246 764 1210 l 814 1246 q 778 1146 811 1182 q 692 1110 744 1110 q 637 1122 663 1110 q 575 1157 611 1133 q 529 1184 549 1175 q 493 1193 510 1193 q 440 1172 460 1193 q 418 1114 421 1150 l 369 1114 m 544 1447 l 538 1363 l 451 1363 l 458 1447 l 544 1447 m 769 1447 l 763 1363 l 676 1363 l 682 1447 l 769 1447 z "},"Ȭ":{"ha":1054,"x_min":106,"x_max":972,"o":"m 526 -11 q 301 44 396 -11 q 156 203 207 100 q 106 449 106 307 q 160 740 106 615 q 315 933 215 865 q 550 1000 415 1000 q 776 944 681 1000 q 922 785 871 889 q 972 539 972 682 q 917 248 972 372 q 762 56 863 124 q 526 -11 661 -11 m 528 47 q 731 106 644 47 q 863 276 817 165 q 908 540 908 388 q 816 838 908 735 q 550 942 724 942 q 346 883 432 942 q 214 712 260 824 q 168 447 168 600 q 261 151 168 254 q 528 47 354 47 m 369 1114 q 406 1215 372 1179 q 492 1250 439 1250 q 547 1238 521 1250 q 610 1201 574 1225 q 658 1174 640 1182 q 692 1165 675 1165 q 744 1188 725 1165 q 765 1246 764 1210 l 814 1246 q 778 1146 811 1182 q 692 1110 744 1110 q 637 1122 663 1110 q 575 1157 611 1133 q 529 1184 549 1175 q 493 1193 510 1193 q 440 1172 460 1193 q 418 1114 421 1150 l 369 1114 m 408 1435 l 815 1435 l 811 1375 l 401 1375 l 408 1435 z "},"Œ":{"ha":1468,"x_min":106,"x_max":1439,"o":"m 900 935 l 868 529 l 1376 529 l 1372 474 l 864 474 l 831 54 l 1368 54 l 1363 0 l 767 0 l 771 58 q 531 -11 668 -11 q 303 44 399 -11 q 156 203 207 99 q 106 449 106 307 q 161 741 106 617 q 321 933 217 865 q 567 1000 425 1000 q 839 921 721 1000 l 844 989 l 1439 989 l 1436 935 l 900 935 m 833 847 q 716 917 788 893 q 563 942 644 942 q 272 810 376 942 q 168 447 168 679 q 261 151 168 254 q 528 47 354 47 q 660 72 594 47 q 778 140 726 96 l 833 847 z "},"P":{"ha":888,"x_min":110,"x_max":843,"o":"m 536 989 q 763 920 683 989 q 843 739 843 851 q 750 526 843 600 q 499 453 657 453 l 203 453 l 167 0 l 110 0 l 186 989 l 536 989 m 501 510 q 710 567 638 510 q 782 739 782 624 q 721 882 782 829 q 538 935 660 935 l 240 935 l 207 510 l 501 510 z "},"Þ":{"ha":886,"x_min":110,"x_max":826,"o":"m 532 761 q 750 700 674 761 q 826 518 826 639 q 743 317 826 390 q 501 244 660 244 l 188 244 l 168 0 l 110 0 l 186 989 l 246 989 l 228 761 l 532 761 m 500 300 q 699 355 635 300 q 764 518 764 410 q 706 662 764 617 q 532 707 647 707 l 224 707 l 192 300 l 500 300 z "},"Q":{"ha":1054,"x_min":106,"x_max":972,"o":"m 972 539 q 881 178 972 321 q 629 0 789 36 q 790 -214 689 -124 l 744 -265 q 647 -154 697 -225 q 560 -10 596 -83 q 526 -11 549 -11 q 301 44 396 -11 q 156 203 207 100 q 106 449 106 307 q 160 740 106 615 q 315 933 215 865 q 550 1000 415 1000 q 776 944 681 1000 q 922 785 871 889 q 972 539 972 682 m 528 47 q 731 106 644 47 q 863 276 817 165 q 908 540 908 388 q 816 838 908 735 q 550 942 724 942 q 346 883 432 942 q 214 712 260 824 q 168 447 168 600 q 261 151 168 254 q 528 47 354 47 z "},"R":{"ha":950,"x_min":110,"x_max":867,"o":"m 643 469 q 713 422 685 457 q 760 324 742 388 l 853 0 l 793 0 l 694 329 q 625 425 674 400 q 486 450 576 450 l 203 450 l 167 0 l 110 0 l 186 989 l 558 989 q 787 926 707 989 q 867 742 867 863 q 809 563 867 633 q 643 469 751 492 m 526 506 q 736 563 667 506 q 806 739 806 621 q 561 935 806 935 l 242 935 l 207 506 l 526 506 z "},"Ŕ":{"ha":950,"x_min":110,"x_max":867,"o":"m 643 469 q 713 422 685 457 q 760 324 742 388 l 853 0 l 793 0 l 694 329 q 625 425 674 400 q 486 450 576 450 l 203 450 l 167 0 l 110 0 l 186 989 l 558 989 q 787 926 707 989 q 867 742 867 863 q 809 563 867 633 q 643 469 751 492 m 526 506 q 736 563 667 506 q 806 739 806 621 q 561 935 806 935 l 242 935 l 207 506 l 526 506 m 501 1074 l 656 1282 l 746 1282 l 551 1074 l 501 1074 z "},"Ř":{"ha":950,"x_min":110,"x_max":867,"o":"m 643 469 q 713 422 685 457 q 760 324 742 388 l 853 0 l 793 0 l 694 329 q 625 425 674 400 q 486 450 576 450 l 203 450 l 167 0 l 110 0 l 186 989 l 558 989 q 787 926 707 989 q 867 742 867 863 q 809 563 867 633 q 643 469 751 492 m 526 506 q 736 563 667 506 q 806 739 806 621 q 561 935 806 935 l 242 935 l 207 506 l 526 506 m 725 1282 l 551 1074 l 501 1074 l 361 1282 l 431 1282 l 529 1124 l 653 1282 l 725 1282 z "},"Ŗ":{"ha":950,"x_min":110,"x_max":867,"o":"m 643 469 q 713 422 685 457 q 760 324 742 388 l 853 0 l 793 0 l 694 329 q 625 425 674 400 q 486 450 576 450 l 203 450 l 167 0 l 110 0 l 186 989 l 558 989 q 787 926 707 989 q 867 742 867 863 q 809 563 867 633 q 643 469 751 492 m 526 506 q 736 563 667 506 q 806 739 806 621 q 561 935 806 935 l 242 935 l 207 506 l 526 506 m 483 -107 l 478 -182 q 456 -274 474 -232 q 400 -351 438 -315 l 364 -321 q 408 -261 396 -289 q 424 -197 419 -233 l 379 -197 l 385 -107 l 483 -107 z "},"Ȑ":{"ha":950,"x_min":110,"x_max":867,"o":"m 643 469 q 713 422 685 457 q 760 324 742 388 l 853 0 l 793 0 l 694 329 q 625 425 674 400 q 486 450 576 450 l 203 450 l 167 0 l 110 0 l 186 989 l 558 989 q 787 926 707 989 q 867 742 867 863 q 809 563 867 633 q 643 469 751 492 m 526 506 q 736 563 667 506 q 806 739 806 621 q 561 935 806 935 l 242 935 l 207 506 l 526 506 m 313 1282 l 388 1282 l 469 1074 l 431 1074 l 313 1282 m 465 1282 l 539 1282 l 622 1074 l 583 1074 l 465 1282 z "},"Ṛ":{"ha":950,"x_min":110,"x_max":867,"o":"m 643 469 q 713 422 685 457 q 760 324 742 388 l 853 0 l 793 0 l 694 329 q 625 425 674 400 q 486 450 576 450 l 203 450 l 167 0 l 110 0 l 186 989 l 558 989 q 787 926 707 989 q 867 742 867 863 q 809 563 867 633 q 643 469 751 492 m 526 506 q 736 563 667 506 q 806 739 806 621 q 561 935 806 935 l 242 935 l 207 506 l 526 506 m 478 -153 l 469 -243 l 376 -243 l 385 -153 l 478 -153 z "},"Ȓ":{"ha":950,"x_min":110,"x_max":867,"o":"m 643 469 q 713 422 685 457 q 760 324 742 388 l 853 0 l 793 0 l 694 329 q 625 425 674 400 q 486 450 576 450 l 203 450 l 167 0 l 110 0 l 186 989 l 558 989 q 787 926 707 989 q 867 742 867 863 q 809 563 867 633 q 643 469 751 492 m 526 506 q 736 563 667 506 q 806 739 806 621 q 561 935 806 935 l 242 935 l 207 506 l 526 506 m 543 1265 q 667 1230 613 1265 q 747 1118 722 1194 l 689 1094 q 624 1184 660 1160 q 539 1208 589 1208 q 449 1184 489 1208 q 371 1094 410 1160 l 314 1118 q 543 1265 388 1265 z "},"Ṟ":{"ha":950,"x_min":110,"x_max":867,"o":"m 643 469 q 713 422 685 457 q 760 324 742 388 l 853 0 l 793 0 l 694 329 q 625 425 674 400 q 486 450 576 450 l 203 450 l 167 0 l 110 0 l 186 989 l 558 989 q 787 926 707 989 q 867 742 867 863 q 809 563 867 633 q 643 469 751 492 m 526 506 q 736 563 667 506 q 806 739 806 621 q 561 935 806 935 l 242 935 l 207 506 l 526 506 m 225 -167 l 635 -167 l 629 -228 l 219 -228 l 225 -167 z "},"S":{"ha":839,"x_min":54,"x_max":806,"o":"m 421 -11 q 217 21 304 -11 q 54 122 131 53 l 89 171 q 242 74 165 103 q 419 44 319 44 q 631 99 557 44 q 704 253 704 154 q 669 348 704 311 q 584 405 635 385 q 443 451 533 425 q 274 508 339 481 q 165 589 210 535 q 121 732 121 643 q 163 873 121 813 q 283 967 206 933 q 464 1000 360 1000 q 653 966 567 1000 q 806 867 740 932 l 772 818 q 465 944 633 944 q 253 888 326 944 q 181 731 181 831 q 218 623 181 664 q 310 559 256 582 q 460 510 365 536 q 620 456 560 482 q 723 381 681 431 q 765 253 765 332 q 723 114 765 174 q 603 22 681 54 q 421 -11 525 -11 z "},"Ś":{"ha":839,"x_min":54,"x_max":806,"o":"m 421 -11 q 217 21 304 -11 q 54 122 131 53 l 89 171 q 242 74 165 103 q 419 44 319 44 q 631 99 557 44 q 704 253 704 154 q 669 348 704 311 q 584 405 635 385 q 443 451 533 425 q 274 508 339 481 q 165 589 210 535 q 121 732 121 643 q 163 873 121 813 q 283 967 206 933 q 464 1000 360 1000 q 653 966 567 1000 q 806 867 740 932 l 772 818 q 465 944 633 944 q 253 888 326 944 q 181 731 181 831 q 218 623 181 664 q 310 559 256 582 q 460 510 365 536 q 620 456 560 482 q 723 381 681 431 q 765 253 765 332 q 723 114 765 174 q 603 22 681 54 q 421 -11 525 -11 m 451 1074 l 606 1282 l 696 1282 l 501 1074 l 451 1074 z "},"Ṥ":{"ha":839,"x_min":54,"x_max":806,"o":"m 421 -11 q 217 21 304 -11 q 54 122 131 53 l 89 171 q 242 74 165 103 q 419 44 319 44 q 631 99 557 44 q 704 253 704 154 q 669 348 704 311 q 584 405 635 385 q 443 451 533 425 q 274 508 339 481 q 165 589 210 535 q 121 732 121 643 q 163 873 121 813 q 283 967 206 933 q 464 1000 360 1000 q 653 966 567 1000 q 806 867 740 932 l 772 818 q 465 944 633 944 q 253 888 326 944 q 181 731 181 831 q 218 623 181 664 q 310 559 256 582 q 460 510 365 536 q 620 456 560 482 q 723 381 681 431 q 765 253 765 332 q 723 114 765 174 q 603 22 681 54 q 421 -11 525 -11 m 446 1074 l 600 1282 l 690 1282 l 496 1074 l 446 1074 m 381 1282 l 374 1193 l 286 1193 l 293 1282 l 381 1282 z "},"Š":{"ha":839,"x_min":54,"x_max":806,"o":"m 421 -11 q 217 21 304 -11 q 54 122 131 53 l 89 171 q 242 74 165 103 q 419 44 319 44 q 631 99 557 44 q 704 253 704 154 q 669 348 704 311 q 584 405 635 385 q 443 451 533 425 q 274 508 339 481 q 165 589 210 535 q 121 732 121 643 q 163 873 121 813 q 283 967 206 933 q 464 1000 360 1000 q 653 966 567 1000 q 806 867 740 932 l 772 818 q 465 944 633 944 q 253 888 326 944 q 181 731 181 831 q 218 623 181 664 q 310 559 256 582 q 460 510 365 536 q 620 456 560 482 q 723 381 681 431 q 765 253 765 332 q 723 114 765 174 q 603 22 681 54 q 421 -11 525 -11 m 675 1282 l 501 1074 l 451 1074 l 311 1282 l 381 1282 l 479 1124 l 603 1282 l 675 1282 z "},"Ṧ":{"ha":839,"x_min":54,"x_max":806,"o":"m 421 -11 q 217 21 304 -11 q 54 122 131 53 l 89 171 q 242 74 165 103 q 419 44 319 44 q 631 99 557 44 q 704 253 704 154 q 669 348 704 311 q 584 405 635 385 q 443 451 533 425 q 274 508 339 481 q 165 589 210 535 q 121 732 121 643 q 163 873 121 813 q 283 967 206 933 q 464 1000 360 1000 q 653 966 567 1000 q 806 867 740 932 l 772 818 q 465 944 633 944 q 253 888 326 944 q 181 731 181 831 q 218 623 181 664 q 310 559 256 582 q 460 510 365 536 q 620 456 560 482 q 723 381 681 431 q 765 253 765 332 q 723 114 765 174 q 603 22 681 54 q 421 -11 525 -11 m 675 1282 l 501 1074 l 451 1074 l 311 1282 l 381 1282 l 479 1124 l 603 1282 l 675 1282 m 550 1449 l 543 1360 l 456 1360 l 463 1449 l 550 1449 z "},"Ş":{"ha":839,"x_min":54,"x_max":806,"o":"m 465 944 q 253 888 326 944 q 181 731 181 831 q 218 623 181 664 q 310 559 256 582 q 460 510 365 536 q 620 456 560 482 q 723 381 681 431 q 765 253 765 332 q 723 114 765 174 q 603 22 681 54 q 421 -11 525 -11 l 419 -11 l 408 -62 q 446 -57 426 -57 q 517 -82 490 -57 q 544 -151 544 -107 q 504 -235 544 -204 q 392 -267 464 -267 q 332 -260 364 -267 q 274 -240 300 -254 l 294 -192 q 396 -211 344 -211 q 463 -197 440 -211 q 486 -154 486 -182 q 473 -122 486 -133 q 435 -111 460 -111 q 367 -126 403 -111 l 342 -107 l 360 -8 q 193 30 267 -1 q 54 122 119 61 l 89 171 q 242 74 165 103 q 419 44 319 44 q 631 99 557 44 q 704 253 704 154 q 669 348 704 311 q 584 405 635 385 q 443 451 533 425 q 274 508 339 481 q 165 589 210 535 q 121 732 121 643 q 163 873 121 813 q 283 967 206 933 q 464 1000 360 1000 q 653 966 567 1000 q 806 867 740 932 l 772 818 q 465 944 633 944 z "},"Ŝ":{"ha":839,"x_min":54,"x_max":806,"o":"m 421 -11 q 217 21 304 -11 q 54 122 131 53 l 89 171 q 242 74 165 103 q 419 44 319 44 q 631 99 557 44 q 704 253 704 154 q 669 348 704 311 q 584 405 635 385 q 443 451 533 425 q 274 508 339 481 q 165 589 210 535 q 121 732 121 643 q 163 873 121 813 q 283 967 206 933 q 464 1000 360 1000 q 653 966 567 1000 q 806 867 740 932 l 772 818 q 465 944 633 944 q 253 888 326 944 q 181 731 181 831 q 218 623 181 664 q 310 559 256 582 q 460 510 365 536 q 620 456 560 482 q 723 381 681 431 q 765 253 765 332 q 723 114 765 174 q 603 22 681 54 q 421 -11 525 -11 m 294 1074 l 468 1282 l 518 1282 l 658 1074 l 589 1074 l 492 1232 l 367 1074 l 294 1074 z "},"Ș":{"ha":839,"x_min":54,"x_max":806,"o":"m 421 -11 q 217 21 304 -11 q 54 122 131 53 l 89 171 q 242 74 165 103 q 419 44 319 44 q 631 99 557 44 q 704 253 704 154 q 669 348 704 311 q 584 405 635 385 q 443 451 533 425 q 274 508 339 481 q 165 589 210 535 q 121 732 121 643 q 163 873 121 813 q 283 967 206 933 q 464 1000 360 1000 q 653 966 567 1000 q 806 867 740 932 l 772 818 q 465 944 633 944 q 253 888 326 944 q 181 731 181 831 q 218 623 181 664 q 310 559 256 582 q 460 510 365 536 q 620 456 560 482 q 723 381 681 431 q 765 253 765 332 q 723 114 765 174 q 603 22 681 54 q 421 -11 525 -11 m 443 -107 l 438 -182 q 415 -274 433 -232 q 360 -351 397 -315 l 324 -321 q 367 -261 356 -289 q 383 -197 379 -233 l 339 -197 l 344 -107 l 443 -107 z "},"Ṡ":{"ha":839,"x_min":54,"x_max":806,"o":"m 421 -11 q 217 21 304 -11 q 54 122 131 53 l 89 171 q 242 74 165 103 q 419 44 319 44 q 631 99 557 44 q 704 253 704 154 q 669 348 704 311 q 584 405 635 385 q 443 451 533 425 q 274 508 339 481 q 165 589 210 535 q 121 732 121 643 q 163 873 121 813 q 283 967 206 933 q 464 1000 360 1000 q 653 966 567 1000 q 806 867 740 932 l 772 818 q 465 944 633 944 q 253 888 326 944 q 181 731 181 831 q 218 623 181 664 q 310 559 256 582 q 460 510 365 536 q 620 456 560 482 q 723 381 681 431 q 765 253 765 332 q 723 114 765 174 q 603 22 681 54 q 421 -11 525 -11 m 532 1224 l 525 1135 l 438 1135 l 444 1224 l 532 1224 z "},"Ṣ":{"ha":839,"x_min":54,"x_max":806,"o":"m 421 -11 q 217 21 304 -11 q 54 122 131 53 l 89 171 q 242 74 165 103 q 419 44 319 44 q 631 99 557 44 q 704 253 704 154 q 669 348 704 311 q 584 405 635 385 q 443 451 533 425 q 274 508 339 481 q 165 589 210 535 q 121 732 121 643 q 163 873 121 813 q 283 967 206 933 q 464 1000 360 1000 q 653 966 567 1000 q 806 867 740 932 l 772 818 q 465 944 633 944 q 253 888 326 944 q 181 731 181 831 q 218 623 181 664 q 310 559 256 582 q 460 510 365 536 q 620 456 560 482 q 723 381 681 431 q 765 253 765 332 q 723 114 765 174 q 603 22 681 54 q 421 -11 525 -11 m 438 -153 l 429 -243 l 336 -243 l 344 -153 l 438 -153 z "},"Ṩ":{"ha":839,"x_min":54,"x_max":806,"o":"m 421 -11 q 217 21 304 -11 q 54 122 131 53 l 89 171 q 242 74 165 103 q 419 44 319 44 q 631 99 557 44 q 704 253 704 154 q 669 348 704 311 q 584 405 635 385 q 443 451 533 425 q 274 508 339 481 q 165 589 210 535 q 121 732 121 643 q 163 873 121 813 q 283 967 206 933 q 464 1000 360 1000 q 653 966 567 1000 q 806 867 740 932 l 772 818 q 465 944 633 944 q 253 888 326 944 q 181 731 181 831 q 218 623 181 664 q 310 559 256 582 q 460 510 365 536 q 620 456 560 482 q 723 381 681 431 q 765 253 765 332 q 723 114 765 174 q 603 22 681 54 q 421 -11 525 -11 m 438 -153 l 429 -243 l 336 -243 l 344 -153 l 438 -153 m 532 1224 l 525 1135 l 438 1135 l 444 1224 l 532 1224 z "},"ẞ":{"ha":950,"x_min":108,"x_max":847,"o":"m 657 515 q 799 438 750 496 q 847 289 847 381 q 807 133 847 200 q 695 28 767 65 q 531 -10 624 -10 q 390 15 456 -10 q 278 85 325 40 l 310 138 q 417 70 365 92 q 524 49 468 49 q 716 113 646 49 q 786 290 786 176 q 723 428 786 382 q 539 475 660 475 l 339 475 l 344 531 l 493 531 q 689 590 619 531 q 758 760 758 650 q 697 893 758 844 q 529 942 635 942 q 303 869 376 942 q 218 639 229 796 l 167 0 l 108 0 l 160 657 q 265 914 174 829 q 529 999 357 999 q 742 935 663 999 q 821 760 821 871 q 778 606 821 669 q 657 515 735 543 z "},"Ə":{"ha":1022,"x_min":104,"x_max":940,"o":"m 533 1000 q 750 945 658 1000 q 891 786 842 890 q 940 539 940 682 q 885 248 940 372 q 727 56 831 124 q 482 -11 624 -11 q 276 44 361 -11 q 147 195 190 99 q 104 418 104 292 q 107 489 104 465 l 111 532 l 876 532 l 876 540 q 785 839 876 735 q 521 943 693 943 q 199 818 329 943 l 172 867 q 533 1000 310 1000 m 489 46 q 758 158 656 46 q 874 472 860 271 l 168 472 q 167 426 167 457 q 247 147 167 247 q 489 46 328 46 z "},"T":{"ha":819,"x_min":64,"x_max":854,"o":"m 428 936 l 64 936 l 68 989 l 854 989 l 850 936 l 486 936 l 411 0 l 353 0 l 428 936 z "},"Ŧ":{"ha":819,"x_min":64,"x_max":854,"o":"m 486 936 l 454 529 l 658 529 l 654 476 l 449 476 l 411 0 l 353 0 l 390 476 l 185 476 l 190 529 l 396 529 l 428 936 l 64 936 l 68 989 l 854 989 l 850 936 l 486 936 z "},"Ť":{"ha":819,"x_min":64,"x_max":854,"o":"m 428 936 l 64 936 l 68 989 l 854 989 l 850 936 l 486 936 l 411 0 l 353 0 l 428 936 m 665 1282 l 492 1074 l 442 1074 l 301 1282 l 371 1282 l 469 1124 l 593 1282 l 665 1282 z "},"Ţ":{"ha":819,"x_min":64,"x_max":854,"o":"m 403 0 l 390 -62 q 428 -57 408 -57 q 499 -82 472 -57 q 526 -151 526 -107 q 486 -235 526 -204 q 374 -267 446 -267 q 314 -260 346 -267 q 256 -240 282 -254 l 276 -192 q 378 -211 326 -211 q 445 -197 422 -211 q 468 -154 468 -182 q 455 -122 468 -133 q 417 -111 442 -111 q 349 -126 385 -111 l 324 -107 l 349 28 l 356 28 l 428 936 l 64 936 l 68 989 l 854 989 l 850 936 l 486 936 l 411 0 l 403 0 z "},"Ț":{"ha":819,"x_min":64,"x_max":854,"o":"m 428 936 l 64 936 l 68 989 l 854 989 l 850 936 l 486 936 l 411 0 l 353 0 l 428 936 m 425 -107 l 419 -182 q 397 -274 415 -232 q 342 -351 379 -315 l 306 -321 q 349 -261 338 -289 q 365 -197 361 -233 l 321 -197 l 326 -107 l 425 -107 z "},"Ṭ":{"ha":819,"x_min":64,"x_max":854,"o":"m 428 936 l 64 936 l 68 989 l 854 989 l 850 936 l 486 936 l 411 0 l 353 0 l 428 936 m 419 -153 l 411 -243 l 318 -243 l 326 -153 l 419 -153 z "},"Ṯ":{"ha":819,"x_min":64,"x_max":854,"o":"m 428 936 l 64 936 l 68 989 l 854 989 l 850 936 l 486 936 l 411 0 l 353 0 l 428 936 m 167 -167 l 576 -167 l 571 -228 l 161 -228 l 167 -167 z "},"U":{"ha":1003,"x_min":128,"x_max":928,"o":"m 476 -11 q 216 76 304 -11 q 128 326 128 164 q 129 374 128 357 l 178 989 l 236 989 l 188 379 q 186 332 186 363 q 475 46 186 46 q 821 367 799 46 l 868 989 l 928 989 l 879 376 q 762 85 864 182 q 476 -11 660 -11 z "},"Ú":{"ha":1003,"x_min":128,"x_max":928,"o":"m 476 -11 q 216 76 304 -11 q 128 326 128 164 q 129 374 128 357 l 178 989 l 236 989 l 188 379 q 186 332 186 363 q 475 46 186 46 q 821 367 799 46 l 868 989 l 928 989 l 879 376 q 762 85 864 182 q 476 -11 660 -11 m 535 1074 l 689 1282 l 779 1282 l 585 1074 l 535 1074 z "},"Ŭ":{"ha":1003,"x_min":128,"x_max":928,"o":"m 476 -11 q 216 76 304 -11 q 128 326 128 164 q 129 374 128 357 l 178 989 l 236 989 l 188 379 q 186 332 186 363 q 475 46 186 46 q 821 367 799 46 l 868 989 l 928 989 l 879 376 q 762 85 864 182 q 476 -11 660 -11 m 560 1092 q 435 1127 490 1092 q 356 1239 381 1163 l 414 1264 q 478 1173 443 1197 q 564 1149 514 1149 q 654 1173 615 1149 q 732 1264 693 1197 l 789 1239 q 560 1092 715 1092 z "},"Û":{"ha":1003,"x_min":128,"x_max":928,"o":"m 476 -11 q 216 76 304 -11 q 128 326 128 164 q 129 374 128 357 l 178 989 l 236 989 l 188 379 q 186 332 186 363 q 475 46 186 46 q 821 367 799 46 l 868 989 l 928 989 l 879 376 q 762 85 864 182 q 476 -11 660 -11 m 378 1074 l 551 1282 l 601 1282 l 742 1074 l 672 1074 l 575 1232 l 450 1074 l 378 1074 z "},"Ȕ":{"ha":1003,"x_min":128,"x_max":928,"o":"m 476 -11 q 216 76 304 -11 q 128 326 128 164 q 129 374 128 357 l 178 989 l 236 989 l 188 379 q 186 332 186 363 q 475 46 186 46 q 821 367 799 46 l 868 989 l 928 989 l 879 376 q 762 85 864 182 q 476 -11 660 -11 m 346 1282 l 421 1282 l 503 1074 l 464 1074 l 346 1282 m 499 1282 l 572 1282 l 656 1074 l 617 1074 l 499 1282 z "},"Ü":{"ha":1003,"x_min":128,"x_max":928,"o":"m 476 -11 q 216 76 304 -11 q 128 326 128 164 q 129 374 128 357 l 178 989 l 236 989 l 188 379 q 186 332 186 363 q 475 46 186 46 q 821 367 799 46 l 868 989 l 928 989 l 879 376 q 762 85 864 182 q 476 -11 660 -11 m 503 1222 l 496 1138 l 410 1138 l 417 1222 l 503 1222 m 728 1222 l 721 1138 l 635 1138 l 640 1222 l 728 1222 z "},"Ụ":{"ha":1003,"x_min":128,"x_max":928,"o":"m 476 -11 q 216 76 304 -11 q 128 326 128 164 q 129 374 128 357 l 178 989 l 236 989 l 188 379 q 186 332 186 363 q 475 46 186 46 q 821 367 799 46 l 868 989 l 928 989 l 879 376 q 762 85 864 182 q 476 -11 660 -11 m 511 -153 l 503 -243 l 410 -243 l 418 -153 l 511 -153 z "},"Ù":{"ha":1003,"x_min":128,"x_max":928,"o":"m 476 -11 q 216 76 304 -11 q 128 326 128 164 q 129 374 128 357 l 178 989 l 236 989 l 188 379 q 186 332 186 363 q 475 46 186 46 q 821 367 799 46 l 868 989 l 928 989 l 879 376 q 762 85 864 182 q 476 -11 660 -11 m 381 1282 l 458 1282 l 585 1074 l 535 1074 l 381 1282 z "},"Ủ":{"ha":1003,"x_min":128,"x_max":928,"o":"m 476 -11 q 216 76 304 -11 q 128 326 128 164 q 129 374 128 357 l 178 989 l 236 989 l 188 379 q 186 332 186 363 q 475 46 186 46 q 821 367 799 46 l 868 989 l 928 989 l 879 376 q 762 85 864 182 q 476 -11 660 -11 m 589 1074 l 532 1074 l 533 1094 q 551 1133 535 1119 q 596 1164 567 1147 q 627 1185 618 1178 q 636 1204 636 1192 q 620 1224 636 1217 q 576 1231 604 1231 q 486 1214 535 1231 l 474 1265 q 579 1289 522 1289 q 672 1267 639 1289 q 704 1208 704 1246 q 685 1159 704 1176 q 635 1126 667 1142 q 603 1108 614 1117 q 590 1086 592 1099 l 589 1074 z "},"Ư":{"ha":1003,"x_min":128,"x_max":1110,"o":"m 1110 1167 l 1108 1139 q 1053 1003 1101 1054 q 924 940 1006 951 l 879 376 q 762 85 864 182 q 476 -11 660 -11 q 216 76 304 -11 q 128 326 128 164 q 129 374 128 357 l 178 989 l 236 989 l 188 379 q 186 332 186 363 q 475 46 186 46 q 821 367 799 46 l 868 989 l 885 989 q 1006 1027 968 990 q 1050 1149 1043 1064 l 1051 1167 l 1110 1167 z "},"Ứ":{"ha":1003,"x_min":128,"x_max":1110,"o":"m 1110 1167 l 1108 1139 q 1053 1003 1101 1054 q 924 940 1006 951 l 879 376 q 762 85 864 182 q 476 -11 660 -11 q 216 76 304 -11 q 128 326 128 164 q 129 374 128 357 l 178 989 l 236 989 l 188 379 q 186 332 186 363 q 475 46 186 46 q 821 367 799 46 l 868 989 l 885 989 q 1006 1027 968 990 q 1050 1149 1043 1064 l 1051 1167 l 1110 1167 m 535 1074 l 689 1282 l 779 1282 l 585 1074 l 535 1074 z "},"Ự":{"ha":1003,"x_min":128,"x_max":1110,"o":"m 1110 1167 l 1108 1139 q 1053 1003 1101 1054 q 924 940 1006 951 l 879 376 q 762 85 864 182 q 476 -11 660 -11 q 216 76 304 -11 q 128 326 128 164 q 129 374 128 357 l 178 989 l 236 989 l 188 379 q 186 332 186 363 q 475 46 186 46 q 821 367 799 46 l 868 989 l 885 989 q 1006 1027 968 990 q 1050 1149 1043 1064 l 1051 1167 l 1110 1167 m 511 -153 l 503 -243 l 410 -243 l 418 -153 l 511 -153 z "},"Ừ":{"ha":1003,"x_min":128,"x_max":1110,"o":"m 1110 1167 l 1108 1139 q 1053 1003 1101 1054 q 924 940 1006 951 l 879 376 q 762 85 864 182 q 476 -11 660 -11 q 216 76 304 -11 q 128 326 128 164 q 129 374 128 357 l 178 989 l 236 989 l 188 379 q 186 332 186 363 q 475 46 186 46 q 821 367 799 46 l 868 989 l 885 989 q 1006 1027 968 990 q 1050 1149 1043 1064 l 1051 1167 l 1110 1167 m 381 1282 l 458 1282 l 585 1074 l 535 1074 l 381 1282 z "},"Ử":{"ha":1003,"x_min":128,"x_max":1110,"o":"m 1110 1167 l 1108 1139 q 1053 1003 1101 1054 q 924 940 1006 951 l 879 376 q 762 85 864 182 q 476 -11 660 -11 q 216 76 304 -11 q 128 326 128 164 q 129 374 128 357 l 178 989 l 236 989 l 188 379 q 186 332 186 363 q 475 46 186 46 q 821 367 799 46 l 868 989 l 885 989 q 1006 1027 968 990 q 1050 1149 1043 1064 l 1051 1167 l 1110 1167 m 589 1074 l 532 1074 l 533 1094 q 551 1133 535 1119 q 596 1164 567 1147 q 627 1185 618 1178 q 636 1204 636 1192 q 620 1224 636 1217 q 576 1231 604 1231 q 486 1214 535 1231 l 474 1265 q 579 1289 522 1289 q 672 1267 639 1289 q 704 1208 704 1246 q 685 1159 704 1176 q 635 1126 667 1142 q 603 1108 614 1117 q 590 1086 592 1099 l 589 1074 z "},"Ữ":{"ha":1003,"x_min":128,"x_max":1110,"o":"m 1110 1167 l 1108 1139 q 1053 1003 1101 1054 q 924 940 1006 951 l 879 376 q 762 85 864 182 q 476 -11 660 -11 q 216 76 304 -11 q 128 326 128 164 q 129 374 128 357 l 178 989 l 236 989 l 188 379 q 186 332 186 363 q 475 46 186 46 q 821 367 799 46 l 868 989 l 885 989 q 1006 1027 968 990 q 1050 1149 1043 1064 l 1051 1167 l 1110 1167 m 346 1114 q 382 1215 349 1179 q 468 1250 415 1250 q 524 1238 497 1250 q 586 1201 550 1225 q 634 1174 617 1182 q 668 1165 651 1165 q 721 1188 701 1165 q 742 1246 740 1210 l 790 1246 q 754 1146 788 1182 q 668 1110 721 1110 q 613 1122 639 1110 q 551 1157 588 1133 q 506 1184 525 1175 q 469 1193 486 1193 q 417 1172 436 1193 q 394 1114 397 1150 l 346 1114 z "},"Ű":{"ha":1003,"x_min":128,"x_max":928,"o":"m 476 -11 q 216 76 304 -11 q 128 326 128 164 q 129 374 128 357 l 178 989 l 236 989 l 188 379 q 186 332 186 363 q 475 46 186 46 q 821 367 799 46 l 868 989 l 928 989 l 879 376 q 762 85 864 182 q 476 -11 660 -11 m 578 1282 l 657 1282 l 503 1074 l 464 1074 l 578 1282 m 731 1282 l 808 1282 l 656 1074 l 617 1074 l 731 1282 z "},"Ȗ":{"ha":1003,"x_min":128,"x_max":928,"o":"m 476 -11 q 216 76 304 -11 q 128 326 128 164 q 129 374 128 357 l 178 989 l 236 989 l 188 379 q 186 332 186 363 q 475 46 186 46 q 821 367 799 46 l 868 989 l 928 989 l 879 376 q 762 85 864 182 q 476 -11 660 -11 m 576 1265 q 701 1230 646 1265 q 781 1118 756 1194 l 722 1094 q 658 1184 693 1160 q 572 1208 622 1208 q 483 1184 522 1208 q 404 1094 443 1160 l 347 1118 q 576 1265 421 1265 z "},"Ū":{"ha":1003,"x_min":128,"x_max":928,"o":"m 476 -11 q 216 76 304 -11 q 128 326 128 164 q 129 374 128 357 l 178 989 l 236 989 l 188 379 q 186 332 186 363 q 475 46 186 46 q 821 367 799 46 l 868 989 l 928 989 l 879 376 q 762 85 864 182 q 476 -11 660 -11 m 367 1210 l 774 1210 l 769 1150 l 360 1150 l 367 1210 z "},"Ṻ":{"ha":1003,"x_min":128,"x_max":928,"o":"m 476 -11 q 216 76 304 -11 q 128 326 128 164 q 129 374 128 357 l 178 989 l 236 989 l 188 379 q 186 332 186 363 q 475 46 186 46 q 821 367 799 46 l 868 989 l 928 989 l 879 376 q 762 85 864 182 q 476 -11 660 -11 m 367 1210 l 774 1210 l 769 1150 l 360 1150 l 367 1210 m 521 1447 l 514 1363 l 428 1363 l 435 1447 l 521 1447 m 746 1447 l 739 1363 l 653 1363 l 658 1447 l 746 1447 z "},"Ų":{"ha":1003,"x_min":128,"x_max":928,"o":"m 928 989 l 879 376 q 803 133 868 225 q 624 8 738 40 q 523 -43 556 -11 q 490 -124 490 -75 q 513 -190 490 -167 q 578 -212 536 -212 q 618 -205 594 -212 q 664 -185 642 -197 l 683 -235 q 633 -258 664 -249 q 572 -267 603 -267 q 466 -231 506 -267 q 426 -133 426 -194 q 488 -11 426 -53 l 471 -11 q 215 77 303 -11 q 128 326 128 165 q 129 374 128 357 l 178 989 l 236 989 l 188 379 q 186 332 186 363 q 475 46 186 46 q 821 367 799 46 l 868 989 l 928 989 z "},"Ů":{"ha":1003,"x_min":128,"x_max":928,"o":"m 476 -11 q 216 76 304 -11 q 128 326 128 164 q 129 374 128 357 l 178 989 l 236 989 l 188 379 q 186 332 186 363 q 475 46 186 46 q 821 367 799 46 l 868 989 l 928 989 l 879 376 q 762 85 864 182 q 476 -11 660 -11 m 569 1067 q 473 1105 513 1067 q 433 1200 433 1143 q 473 1294 433 1256 q 569 1332 513 1332 q 665 1294 626 1332 q 704 1200 704 1256 q 665 1105 704 1143 q 569 1067 626 1067 m 569 1125 q 620 1147 600 1125 q 640 1200 640 1168 q 620 1251 640 1231 q 569 1272 600 1272 q 518 1251 539 1272 q 497 1200 497 1231 q 518 1147 497 1168 q 569 1125 539 1125 z "},"Ũ":{"ha":1003,"x_min":128,"x_max":928,"o":"m 476 -11 q 216 76 304 -11 q 128 326 128 164 q 129 374 128 357 l 178 989 l 236 989 l 188 379 q 186 332 186 363 q 475 46 186 46 q 821 367 799 46 l 868 989 l 928 989 l 879 376 q 762 85 864 182 q 476 -11 660 -11 m 346 1114 q 382 1215 349 1179 q 468 1250 415 1250 q 524 1238 497 1250 q 586 1201 550 1225 q 634 1174 617 1182 q 668 1165 651 1165 q 721 1188 701 1165 q 742 1246 740 1210 l 790 1246 q 754 1146 788 1182 q 668 1110 721 1110 q 613 1122 639 1110 q 551 1157 588 1133 q 506 1184 525 1175 q 469 1193 486 1193 q 417 1172 436 1193 q 394 1114 397 1150 l 346 1114 z "},"Ṹ":{"ha":1003,"x_min":128,"x_max":928,"o":"m 476 -11 q 216 76 304 -11 q 128 326 128 164 q 129 374 128 357 l 178 989 l 236 989 l 188 379 q 186 332 186 363 q 475 46 186 46 q 821 367 799 46 l 868 989 l 928 989 l 879 376 q 762 85 864 182 q 476 -11 660 -11 m 346 1114 q 382 1215 349 1179 q 468 1250 415 1250 q 524 1238 497 1250 q 586 1201 550 1225 q 634 1174 617 1182 q 668 1165 651 1165 q 721 1188 701 1165 q 742 1246 740 1210 l 790 1246 q 754 1146 788 1182 q 668 1110 721 1110 q 613 1122 639 1110 q 551 1157 588 1133 q 506 1184 525 1175 q 469 1193 486 1193 q 417 1172 436 1193 q 394 1114 397 1150 l 346 1114 m 553 1299 l 707 1507 l 797 1507 l 603 1299 l 553 1299 z "},"V":{"ha":940,"x_min":67,"x_max":975,"o":"m 975 989 l 471 0 l 414 0 l 67 989 l 128 989 l 447 72 l 911 989 l 975 989 z "},"W":{"ha":1533,"x_min":110,"x_max":1525,"o":"m 1525 989 l 1106 0 l 1050 0 l 810 893 l 428 0 l 375 0 l 110 989 l 167 989 l 407 83 l 792 989 l 842 988 l 1083 85 l 1465 989 l 1525 989 z "},"Ẃ":{"ha":1533,"x_min":110,"x_max":1525,"o":"m 1525 989 l 1106 0 l 1050 0 l 810 893 l 428 0 l 375 0 l 110 989 l 167 989 l 407 83 l 792 989 l 842 988 l 1083 85 l 1465 989 l 1525 989 m 799 1074 l 953 1282 l 1043 1282 l 849 1074 l 799 1074 z "},"Ŵ":{"ha":1533,"x_min":110,"x_max":1525,"o":"m 1525 989 l 1106 0 l 1050 0 l 810 893 l 428 0 l 375 0 l 110 989 l 167 989 l 407 83 l 792 989 l 842 988 l 1083 85 l 1465 989 l 1525 989 m 642 1074 l 815 1282 l 865 1282 l 1006 1074 l 936 1074 l 839 1232 l 714 1074 l 642 1074 z "},"Ẅ":{"ha":1533,"x_min":110,"x_max":1525,"o":"m 1525 989 l 1106 0 l 1050 0 l 810 893 l 428 0 l 375 0 l 110 989 l 167 989 l 407 83 l 792 989 l 842 988 l 1083 85 l 1465 989 l 1525 989 m 767 1222 l 760 1138 l 674 1138 l 681 1222 l 767 1222 m 992 1222 l 985 1138 l 899 1138 l 904 1222 l 992 1222 z "},"Ẁ":{"ha":1533,"x_min":110,"x_max":1525,"o":"m 1525 989 l 1106 0 l 1050 0 l 810 893 l 428 0 l 375 0 l 110 989 l 167 989 l 407 83 l 792 989 l 842 988 l 1083 85 l 1465 989 l 1525 989 m 644 1282 l 722 1282 l 849 1074 l 799 1074 l 644 1282 z "},"X":{"ha":883,"x_min":7,"x_max":879,"o":"m 490 508 l 824 0 l 753 0 l 453 463 l 78 0 l 7 0 l 422 510 l 107 989 l 176 989 l 458 554 l 808 989 l 879 989 l 490 508 z "},"Y":{"ha":815,"x_min":51,"x_max":863,"o":"m 442 414 l 410 0 l 350 0 l 383 411 l 51 989 l 118 989 l 415 463 l 794 989 l 863 989 l 442 414 z "},"Ý":{"ha":815,"x_min":51,"x_max":863,"o":"m 442 414 l 410 0 l 350 0 l 383 411 l 51 989 l 118 989 l 415 463 l 794 989 l 863 989 l 442 414 m 439 1074 l 593 1282 l 683 1282 l 489 1074 l 439 1074 z "},"Ŷ":{"ha":815,"x_min":51,"x_max":863,"o":"m 442 414 l 410 0 l 350 0 l 383 411 l 51 989 l 118 989 l 415 463 l 794 989 l 863 989 l 442 414 m 282 1074 l 456 1282 l 506 1282 l 646 1074 l 576 1074 l 479 1232 l 354 1074 l 282 1074 z "},"Ÿ":{"ha":815,"x_min":51,"x_max":863,"o":"m 442 414 l 410 0 l 350 0 l 383 411 l 51 989 l 118 989 l 415 463 l 794 989 l 863 989 l 442 414 m 407 1222 l 400 1138 l 314 1138 l 321 1222 l 407 1222 m 632 1222 l 625 1138 l 539 1138 l 544 1222 l 632 1222 z "},"Ẏ":{"ha":815,"x_min":51,"x_max":863,"o":"m 442 414 l 410 0 l 350 0 l 383 411 l 51 989 l 118 989 l 415 463 l 794 989 l 863 989 l 442 414 m 519 1224 l 513 1135 l 425 1135 l 432 1224 l 519 1224 z "},"Ỵ":{"ha":815,"x_min":51,"x_max":863,"o":"m 442 414 l 410 0 l 350 0 l 383 411 l 51 989 l 118 989 l 415 463 l 794 989 l 863 989 l 442 414 m 417 -153 l 408 -243 l 315 -243 l 324 -153 l 417 -153 z "},"Ỳ":{"ha":815,"x_min":51,"x_max":863,"o":"m 442 414 l 410 0 l 350 0 l 383 411 l 51 989 l 118 989 l 415 463 l 794 989 l 863 989 l 442 414 m 285 1282 l 363 1282 l 489 1074 l 439 1074 l 285 1282 z "},"Ỷ":{"ha":815,"x_min":51,"x_max":863,"o":"m 442 414 l 410 0 l 350 0 l 383 411 l 51 989 l 118 989 l 415 463 l 794 989 l 863 989 l 442 414 m 493 1074 l 436 1074 l 438 1094 q 455 1133 439 1119 q 500 1164 471 1147 q 531 1185 522 1178 q 540 1204 540 1192 q 524 1224 540 1217 q 481 1231 508 1231 q 390 1214 439 1231 l 378 1265 q 483 1289 426 1289 q 576 1267 543 1289 q 608 1208 608 1246 q 590 1159 608 1176 q 539 1126 571 1142 q 507 1108 518 1117 q 494 1086 496 1099 l 493 1074 z "},"Ȳ":{"ha":815,"x_min":51,"x_max":863,"o":"m 442 414 l 410 0 l 350 0 l 383 411 l 51 989 l 118 989 l 415 463 l 794 989 l 863 989 l 442 414 m 271 1210 l 678 1210 l 674 1150 l 264 1150 l 271 1210 z "},"Ỹ":{"ha":815,"x_min":51,"x_max":863,"o":"m 442 414 l 410 0 l 350 0 l 383 411 l 51 989 l 118 989 l 415 463 l 794 989 l 863 989 l 442 414 m 250 1114 q 286 1215 253 1179 q 372 1250 319 1250 q 428 1238 401 1250 q 490 1201 454 1225 q 538 1174 521 1182 q 572 1165 556 1165 q 625 1188 606 1165 q 646 1246 644 1210 l 694 1246 q 658 1146 692 1182 q 572 1110 625 1110 q 517 1122 543 1110 q 456 1157 492 1133 q 410 1184 429 1175 q 374 1193 390 1193 q 321 1172 340 1193 q 299 1114 301 1150 l 250 1114 z "},"Z":{"ha":813,"x_min":32,"x_max":797,"o":"m 793 946 l 113 54 l 738 54 l 732 0 l 72 0 l 69 -3 l 69 0 l 32 0 l 35 43 l 718 935 l 107 935 l 111 989 l 758 989 l 761 992 l 761 989 l 797 989 l 793 946 z "},"Ź":{"ha":813,"x_min":32,"x_max":797,"o":"m 793 946 l 113 54 l 738 54 l 732 0 l 72 0 l 69 -3 l 69 0 l 32 0 l 35 43 l 718 935 l 107 935 l 111 989 l 758 989 l 761 992 l 761 989 l 797 989 l 793 946 m 436 1074 l 590 1282 l 681 1282 l 486 1074 l 436 1074 z "},"Ž":{"ha":813,"x_min":32,"x_max":797,"o":"m 793 946 l 113 54 l 738 54 l 732 0 l 72 0 l 69 -3 l 69 0 l 32 0 l 35 43 l 718 935 l 107 935 l 111 989 l 758 989 l 761 992 l 761 989 l 797 989 l 793 946 m 660 1282 l 486 1074 l 436 1074 l 296 1282 l 365 1282 l 464 1124 l 588 1282 l 660 1282 z "},"Ż":{"ha":813,"x_min":32,"x_max":797,"o":"m 793 946 l 113 54 l 738 54 l 732 0 l 72 0 l 69 -3 l 69 0 l 32 0 l 35 43 l 718 935 l 107 935 l 111 989 l 758 989 l 761 992 l 761 989 l 797 989 l 793 946 m 517 1224 l 510 1135 l 422 1135 l 429 1224 l 517 1224 z "},"Ẓ":{"ha":813,"x_min":32,"x_max":797,"o":"m 793 946 l 113 54 l 738 54 l 732 0 l 72 0 l 69 -3 l 69 0 l 32 0 l 35 43 l 718 935 l 107 935 l 111 989 l 758 989 l 761 992 l 761 989 l 797 989 l 793 946 m 426 -153 l 418 -243 l 325 -243 l 333 -153 l 426 -153 z "},"a":{"ha":810,"x_min":76,"x_max":715,"o":"m 715 694 l 660 0 l 604 0 l 614 125 q 515 26 581 63 q 372 -10 449 -10 q 217 32 283 -10 q 113 150 150 74 q 76 328 76 226 q 117 529 76 442 q 231 664 157 617 q 400 711 304 711 q 552 672 488 711 q 647 563 617 633 l 658 694 l 715 694 m 378 46 q 565 136 497 46 q 633 383 633 226 q 572 585 633 515 q 393 656 510 656 q 206 566 274 656 q 138 319 138 476 q 201 118 138 190 q 378 46 264 46 z "},"á":{"ha":810,"x_min":76,"x_max":715,"o":"m 715 694 l 660 0 l 604 0 l 614 125 q 515 26 581 63 q 372 -10 449 -10 q 217 32 283 -10 q 113 150 150 74 q 76 328 76 226 q 117 529 76 442 q 231 664 157 617 q 400 711 304 711 q 552 672 488 711 q 647 563 617 633 l 658 694 l 715 694 m 378 46 q 565 136 497 46 q 633 383 633 226 q 572 585 633 515 q 393 656 510 656 q 206 566 274 656 q 138 319 138 476 q 201 118 138 190 q 378 46 264 46 m 418 786 l 579 1067 l 669 1067 l 468 786 l 418 786 z "},"ă":{"ha":810,"x_min":76,"x_max":715,"o":"m 715 694 l 660 0 l 604 0 l 614 125 q 515 26 581 63 q 372 -10 449 -10 q 217 32 283 -10 q 113 150 150 74 q 76 328 76 226 q 117 529 76 442 q 231 664 157 617 q 400 711 304 711 q 552 672 488 711 q 647 563 617 633 l 658 694 l 715 694 m 378 46 q 565 136 497 46 q 633 383 633 226 q 572 585 633 515 q 393 656 510 656 q 206 566 274 656 q 138 319 138 476 q 201 118 138 190 q 378 46 264 46 m 446 835 q 322 874 376 835 q 243 997 268 914 l 303 1021 q 363 921 326 951 q 450 890 400 890 q 543 920 501 890 q 618 1021 585 950 l 674 999 q 446 835 603 835 z "},"ắ":{"ha":810,"x_min":76,"x_max":715,"o":"m 715 694 l 660 0 l 604 0 l 614 125 q 515 26 581 63 q 372 -10 449 -10 q 217 32 283 -10 q 113 150 150 74 q 76 328 76 226 q 117 529 76 442 q 231 664 157 617 q 400 711 304 711 q 552 672 488 711 q 647 563 617 633 l 658 694 l 715 694 m 378 46 q 565 136 497 46 q 633 383 633 226 q 572 585 633 515 q 393 656 510 656 q 206 566 274 656 q 138 319 138 476 q 201 118 138 190 q 378 46 264 46 m 431 928 l 582 1126 l 672 1126 l 478 928 l 431 928 m 442 778 q 319 815 374 778 q 236 926 264 851 l 299 951 q 362 863 328 886 q 446 839 396 839 q 535 863 497 839 q 611 951 572 886 l 669 926 q 442 778 597 778 z "},"ặ":{"ha":810,"x_min":76,"x_max":715,"o":"m 715 694 l 660 0 l 604 0 l 614 125 q 515 26 581 63 q 372 -10 449 -10 q 217 32 283 -10 q 113 150 150 74 q 76 328 76 226 q 117 529 76 442 q 231 664 157 617 q 400 711 304 711 q 552 672 488 711 q 647 563 617 633 l 658 694 l 715 694 m 378 46 q 565 136 497 46 q 633 383 633 226 q 572 585 633 515 q 393 656 510 656 q 206 566 274 656 q 138 319 138 476 q 201 118 138 190 q 378 46 264 46 m 418 -153 l 410 -243 l 317 -243 l 325 -153 l 418 -153 m 446 835 q 322 874 376 835 q 243 997 268 914 l 303 1021 q 363 921 326 951 q 450 890 400 890 q 543 920 501 890 q 618 1021 585 950 l 674 999 q 446 835 603 835 z "},"ằ":{"ha":810,"x_min":76,"x_max":715,"o":"m 715 694 l 660 0 l 604 0 l 614 125 q 515 26 581 63 q 372 -10 449 -10 q 217 32 283 -10 q 113 150 150 74 q 76 328 76 226 q 117 529 76 442 q 231 664 157 617 q 400 711 304 711 q 552 672 488 711 q 647 563 617 633 l 658 694 l 715 694 m 378 46 q 565 136 497 46 q 633 383 633 226 q 572 585 633 515 q 393 656 510 656 q 206 566 274 656 q 138 319 138 476 q 201 118 138 190 q 378 46 264 46 m 269 1126 l 351 1126 l 478 928 l 431 928 l 269 1126 m 442 778 q 319 815 374 778 q 236 926 264 851 l 299 951 q 362 863 328 886 q 446 839 396 839 q 535 863 497 839 q 611 951 572 886 l 669 926 q 442 778 597 778 z "},"ẳ":{"ha":810,"x_min":76,"x_max":715,"o":"m 715 694 l 660 0 l 604 0 l 614 125 q 515 26 581 63 q 372 -10 449 -10 q 217 32 283 -10 q 113 150 150 74 q 76 328 76 226 q 117 529 76 442 q 231 664 157 617 q 400 711 304 711 q 552 672 488 711 q 647 563 617 633 l 658 694 l 715 694 m 378 46 q 565 136 497 46 q 633 383 633 226 q 572 585 633 515 q 393 656 510 656 q 206 566 274 656 q 138 319 138 476 q 201 118 138 190 q 378 46 264 46 m 428 949 q 445 985 429 972 q 489 1010 461 999 q 520 1025 510 1018 q 531 1044 531 1032 q 514 1066 531 1058 q 471 1074 497 1074 q 379 1056 429 1074 l 368 1111 q 474 1133 418 1133 q 566 1111 533 1133 q 599 1051 599 1089 q 582 1009 599 1024 q 532 979 565 994 q 497 960 507 968 q 485 940 486 953 l 483 928 l 426 928 l 428 949 m 442 778 q 319 815 374 778 q 236 926 264 851 l 299 951 q 362 863 328 886 q 446 839 396 839 q 535 863 497 839 q 611 951 572 886 l 669 926 q 442 778 597 778 z "},"ẵ":{"ha":810,"x_min":76,"x_max":715,"o":"m 715 694 l 660 0 l 604 0 l 614 125 q 515 26 581 63 q 372 -10 449 -10 q 217 32 283 -10 q 113 150 150 74 q 76 328 76 226 q 117 529 76 442 q 231 664 157 617 q 400 711 304 711 q 552 672 488 711 q 647 563 617 633 l 658 694 l 715 694 m 378 46 q 565 136 497 46 q 633 383 633 226 q 572 585 633 515 q 393 656 510 656 q 206 566 274 656 q 138 319 138 476 q 201 118 138 190 q 378 46 264 46 m 564 993 q 511 1005 536 993 q 447 1043 486 1017 q 402 1071 421 1061 q 367 1081 383 1081 q 314 1057 333 1081 q 292 997 294 1033 l 243 997 q 278 1103 246 1067 q 365 1139 311 1139 q 419 1126 393 1139 q 483 1089 444 1114 q 530 1061 511 1071 q 565 1051 549 1051 q 618 1075 599 1051 q 639 1135 638 1099 l 688 1135 q 651 1029 683 1065 q 564 993 618 993 m 442 778 q 319 815 374 778 q 236 926 264 851 l 299 951 q 362 863 328 886 q 446 839 396 839 q 535 863 497 839 q 611 951 572 886 l 669 926 q 442 778 597 778 z "},"ǎ":{"ha":810,"x_min":76,"x_max":715,"o":"m 715 694 l 660 0 l 604 0 l 614 125 q 515 26 581 63 q 372 -10 449 -10 q 217 32 283 -10 q 113 150 150 74 q 76 328 76 226 q 117 529 76 442 q 231 664 157 617 q 400 711 304 711 q 552 672 488 711 q 647 563 617 633 l 658 694 l 715 694 m 378 46 q 565 136 497 46 q 633 383 633 226 q 572 585 633 515 q 393 656 510 656 q 206 566 274 656 q 138 319 138 476 q 201 118 138 190 q 378 46 264 46 m 647 1067 l 469 786 l 417 786 l 283 1067 l 353 1067 l 446 844 l 576 1067 l 647 1067 z "},"â":{"ha":810,"x_min":76,"x_max":715,"o":"m 715 694 l 660 0 l 604 0 l 614 125 q 515 26 581 63 q 372 -10 449 -10 q 217 32 283 -10 q 113 150 150 74 q 76 328 76 226 q 117 529 76 442 q 231 664 157 617 q 400 711 304 711 q 552 672 488 711 q 647 563 617 633 l 658 694 l 715 694 m 378 46 q 565 136 497 46 q 633 383 633 226 q 572 585 633 515 q 393 656 510 656 q 206 566 274 656 q 138 319 138 476 q 201 118 138 190 q 378 46 264 46 m 260 786 l 439 1067 l 492 1067 l 625 786 l 556 786 l 461 1007 l 332 786 l 260 786 z "},"ấ":{"ha":810,"x_min":76,"x_max":813,"o":"m 715 694 l 660 0 l 604 0 l 614 125 q 515 26 581 63 q 372 -10 449 -10 q 217 32 283 -10 q 113 150 150 74 q 76 328 76 226 q 117 529 76 442 q 231 664 157 617 q 400 711 304 711 q 552 672 488 711 q 647 563 617 633 l 658 694 l 715 694 m 378 46 q 565 136 497 46 q 633 383 633 226 q 572 585 633 515 q 393 656 510 656 q 206 566 274 656 q 138 319 138 476 q 201 118 138 190 q 378 46 264 46 m 565 928 l 722 1126 l 813 1126 l 615 928 l 565 928 m 260 786 l 435 999 l 485 999 l 625 786 l 556 786 l 458 947 l 333 786 l 260 786 z "},"ậ":{"ha":810,"x_min":76,"x_max":715,"o":"m 715 694 l 660 0 l 604 0 l 614 125 q 515 26 581 63 q 372 -10 449 -10 q 217 32 283 -10 q 113 150 150 74 q 76 328 76 226 q 117 529 76 442 q 231 664 157 617 q 400 711 304 711 q 552 672 488 711 q 647 563 617 633 l 658 694 l 715 694 m 378 46 q 565 136 497 46 q 633 383 633 226 q 572 585 633 515 q 393 656 510 656 q 206 566 274 656 q 138 319 138 476 q 201 118 138 190 q 378 46 264 46 m 418 -153 l 410 -243 l 317 -243 l 325 -153 l 418 -153 m 260 786 l 439 1067 l 492 1067 l 625 786 l 556 786 l 461 1007 l 332 786 l 260 786 z "},"ầ":{"ha":810,"x_min":76,"x_max":715,"o":"m 715 694 l 660 0 l 604 0 l 614 125 q 515 26 581 63 q 372 -10 449 -10 q 217 32 283 -10 q 113 150 150 74 q 76 328 76 226 q 117 529 76 442 q 231 664 157 617 q 400 711 304 711 q 552 672 488 711 q 647 563 617 633 l 658 694 l 715 694 m 378 46 q 565 136 497 46 q 633 383 633 226 q 572 585 633 515 q 393 656 510 656 q 206 566 274 656 q 138 319 138 476 q 201 118 138 190 q 378 46 264 46 m 494 1126 l 576 1126 l 675 928 l 625 928 l 494 1126 m 435 999 l 485 999 l 625 786 l 556 786 l 458 947 l 333 786 l 260 786 l 435 999 z "},"ẩ":{"ha":810,"x_min":76,"x_max":738,"o":"m 715 694 l 660 0 l 604 0 l 614 125 q 515 26 581 63 q 372 -10 449 -10 q 217 32 283 -10 q 113 150 150 74 q 76 328 76 226 q 117 529 76 442 q 231 664 157 617 q 400 711 304 711 q 552 672 488 711 q 647 563 617 633 l 658 694 l 715 694 m 378 46 q 565 136 497 46 q 633 383 633 226 q 572 585 633 515 q 393 656 510 656 q 206 566 274 656 q 138 319 138 476 q 201 118 138 190 q 378 46 264 46 m 565 949 q 583 985 567 972 q 628 1010 600 999 q 659 1025 649 1018 q 669 1044 669 1032 q 653 1066 669 1058 q 608 1074 636 1074 q 518 1056 568 1074 l 507 1111 q 559 1128 531 1122 q 611 1133 588 1133 q 704 1111 671 1133 q 738 1051 738 1089 q 721 1009 738 1024 q 671 979 704 994 q 635 960 646 968 q 624 940 625 953 l 622 928 l 564 928 l 565 949 m 435 999 l 485 999 l 625 786 l 556 786 l 458 947 l 333 786 l 260 786 l 435 999 z "},"ẫ":{"ha":810,"x_min":76,"x_max":715,"o":"m 715 694 l 660 0 l 604 0 l 614 125 q 515 26 581 63 q 372 -10 449 -10 q 217 32 283 -10 q 113 150 150 74 q 76 328 76 226 q 117 529 76 442 q 231 664 157 617 q 400 711 304 711 q 552 672 488 711 q 647 563 617 633 l 658 694 l 715 694 m 378 46 q 565 136 497 46 q 633 383 633 226 q 572 585 633 515 q 393 656 510 656 q 206 566 274 656 q 138 319 138 476 q 201 118 138 190 q 378 46 264 46 m 244 1017 q 281 1115 247 1079 q 367 1150 314 1150 q 423 1140 397 1150 q 488 1111 449 1131 q 533 1090 517 1097 q 567 1083 550 1083 q 619 1105 599 1083 q 640 1156 639 1126 l 689 1156 q 653 1058 686 1093 q 565 1022 619 1022 q 509 1033 536 1022 q 447 1063 482 1043 q 401 1085 418 1078 q 367 1092 383 1092 q 313 1069 333 1092 q 293 1017 293 1046 l 244 1017 m 435 999 l 485 999 l 625 786 l 556 786 l 458 947 l 333 786 l 260 786 l 435 999 z "},"ȁ":{"ha":810,"x_min":76,"x_max":715,"o":"m 715 694 l 660 0 l 604 0 l 614 125 q 515 26 581 63 q 372 -10 449 -10 q 217 32 283 -10 q 113 150 150 74 q 76 328 76 226 q 117 529 76 442 q 231 664 157 617 q 400 711 304 711 q 552 672 488 711 q 647 563 617 633 l 658 694 l 715 694 m 378 46 q 565 136 497 46 q 633 383 633 226 q 572 585 633 515 q 393 656 510 656 q 206 566 274 656 q 138 319 138 476 q 201 118 138 190 q 378 46 264 46 m 257 1067 l 333 1067 l 383 786 l 344 786 l 257 1067 m 414 1067 l 488 1067 l 539 786 l 500 786 l 414 1067 z "},"ä":{"ha":810,"x_min":76,"x_max":715,"o":"m 715 694 l 660 0 l 604 0 l 614 125 q 515 26 581 63 q 372 -10 449 -10 q 217 32 283 -10 q 113 150 150 74 q 76 328 76 226 q 117 529 76 442 q 231 664 157 617 q 400 711 304 711 q 552 672 488 711 q 647 563 617 633 l 658 694 l 715 694 m 378 46 q 565 136 497 46 q 633 383 633 226 q 572 585 633 515 q 393 656 510 656 q 206 566 274 656 q 138 319 138 476 q 201 118 138 190 q 378 46 264 46 m 388 969 l 382 885 l 296 885 l 303 969 l 388 969 m 614 969 l 608 885 l 521 885 l 526 969 l 614 969 z "},"ȧ":{"ha":810,"x_min":76,"x_max":715,"o":"m 715 694 l 660 0 l 604 0 l 614 125 q 515 26 581 63 q 372 -10 449 -10 q 217 32 283 -10 q 113 150 150 74 q 76 328 76 226 q 117 529 76 442 q 231 664 157 617 q 400 711 304 711 q 552 672 488 711 q 647 563 617 633 l 658 694 l 715 694 m 378 46 q 565 136 497 46 q 633 383 633 226 q 572 585 633 515 q 393 656 510 656 q 206 566 274 656 q 138 319 138 476 q 201 118 138 190 q 378 46 264 46 m 501 972 l 494 883 l 406 883 l 413 972 l 501 972 z "},"ạ":{"ha":810,"x_min":76,"x_max":715,"o":"m 715 694 l 660 0 l 604 0 l 614 125 q 515 26 581 63 q 372 -10 449 -10 q 217 32 283 -10 q 113 150 150 74 q 76 328 76 226 q 117 529 76 442 q 231 664 157 617 q 400 711 304 711 q 552 672 488 711 q 647 563 617 633 l 658 694 l 715 694 m 378 46 q 565 136 497 46 q 633 383 633 226 q 572 585 633 515 q 393 656 510 656 q 206 566 274 656 q 138 319 138 476 q 201 118 138 190 q 378 46 264 46 m 418 -153 l 410 -243 l 317 -243 l 325 -153 l 418 -153 z "},"à":{"ha":810,"x_min":76,"x_max":715,"o":"m 715 694 l 660 0 l 604 0 l 614 125 q 515 26 581 63 q 372 -10 449 -10 q 217 32 283 -10 q 113 150 150 74 q 76 328 76 226 q 117 529 76 442 q 231 664 157 617 q 400 711 304 711 q 552 672 488 711 q 647 563 617 633 l 658 694 l 715 694 m 378 46 q 565 136 497 46 q 633 383 633 226 q 572 585 633 515 q 393 656 510 656 q 206 566 274 656 q 138 319 138 476 q 201 118 138 190 q 378 46 264 46 m 265 1067 l 347 1067 l 468 786 l 418 786 l 265 1067 z "},"ả":{"ha":810,"x_min":76,"x_max":715,"o":"m 715 694 l 660 0 l 604 0 l 614 125 q 515 26 581 63 q 372 -10 449 -10 q 217 32 283 -10 q 113 150 150 74 q 76 328 76 226 q 117 529 76 442 q 231 664 157 617 q 400 711 304 711 q 552 672 488 711 q 647 563 617 633 l 658 694 l 715 694 m 378 46 q 565 136 497 46 q 633 383 633 226 q 572 585 633 515 q 393 656 510 656 q 206 566 274 656 q 138 319 138 476 q 201 118 138 190 q 378 46 264 46 m 474 786 l 418 786 l 421 825 q 440 875 424 854 q 485 922 456 896 q 517 956 507 943 q 526 982 526 968 q 510 1006 526 997 q 467 1015 494 1015 q 375 999 433 1015 l 363 1051 q 471 1074 408 1074 q 559 1049 525 1074 q 593 986 593 1025 q 578 935 593 956 q 532 890 563 915 q 490 849 504 867 q 475 807 476 832 l 474 786 z "},"ȃ":{"ha":810,"x_min":76,"x_max":715,"o":"m 715 694 l 660 0 l 604 0 l 614 125 q 515 26 581 63 q 372 -10 449 -10 q 217 32 283 -10 q 113 150 150 74 q 76 328 76 226 q 117 529 76 442 q 231 664 157 617 q 400 711 304 711 q 552 672 488 711 q 647 563 617 633 l 658 694 l 715 694 m 378 46 q 565 136 497 46 q 633 383 633 226 q 572 585 633 515 q 393 656 510 656 q 206 566 274 656 q 138 319 138 476 q 201 118 138 190 q 378 46 264 46 m 461 1021 q 586 981 532 1021 q 663 858 640 942 l 606 833 q 545 935 582 904 q 458 965 508 965 q 364 935 406 965 q 289 833 322 906 l 232 857 q 461 1021 307 1021 z "},"ā":{"ha":810,"x_min":76,"x_max":715,"o":"m 715 694 l 660 0 l 604 0 l 614 125 q 515 26 581 63 q 372 -10 449 -10 q 217 32 283 -10 q 113 150 150 74 q 76 328 76 226 q 117 529 76 442 q 231 664 157 617 q 400 711 304 711 q 552 672 488 711 q 647 563 617 633 l 658 694 l 715 694 m 378 46 q 565 136 497 46 q 633 383 633 226 q 572 585 633 515 q 393 656 510 656 q 206 566 274 656 q 138 319 138 476 q 201 118 138 190 q 378 46 264 46 m 251 958 l 660 958 l 656 897 l 246 897 l 251 958 z "},"ą":{"ha":810,"x_min":76,"x_max":715,"o":"m 604 -219 q 646 -212 622 -219 q 692 -189 669 -204 l 711 -240 q 663 -263 693 -254 q 600 -272 632 -272 q 490 -235 531 -272 q 450 -136 450 -199 q 492 -22 450 -69 q 608 46 535 26 l 614 125 q 515 26 581 63 q 372 -10 449 -10 q 217 32 285 -10 q 113 150 150 74 q 76 328 76 226 q 117 529 76 442 q 231 664 158 617 q 400 711 304 711 q 553 672 488 711 q 649 560 618 632 l 658 694 l 715 694 l 660 0 l 649 0 q 553 -34 593 0 q 513 -126 513 -68 q 537 -196 513 -172 q 604 -219 561 -219 m 378 31 q 574 125 503 31 q 644 386 644 219 q 580 597 644 524 q 393 671 515 671 q 198 577 269 671 q 126 318 126 483 q 192 106 126 182 q 378 31 258 31 z "},"å":{"ha":810,"x_min":76,"x_max":715,"o":"m 715 694 l 660 0 l 604 0 l 614 125 q 515 26 581 63 q 372 -10 449 -10 q 217 32 283 -10 q 113 150 150 74 q 76 328 76 226 q 117 529 76 442 q 231 664 157 617 q 400 711 304 711 q 552 672 488 711 q 647 563 617 633 l 658 694 l 715 694 m 378 46 q 565 136 497 46 q 633 383 633 226 q 572 585 633 515 q 393 656 510 656 q 206 566 274 656 q 138 319 138 476 q 201 118 138 190 q 378 46 264 46 m 454 793 q 358 832 397 793 q 318 926 318 871 q 358 1020 318 982 q 454 1058 397 1058 q 549 1020 510 1058 q 589 926 589 982 q 549 832 589 871 q 454 793 510 793 m 454 851 q 505 873 485 851 q 525 926 525 894 q 505 979 525 958 q 454 1000 485 1000 q 403 979 424 1000 q 382 926 382 958 q 403 873 382 894 q 454 851 424 851 z "},"ǻ":{"ha":810,"x_min":76,"x_max":769,"o":"m 456 797 q 357 838 399 797 q 315 935 315 878 q 356 1030 315 990 q 451 1069 397 1069 q 539 1040 499 1069 l 675 1221 l 769 1217 l 569 1007 q 592 932 592 971 q 553 837 593 876 q 456 797 513 797 m 453 1008 q 401 986 422 1008 q 381 932 381 964 q 402 879 381 901 q 454 857 424 857 q 506 878 485 857 q 526 929 526 900 q 506 985 526 963 q 453 1008 486 1008 m 658 694 l 715 694 l 660 0 l 604 0 l 614 125 q 515 26 581 63 q 372 -10 449 -10 q 217 32 283 -10 q 113 150 150 74 q 76 328 76 226 q 117 529 76 442 q 231 664 157 617 q 400 711 304 711 q 553 672 488 711 q 649 560 618 632 l 658 694 m 378 46 q 565 136 497 46 q 633 383 633 226 q 572 585 633 515 q 393 656 510 656 q 206 566 274 656 q 139 319 139 476 q 201 118 139 190 q 378 46 264 46 z "},"ã":{"ha":810,"x_min":76,"x_max":715,"o":"m 715 694 l 660 0 l 604 0 l 614 125 q 515 26 581 63 q 372 -10 449 -10 q 217 32 283 -10 q 113 150 150 74 q 76 328 76 226 q 117 529 76 442 q 231 664 157 617 q 400 711 304 711 q 552 672 488 711 q 647 563 617 633 l 658 694 l 715 694 m 378 46 q 565 136 497 46 q 633 383 633 226 q 572 585 633 515 q 393 656 510 656 q 206 566 274 656 q 138 319 138 476 q 201 118 138 190 q 378 46 264 46 m 232 863 q 268 963 235 928 q 354 999 301 999 q 410 986 383 999 q 472 950 436 974 q 520 922 503 931 q 554 914 538 914 q 607 936 588 914 q 628 994 626 958 l 674 994 q 640 894 672 929 q 554 858 607 858 q 498 871 525 858 q 438 907 471 883 q 390 935 407 926 q 356 943 372 943 q 303 921 322 943 q 281 863 283 899 l 232 863 z "},"æ":{"ha":1236,"x_min":89,"x_max":1171,"o":"m 635 325 l 635 318 q 699 119 635 192 q 883 46 763 46 q 999 67 939 46 q 1111 132 1060 89 l 1136 85 q 1023 17 1096 43 q 885 -10 950 -10 q 699 45 772 -10 q 597 200 625 100 q 493 47 567 103 q 319 -10 419 -10 q 153 46 218 -10 q 89 188 89 101 q 187 362 89 304 q 507 419 285 419 l 582 419 l 585 453 q 586 490 586 467 q 546 615 586 575 q 422 656 506 656 q 297 638 357 656 q 175 579 238 619 l 150 629 q 272 689 200 667 q 415 711 344 711 q 639 567 601 711 q 746 674 679 636 q 903 711 813 711 q 1099 638 1026 711 q 1171 425 1171 564 q 1168 363 1171 385 l 639 363 l 635 325 m 908 660 q 733 598 801 660 q 644 424 665 536 l 644 419 l 1115 419 q 1065 596 1122 532 q 908 660 1008 660 m 322 47 q 442 79 388 47 q 532 169 497 111 q 572 300 567 226 l 578 363 l 513 363 q 288 342 367 363 q 181 283 210 321 q 153 188 153 246 q 199 86 153 125 q 322 47 244 47 z "},"ǽ":{"ha":1236,"x_min":89,"x_max":1171,"o":"m 635 325 l 635 318 q 699 119 635 192 q 883 46 763 46 q 999 67 939 46 q 1111 132 1060 89 l 1136 85 q 1023 17 1096 43 q 885 -10 950 -10 q 699 45 772 -10 q 597 200 625 100 q 493 47 567 103 q 319 -10 419 -10 q 153 46 218 -10 q 89 188 89 101 q 187 362 89 304 q 507 419 285 419 l 582 419 l 585 453 q 586 490 586 467 q 546 615 586 575 q 422 656 506 656 q 297 638 357 656 q 175 579 238 619 l 150 629 q 272 689 200 667 q 415 711 344 711 q 639 567 601 711 q 746 674 679 636 q 903 711 813 711 q 1099 638 1026 711 q 1171 425 1171 564 q 1168 363 1171 385 l 639 363 l 635 325 m 908 660 q 733 598 801 660 q 644 424 665 536 l 644 419 l 1115 419 q 1065 596 1122 532 q 908 660 1008 660 m 322 47 q 442 79 388 47 q 532 169 497 111 q 572 300 567 226 l 578 363 l 513 363 q 288 342 367 363 q 181 283 210 321 q 153 188 153 246 q 199 86 153 125 q 322 47 244 47 m 617 786 l 778 1067 l 868 1067 l 667 786 l 617 786 z "},"b":{"ha":810,"x_min":94,"x_max":733,"o":"m 438 711 q 592 669 525 711 q 697 552 660 628 q 733 375 733 476 q 693 172 733 260 q 579 38 653 85 q 410 -10 506 -10 q 258 29 322 -10 q 164 139 193 68 l 153 0 l 94 0 l 176 1022 l 233 1022 l 197 579 q 297 676 232 640 q 438 711 363 711 m 421 46 q 605 135 538 46 q 672 382 672 225 q 610 583 672 511 q 435 656 547 656 q 246 565 314 656 q 178 318 178 475 q 240 116 178 186 q 421 46 303 46 z "},"c":{"ha":676,"x_min":75,"x_max":651,"o":"m 374 -10 q 216 31 283 -10 q 112 148 149 72 q 75 324 75 224 q 116 526 75 439 q 233 663 157 614 q 411 711 308 711 q 544 687 482 711 q 651 618 607 663 l 621 569 q 514 637 564 617 q 403 657 464 657 q 206 567 276 657 q 136 319 136 478 q 199 119 136 192 q 381 46 263 46 q 483 66 436 46 q 586 132 531 86 l 610 85 q 505 16 567 42 q 374 -10 443 -10 z "},"ć":{"ha":676,"x_min":75,"x_max":653,"o":"m 374 -10 q 216 31 283 -10 q 112 148 149 72 q 75 324 75 224 q 116 526 75 439 q 233 663 157 614 q 411 711 308 711 q 544 687 482 711 q 651 618 607 663 l 621 569 q 514 637 564 617 q 403 657 464 657 q 206 567 276 657 q 136 319 136 478 q 199 119 136 192 q 381 46 263 46 q 483 66 436 46 q 586 132 531 86 l 610 85 q 505 16 567 42 q 374 -10 443 -10 m 401 786 l 563 1067 l 653 1067 l 451 786 l 401 786 z "},"č":{"ha":676,"x_min":75,"x_max":651,"o":"m 374 -10 q 216 31 283 -10 q 112 148 149 72 q 75 324 75 224 q 116 526 75 439 q 233 663 157 614 q 411 711 308 711 q 544 687 482 711 q 651 618 607 663 l 621 569 q 514 637 564 617 q 403 657 464 657 q 206 567 276 657 q 136 319 136 478 q 199 119 136 192 q 381 46 263 46 q 483 66 436 46 q 586 132 531 86 l 610 85 q 505 16 567 42 q 374 -10 443 -10 m 631 1067 l 453 786 l 400 786 l 267 1067 l 336 1067 l 429 844 l 560 1067 l 631 1067 z "},"ç":{"ha":676,"x_min":75,"x_max":651,"o":"m 403 657 q 206 567 276 657 q 136 319 136 478 q 199 119 136 192 q 381 46 263 46 q 483 66 436 46 q 586 132 531 86 l 610 85 q 508 17 568 42 q 379 -10 447 -8 l 368 -62 q 406 -57 386 -57 q 477 -82 450 -57 q 504 -151 504 -107 q 464 -235 504 -204 q 351 -267 424 -267 q 292 -260 324 -267 q 233 -240 260 -254 l 254 -192 q 356 -211 304 -211 q 423 -197 400 -211 q 446 -154 446 -182 q 433 -122 446 -133 q 394 -111 419 -111 q 326 -126 363 -111 l 301 -107 l 321 -6 q 141 101 207 13 q 75 324 75 189 q 116 526 75 439 q 233 663 157 614 q 411 711 308 711 q 544 687 482 711 q 651 618 607 663 l 621 569 q 514 637 564 617 q 403 657 464 657 z "},"ḉ":{"ha":676,"x_min":75,"x_max":653,"o":"m 451 786 l 401 786 l 563 1067 l 653 1067 l 451 786 m 75 324 q 116 526 75 439 q 233 663 157 614 q 411 711 308 711 q 544 687 482 711 q 651 618 607 663 l 621 569 q 514 637 564 617 q 403 657 464 657 q 206 567 276 657 q 136 319 136 478 q 199 119 136 192 q 381 46 263 46 q 483 66 436 46 q 586 132 531 86 l 610 85 q 508 17 568 42 q 379 -10 447 -8 l 368 -62 q 406 -57 386 -57 q 477 -82 450 -57 q 504 -151 504 -107 q 464 -235 504 -204 q 351 -267 424 -267 q 292 -260 324 -267 q 233 -240 260 -254 l 254 -192 q 356 -211 304 -211 q 423 -197 400 -211 q 446 -154 446 -182 q 433 -122 446 -133 q 394 -111 419 -111 q 326 -126 363 -111 l 301 -107 l 321 -6 q 141 101 207 13 q 75 324 75 189 z "},"ĉ":{"ha":676,"x_min":75,"x_max":651,"o":"m 374 -10 q 216 31 283 -10 q 112 148 149 72 q 75 324 75 224 q 116 526 75 439 q 233 663 157 614 q 411 711 308 711 q 544 687 482 711 q 651 618 607 663 l 621 569 q 514 637 564 617 q 403 657 464 657 q 206 567 276 657 q 136 319 136 478 q 199 119 136 192 q 381 46 263 46 q 483 66 436 46 q 586 132 531 86 l 610 85 q 505 16 567 42 q 374 -10 443 -10 m 243 786 l 422 1067 l 475 1067 l 608 786 l 539 786 l 444 1007 l 315 786 l 243 786 z "},"ċ":{"ha":676,"x_min":75,"x_max":651,"o":"m 374 -10 q 216 31 283 -10 q 112 148 149 72 q 75 324 75 224 q 116 526 75 439 q 233 663 157 614 q 411 711 308 711 q 544 687 482 711 q 651 618 607 663 l 621 569 q 514 637 564 617 q 403 657 464 657 q 206 567 276 657 q 136 319 136 478 q 199 119 136 192 q 381 46 263 46 q 483 66 436 46 q 586 132 531 86 l 610 85 q 505 16 567 42 q 374 -10 443 -10 m 485 972 l 478 883 l 389 883 l 396 972 l 485 972 z "},"d":{"ha":810,"x_min":75,"x_max":739,"o":"m 739 1022 l 658 0 l 603 0 l 613 125 q 513 26 579 63 q 371 -10 447 -10 q 216 32 283 -10 q 112 149 149 74 q 75 325 75 225 q 116 528 75 440 q 230 663 157 615 q 399 711 303 711 q 551 672 486 711 q 647 560 617 632 l 683 1022 l 739 1022 m 376 46 q 564 136 496 46 q 632 383 632 226 q 570 585 632 515 q 392 656 508 656 q 205 567 274 656 q 136 324 136 478 q 199 119 136 192 q 376 46 263 46 z "},"ð":{"ha":772,"x_min":74,"x_max":740,"o":"m 574 861 q 706 464 706 714 q 616 108 706 225 q 372 -10 526 -10 q 155 74 236 -10 q 74 297 74 157 q 114 483 74 403 q 227 608 154 564 q 396 653 300 653 q 559 610 492 653 q 651 499 626 567 q 521 839 647 707 l 296 747 l 278 797 l 479 879 q 282 985 401 944 l 304 1029 q 533 901 444 982 l 724 979 l 740 929 l 574 861 m 378 46 q 563 127 494 46 q 632 354 632 208 q 568 532 632 468 q 392 596 504 596 q 203 515 274 596 q 133 293 133 435 q 197 108 133 171 q 378 46 260 46 z "},"ď":{"ha":810,"x_min":75,"x_max":871,"o":"m 683 1022 l 739 1022 l 658 0 l 603 0 l 613 125 q 513 26 579 63 q 371 -10 447 -10 q 216 32 283 -10 q 112 149 149 74 q 75 325 75 225 q 116 528 75 440 q 230 663 157 615 q 399 711 303 711 q 551 672 486 711 q 647 560 617 632 l 683 1022 m 871 1022 l 815 753 l 772 753 l 792 1022 l 871 1022 m 376 46 q 564 136 496 46 q 632 383 632 226 q 570 585 632 515 q 392 656 508 656 q 205 567 274 656 q 136 324 136 478 q 199 119 136 192 q 376 46 263 46 z "},"đ":{"ha":810,"x_min":76,"x_max":868,"o":"m 863 826 l 725 826 l 660 0 l 604 0 l 614 125 q 515 26 581 63 q 372 -10 449 -10 q 217 32 285 -10 q 113 149 150 74 q 76 326 76 225 q 117 528 76 442 q 231 663 158 615 q 400 711 304 711 q 553 672 488 711 q 649 560 618 632 l 669 826 l 386 826 l 390 876 l 674 876 l 685 1022 l 740 1022 l 729 876 l 868 876 l 863 826 m 378 46 q 565 136 496 46 q 633 382 633 226 q 572 585 633 515 q 393 656 510 656 q 206 566 274 656 q 138 319 138 476 q 201 118 138 190 q 378 46 264 46 z "},"ḍ":{"ha":810,"x_min":75,"x_max":739,"o":"m 739 1022 l 658 0 l 603 0 l 613 125 q 513 26 579 63 q 371 -10 447 -10 q 216 32 283 -10 q 112 149 149 74 q 75 325 75 225 q 116 528 75 440 q 230 663 157 615 q 399 711 303 711 q 551 672 486 711 q 647 560 617 632 l 683 1022 l 739 1022 m 376 46 q 564 136 496 46 q 632 383 632 226 q 570 585 632 515 q 392 656 508 656 q 205 567 274 656 q 136 324 136 478 q 199 119 136 192 q 376 46 263 46 m 418 -153 l 410 -243 l 317 -243 l 325 -153 l 418 -153 z "},"ḏ":{"ha":810,"x_min":75,"x_max":739,"o":"m 739 1022 l 658 0 l 603 0 l 613 125 q 513 26 579 63 q 371 -10 447 -10 q 216 32 283 -10 q 112 149 149 74 q 75 325 75 225 q 116 528 75 440 q 230 663 157 615 q 399 711 303 711 q 551 672 486 711 q 647 560 617 632 l 683 1022 l 739 1022 m 376 46 q 564 136 496 46 q 632 383 632 226 q 570 585 632 515 q 392 656 508 656 q 205 567 274 656 q 136 324 136 478 q 199 119 136 192 q 376 46 263 46 m 165 -167 l 575 -167 l 569 -228 l 160 -228 l 165 -167 z "},"ǆ":{"ha":1521,"x_min":75,"x_max":1464,"o":"m 739 1022 l 658 0 l 603 0 l 613 125 q 513 26 579 63 q 371 -10 447 -10 q 216 32 283 -10 q 112 149 149 74 q 75 325 75 225 q 116 528 75 440 q 230 663 157 615 q 399 711 303 711 q 551 672 486 711 q 647 560 617 632 l 683 1022 l 739 1022 m 376 46 q 564 136 496 46 q 632 383 632 226 q 570 585 632 515 q 392 656 508 656 q 205 567 274 656 q 136 324 136 478 q 199 119 136 192 q 376 46 263 46 m 1463 649 l 942 49 l 1431 49 l 1426 0 l 853 0 l 857 38 l 1386 646 l 925 646 l 929 694 l 1464 694 l 1463 649 m 1407 1067 l 1229 786 l 1176 786 l 1043 1067 l 1113 1067 l 1206 844 l 1336 1067 l 1407 1067 z "},"e":{"ha":751,"x_min":75,"x_max":688,"o":"m 140 363 q 139 318 139 349 q 202 119 139 192 q 385 46 265 46 q 513 67 450 46 q 626 132 575 89 l 653 85 q 536 16 611 42 q 388 -10 461 -10 q 158 81 242 -10 q 75 324 75 171 q 116 526 75 439 q 233 663 157 614 q 411 711 308 711 q 614 638 540 711 q 688 422 688 564 q 685 363 688 383 l 140 363 m 417 660 q 238 597 307 660 q 147 419 168 533 l 631 419 q 577 597 636 533 q 417 660 518 660 z "},"é":{"ha":751,"x_min":75,"x_max":688,"o":"m 140 363 q 139 318 139 349 q 202 119 139 192 q 385 46 265 46 q 513 67 450 46 q 626 132 575 89 l 653 85 q 536 16 611 42 q 388 -10 461 -10 q 158 81 242 -10 q 75 324 75 171 q 116 526 75 439 q 233 663 157 614 q 411 711 308 711 q 614 638 540 711 q 688 422 688 564 q 685 363 688 383 l 140 363 m 417 660 q 238 597 307 660 q 147 419 168 533 l 631 419 q 577 597 636 533 q 417 660 518 660 m 406 786 l 567 1067 l 657 1067 l 456 786 l 406 786 z "},"ĕ":{"ha":751,"x_min":75,"x_max":688,"o":"m 140 363 q 139 318 139 349 q 202 119 139 192 q 385 46 265 46 q 513 67 450 46 q 626 132 575 89 l 653 85 q 536 16 611 42 q 388 -10 461 -10 q 158 81 242 -10 q 75 324 75 171 q 116 526 75 439 q 233 663 157 614 q 411 711 308 711 q 614 638 540 711 q 688 422 688 564 q 685 363 688 383 l 140 363 m 417 660 q 238 597 307 660 q 147 419 168 533 l 631 419 q 577 597 636 533 q 417 660 518 660 m 433 835 q 310 874 364 835 q 231 997 256 914 l 290 1021 q 351 921 314 951 q 438 890 388 890 q 531 920 489 890 q 606 1021 572 950 l 661 999 q 433 835 590 835 z "},"ě":{"ha":751,"x_min":75,"x_max":688,"o":"m 140 363 q 139 318 139 349 q 202 119 139 192 q 385 46 265 46 q 513 67 450 46 q 626 132 575 89 l 653 85 q 536 16 611 42 q 388 -10 461 -10 q 158 81 242 -10 q 75 324 75 171 q 116 526 75 439 q 233 663 157 614 q 411 711 308 711 q 614 638 540 711 q 688 422 688 564 q 685 363 688 383 l 140 363 m 417 660 q 238 597 307 660 q 147 419 168 533 l 631 419 q 577 597 636 533 q 417 660 518 660 m 635 1067 l 457 786 l 404 786 l 271 1067 l 340 1067 l 433 844 l 564 1067 l 635 1067 z "},"ḝ":{"ha":751,"x_min":75,"x_max":688,"o":"m 433 835 q 310 874 364 835 q 231 997 256 914 l 290 1021 q 351 921 314 951 q 438 890 388 890 q 531 920 489 890 q 606 1021 572 950 l 661 999 q 433 835 590 835 m 140 363 q 139 318 139 349 q 202 119 139 192 q 385 46 265 46 q 513 67 450 46 q 626 132 575 89 l 653 85 q 542 19 613 44 q 401 -10 472 -7 l 390 -62 q 428 -57 408 -57 q 499 -82 472 -57 q 526 -151 526 -107 q 486 -235 526 -204 q 374 -267 446 -267 q 314 -260 346 -267 q 256 -240 282 -254 l 276 -192 q 378 -211 326 -211 q 445 -197 422 -211 q 468 -154 468 -182 q 455 -122 468 -133 q 417 -111 442 -111 q 349 -126 385 -111 l 324 -107 l 342 -7 q 146 96 217 7 q 75 324 75 185 q 116 526 75 439 q 233 663 157 614 q 411 711 308 711 q 614 638 540 711 q 688 422 688 564 q 685 363 688 383 l 140 363 m 417 660 q 238 597 307 660 q 147 419 168 533 l 631 419 q 577 597 636 533 q 417 660 518 660 z "},"ê":{"ha":751,"x_min":75,"x_max":688,"o":"m 140 363 q 139 318 139 349 q 202 119 139 192 q 385 46 265 46 q 513 67 450 46 q 626 132 575 89 l 653 85 q 536 16 611 42 q 388 -10 461 -10 q 158 81 242 -10 q 75 324 75 171 q 116 526 75 439 q 233 663 157 614 q 411 711 308 711 q 614 638 540 711 q 688 422 688 564 q 685 363 688 383 l 140 363 m 417 660 q 238 597 307 660 q 147 419 168 533 l 631 419 q 577 597 636 533 q 417 660 518 660 m 247 786 l 426 1067 l 479 1067 l 613 786 l 543 786 l 449 1007 l 319 786 l 247 786 z "},"ế":{"ha":751,"x_min":75,"x_max":800,"o":"m 140 363 q 139 318 139 349 q 202 119 139 192 q 385 46 265 46 q 513 67 450 46 q 626 132 575 89 l 653 85 q 536 16 611 42 q 388 -10 461 -10 q 158 81 242 -10 q 75 324 75 171 q 116 526 75 439 q 233 663 157 614 q 411 711 308 711 q 614 638 540 711 q 688 422 688 564 q 685 363 688 383 l 140 363 m 417 660 q 238 597 307 660 q 147 419 168 533 l 631 419 q 577 597 636 533 q 417 660 518 660 m 553 928 l 710 1126 l 800 1126 l 603 928 l 553 928 m 247 786 l 422 999 l 472 999 l 613 786 l 543 786 l 446 947 l 321 786 l 247 786 z "},"ệ":{"ha":751,"x_min":75,"x_max":688,"o":"m 140 363 q 139 318 139 349 q 202 119 139 192 q 385 46 265 46 q 513 67 450 46 q 626 132 575 89 l 653 85 q 536 16 611 42 q 388 -10 461 -10 q 158 81 242 -10 q 75 324 75 171 q 116 526 75 439 q 233 663 157 614 q 411 711 308 711 q 614 638 540 711 q 688 422 688 564 q 685 363 688 383 l 140 363 m 417 660 q 238 597 307 660 q 147 419 168 533 l 631 419 q 577 597 636 533 q 417 660 518 660 m 419 -153 l 411 -243 l 318 -243 l 326 -153 l 419 -153 m 247 786 l 426 1067 l 479 1067 l 613 786 l 543 786 l 449 1007 l 319 786 l 247 786 z "},"ề":{"ha":751,"x_min":75,"x_max":688,"o":"m 140 363 q 139 318 139 349 q 202 119 139 192 q 385 46 265 46 q 513 67 450 46 q 626 132 575 89 l 653 85 q 536 16 611 42 q 388 -10 461 -10 q 158 81 242 -10 q 75 324 75 171 q 116 526 75 439 q 233 663 157 614 q 411 711 308 711 q 614 638 540 711 q 688 422 688 564 q 685 363 688 383 l 140 363 m 417 660 q 238 597 307 660 q 147 419 168 533 l 631 419 q 577 597 636 533 q 417 660 518 660 m 482 1126 l 564 1126 l 663 928 l 613 928 l 482 1126 m 422 999 l 472 999 l 613 786 l 543 786 l 446 947 l 321 786 l 247 786 l 422 999 z "},"ể":{"ha":751,"x_min":75,"x_max":725,"o":"m 140 363 q 139 318 139 349 q 202 119 139 192 q 385 46 265 46 q 513 67 450 46 q 626 132 575 89 l 653 85 q 536 16 611 42 q 388 -10 461 -10 q 158 81 242 -10 q 75 324 75 171 q 116 526 75 439 q 233 663 157 614 q 411 711 308 711 q 614 638 540 711 q 688 422 688 564 q 685 363 688 383 l 140 363 m 417 660 q 238 597 307 660 q 147 419 168 533 l 631 419 q 577 597 636 533 q 417 660 518 660 m 553 949 q 571 985 554 972 q 615 1010 588 999 q 647 1025 636 1018 q 657 1044 657 1032 q 640 1066 657 1058 q 596 1074 624 1074 q 506 1056 556 1074 l 494 1111 q 547 1128 518 1122 q 599 1133 575 1133 q 692 1111 658 1133 q 725 1051 725 1089 q 708 1009 725 1024 q 658 979 692 994 q 623 960 633 968 q 611 940 613 953 l 610 928 l 551 928 l 553 949 m 422 999 l 472 999 l 613 786 l 543 786 l 446 947 l 321 786 l 247 786 l 422 999 z "},"ễ":{"ha":751,"x_min":75,"x_max":688,"o":"m 140 363 q 139 318 139 349 q 202 119 139 192 q 385 46 265 46 q 513 67 450 46 q 626 132 575 89 l 653 85 q 536 16 611 42 q 388 -10 461 -10 q 158 81 242 -10 q 75 324 75 171 q 116 526 75 439 q 233 663 157 614 q 411 711 308 711 q 614 638 540 711 q 688 422 688 564 q 685 363 688 383 l 140 363 m 417 660 q 238 597 307 660 q 147 419 168 533 l 631 419 q 577 597 636 533 q 417 660 518 660 m 232 1017 q 268 1115 235 1079 q 354 1150 301 1150 q 410 1140 385 1150 q 475 1111 436 1131 q 521 1090 504 1097 q 554 1083 538 1083 q 606 1105 586 1083 q 628 1156 626 1126 l 676 1156 q 640 1058 674 1093 q 553 1022 607 1022 q 497 1033 524 1022 q 435 1063 469 1043 q 388 1085 406 1078 q 354 1092 371 1092 q 301 1069 321 1092 q 281 1017 281 1046 l 232 1017 m 422 999 l 472 999 l 613 786 l 543 786 l 446 947 l 321 786 l 247 786 l 422 999 z "},"ȅ":{"ha":751,"x_min":75,"x_max":688,"o":"m 140 363 q 139 318 139 349 q 202 119 139 192 q 385 46 265 46 q 513 67 450 46 q 626 132 575 89 l 653 85 q 536 16 611 42 q 388 -10 461 -10 q 158 81 242 -10 q 75 324 75 171 q 116 526 75 439 q 233 663 157 614 q 411 711 308 711 q 614 638 540 711 q 688 422 688 564 q 685 363 688 383 l 140 363 m 417 660 q 238 597 307 660 q 147 419 168 533 l 631 419 q 577 597 636 533 q 417 660 518 660 m 244 1067 l 321 1067 l 371 786 l 332 786 l 244 1067 m 401 1067 l 475 1067 l 526 786 l 488 786 l 401 1067 z "},"ë":{"ha":751,"x_min":75,"x_max":688,"o":"m 140 363 q 139 318 139 349 q 202 119 139 192 q 385 46 265 46 q 513 67 450 46 q 626 132 575 89 l 653 85 q 536 16 611 42 q 388 -10 461 -10 q 158 81 242 -10 q 75 324 75 171 q 116 526 75 439 q 233 663 157 614 q 411 711 308 711 q 614 638 540 711 q 688 422 688 564 q 685 363 688 383 l 140 363 m 417 660 q 238 597 307 660 q 147 419 168 533 l 631 419 q 577 597 636 533 q 417 660 518 660 m 375 969 l 369 885 l 283 885 l 290 969 l 375 969 m 601 969 l 596 885 l 508 885 l 514 969 l 601 969 z "},"ė":{"ha":751,"x_min":75,"x_max":688,"o":"m 140 363 q 139 318 139 349 q 202 119 139 192 q 385 46 265 46 q 513 67 450 46 q 626 132 575 89 l 653 85 q 536 16 611 42 q 388 -10 461 -10 q 158 81 242 -10 q 75 324 75 171 q 116 526 75 439 q 233 663 157 614 q 411 711 308 711 q 614 638 540 711 q 688 422 688 564 q 685 363 688 383 l 140 363 m 417 660 q 238 597 307 660 q 147 419 168 533 l 631 419 q 577 597 636 533 q 417 660 518 660 m 489 972 l 482 883 l 393 883 l 400 972 l 489 972 z "},"ẹ":{"ha":751,"x_min":75,"x_max":688,"o":"m 140 363 q 139 318 139 349 q 202 119 139 192 q 385 46 265 46 q 513 67 450 46 q 626 132 575 89 l 653 85 q 536 16 611 42 q 388 -10 461 -10 q 158 81 242 -10 q 75 324 75 171 q 116 526 75 439 q 233 663 157 614 q 411 711 308 711 q 614 638 540 711 q 688 422 688 564 q 685 363 688 383 l 140 363 m 417 660 q 238 597 307 660 q 147 419 168 533 l 631 419 q 577 597 636 533 q 417 660 518 660 m 419 -153 l 411 -243 l 318 -243 l 326 -153 l 419 -153 z "},"è":{"ha":751,"x_min":75,"x_max":688,"o":"m 140 363 q 139 318 139 349 q 202 119 139 192 q 385 46 265 46 q 513 67 450 46 q 626 132 575 89 l 653 85 q 536 16 611 42 q 388 -10 461 -10 q 158 81 242 -10 q 75 324 75 171 q 116 526 75 439 q 233 663 157 614 q 411 711 308 711 q 614 638 540 711 q 688 422 688 564 q 685 363 688 383 l 140 363 m 417 660 q 238 597 307 660 q 147 419 168 533 l 631 419 q 577 597 636 533 q 417 660 518 660 m 253 1067 l 335 1067 l 456 786 l 406 786 l 253 1067 z "},"ẻ":{"ha":751,"x_min":75,"x_max":688,"o":"m 140 363 q 139 318 139 349 q 202 119 139 192 q 385 46 265 46 q 513 67 450 46 q 626 132 575 89 l 653 85 q 536 16 611 42 q 388 -10 461 -10 q 158 81 242 -10 q 75 324 75 171 q 116 526 75 439 q 233 663 157 614 q 411 711 308 711 q 614 638 540 711 q 688 422 688 564 q 685 363 688 383 l 140 363 m 417 660 q 238 597 307 660 q 147 419 168 533 l 631 419 q 577 597 636 533 q 417 660 518 660 m 461 786 l 406 786 l 408 825 q 427 875 411 854 q 472 922 443 896 q 504 956 494 943 q 514 982 514 968 q 498 1006 514 997 q 454 1015 482 1015 q 363 999 421 1015 l 350 1051 q 458 1074 396 1074 q 547 1049 513 1074 q 581 986 581 1025 q 565 935 581 956 q 519 890 550 915 q 478 849 492 867 q 463 807 464 832 l 461 786 z "},"ȇ":{"ha":751,"x_min":75,"x_max":688,"o":"m 140 363 q 139 318 139 349 q 202 119 139 192 q 385 46 265 46 q 513 67 450 46 q 626 132 575 89 l 653 85 q 536 16 611 42 q 388 -10 461 -10 q 158 81 242 -10 q 75 324 75 171 q 116 526 75 439 q 233 663 157 614 q 411 711 308 711 q 614 638 540 711 q 688 422 688 564 q 685 363 688 383 l 140 363 m 417 660 q 238 597 307 660 q 147 419 168 533 l 631 419 q 577 597 636 533 q 417 660 518 660 m 449 1021 q 574 981 519 1021 q 650 858 628 942 l 593 833 q 533 935 569 904 q 446 965 496 965 q 351 935 393 965 q 276 833 310 906 l 219 857 q 449 1021 294 1021 z "},"ē":{"ha":751,"x_min":75,"x_max":688,"o":"m 140 363 q 139 318 139 349 q 202 119 139 192 q 385 46 265 46 q 513 67 450 46 q 626 132 575 89 l 653 85 q 536 16 611 42 q 388 -10 461 -10 q 158 81 242 -10 q 75 324 75 171 q 116 526 75 439 q 233 663 157 614 q 411 711 308 711 q 614 638 540 711 q 688 422 688 564 q 685 363 688 383 l 140 363 m 417 660 q 238 597 307 660 q 147 419 168 533 l 631 419 q 577 597 636 533 q 417 660 518 660 m 239 958 l 647 958 l 643 897 l 233 897 l 239 958 z "},"ḗ":{"ha":751,"x_min":75,"x_max":688,"o":"m 140 363 q 139 318 139 349 q 202 119 139 192 q 385 46 265 46 q 513 67 450 46 q 626 132 575 89 l 653 85 q 536 16 611 42 q 388 -10 461 -10 q 158 81 242 -10 q 75 324 75 171 q 116 526 75 439 q 233 663 157 614 q 411 711 308 711 q 614 638 540 711 q 688 422 688 564 q 685 363 688 383 l 140 363 m 417 660 q 238 597 307 660 q 147 419 168 533 l 631 419 q 577 597 636 533 q 417 660 518 660 m 239 958 l 647 958 l 643 897 l 233 897 l 239 958 m 426 1060 l 588 1340 l 678 1340 l 476 1060 l 426 1060 z "},"ḕ":{"ha":751,"x_min":75,"x_max":688,"o":"m 140 363 q 139 318 139 349 q 202 119 139 192 q 385 46 265 46 q 513 67 450 46 q 626 132 575 89 l 653 85 q 536 16 611 42 q 388 -10 461 -10 q 158 81 242 -10 q 75 324 75 171 q 116 526 75 439 q 233 663 157 614 q 411 711 308 711 q 614 638 540 711 q 688 422 688 564 q 685 363 688 383 l 140 363 m 417 660 q 238 597 307 660 q 147 419 168 533 l 631 419 q 577 597 636 533 q 417 660 518 660 m 239 958 l 647 958 l 643 897 l 233 897 l 239 958 m 274 1340 l 356 1340 l 476 1060 l 426 1060 l 274 1340 z "},"ę":{"ha":751,"x_min":75,"x_max":688,"o":"m 140 363 q 139 318 139 349 q 202 119 139 192 q 385 46 265 46 q 626 132 524 46 l 653 85 q 572 32 624 53 q 457 -43 488 -4 q 426 -126 426 -82 q 450 -196 426 -172 q 517 -219 474 -219 q 606 -189 558 -219 l 625 -240 q 575 -263 606 -254 q 513 -272 544 -272 q 403 -235 444 -272 q 363 -136 363 -197 q 378 -62 363 -96 q 422 -7 394 -29 q 388 -10 400 -10 q 158 81 242 -10 q 75 324 75 171 q 116 526 75 439 q 233 663 157 614 q 411 711 308 711 q 613 637 539 711 q 688 421 688 563 q 685 363 688 404 l 140 363 m 417 660 q 241 601 313 660 q 147 419 169 542 l 631 419 q 577 597 636 533 q 417 660 518 660 z "},"ẽ":{"ha":751,"x_min":75,"x_max":688,"o":"m 140 363 q 139 318 139 349 q 202 119 139 192 q 385 46 265 46 q 513 67 450 46 q 626 132 575 89 l 653 85 q 536 16 611 42 q 388 -10 461 -10 q 158 81 242 -10 q 75 324 75 171 q 116 526 75 439 q 233 663 157 614 q 411 711 308 711 q 614 638 540 711 q 688 422 688 564 q 685 363 688 383 l 140 363 m 417 660 q 238 597 307 660 q 147 419 168 533 l 631 419 q 577 597 636 533 q 417 660 518 660 m 219 863 q 256 963 222 928 q 342 999 289 999 q 397 986 371 999 q 460 950 424 974 q 508 922 490 931 q 542 914 525 914 q 594 936 575 914 q 615 994 614 958 l 661 994 q 627 894 660 929 q 542 858 594 858 q 485 871 513 858 q 425 907 458 883 q 377 935 394 926 q 343 943 360 943 q 290 921 310 943 q 268 863 271 899 l 219 863 z "},"ə":{"ha":753,"x_min":65,"x_max":678,"o":"m 364 711 q 594 621 510 711 q 678 378 678 531 q 639 175 678 263 q 528 39 600 88 q 357 -10 456 -10 q 142 64 218 -10 q 65 278 65 138 q 68 339 65 318 l 614 339 q 615 383 615 353 q 549 583 615 511 q 365 656 483 656 q 240 634 301 656 q 126 568 178 613 l 100 618 q 217 686 143 661 q 364 711 290 711 m 353 43 q 520 106 454 43 q 607 282 586 169 l 121 282 q 178 106 117 168 q 353 43 240 43 z "},"f":{"ha":432,"x_min":36,"x_max":450,"o":"m 233 694 l 447 694 l 442 646 l 229 646 l 179 0 l 122 0 l 172 646 l 36 646 l 40 694 l 176 694 l 188 838 q 246 981 196 933 q 374 1028 296 1028 q 450 1017 408 1028 l 444 961 q 379 972 407 972 q 285 939 321 972 q 243 818 250 906 l 233 694 z "},"g":{"ha":815,"x_min":76,"x_max":719,"o":"m 719 694 l 663 -11 q 368 -310 639 -310 q 226 -290 290 -310 q 101 -231 161 -271 l 121 -175 q 240 -237 186 -219 q 368 -254 294 -254 q 608 -10 586 -254 l 622 165 q 523 59 589 97 q 379 21 457 21 q 158 108 240 21 q 76 343 76 196 q 117 536 76 453 q 231 665 157 619 q 401 711 304 711 q 557 672 492 711 q 653 561 622 633 l 663 694 l 719 694 m 381 78 q 569 163 500 78 q 639 396 639 247 q 575 588 639 519 q 396 656 511 656 q 206 571 275 656 q 138 338 138 486 q 200 144 138 211 q 381 78 263 78 z "},"ğ":{"ha":815,"x_min":76,"x_max":719,"o":"m 719 694 l 663 -11 q 368 -310 639 -310 q 226 -290 290 -310 q 101 -231 161 -271 l 121 -175 q 240 -237 186 -219 q 368 -254 294 -254 q 608 -10 586 -254 l 622 165 q 523 59 589 97 q 379 21 457 21 q 158 108 240 21 q 76 343 76 196 q 117 536 76 453 q 231 665 157 619 q 401 711 304 711 q 557 672 492 711 q 653 561 622 633 l 663 694 l 719 694 m 381 78 q 569 163 500 78 q 639 396 639 247 q 575 588 639 519 q 396 656 511 656 q 206 571 275 656 q 138 338 138 486 q 200 144 138 211 q 381 78 263 78 m 449 835 q 325 874 379 835 q 246 997 271 914 l 306 1021 q 366 921 329 951 q 453 890 403 890 q 546 920 504 890 q 621 1021 588 950 l 676 999 q 449 835 606 835 z "},"ǧ":{"ha":815,"x_min":76,"x_max":719,"o":"m 719 694 l 663 -11 q 368 -310 639 -310 q 226 -290 290 -310 q 101 -231 161 -271 l 121 -175 q 240 -237 186 -219 q 368 -254 294 -254 q 608 -10 586 -254 l 622 165 q 523 59 589 97 q 379 21 457 21 q 158 108 240 21 q 76 343 76 196 q 117 536 76 453 q 231 665 157 619 q 401 711 304 711 q 557 672 492 711 q 653 561 622 633 l 663 694 l 719 694 m 381 78 q 569 163 500 78 q 639 396 639 247 q 575 588 639 519 q 396 656 511 656 q 206 571 275 656 q 138 338 138 486 q 200 144 138 211 q 381 78 263 78 m 650 1067 l 472 786 l 419 786 l 286 1067 l 356 1067 l 449 844 l 579 1067 l 650 1067 z "},"ĝ":{"ha":815,"x_min":76,"x_max":719,"o":"m 719 694 l 663 -11 q 368 -310 639 -310 q 226 -290 290 -310 q 101 -231 161 -271 l 121 -175 q 240 -237 186 -219 q 368 -254 294 -254 q 608 -10 586 -254 l 622 165 q 523 59 589 97 q 379 21 457 21 q 158 108 240 21 q 76 343 76 196 q 117 536 76 453 q 231 665 157 619 q 401 711 304 711 q 557 672 492 711 q 653 561 622 633 l 663 694 l 719 694 m 381 78 q 569 163 500 78 q 639 396 639 247 q 575 588 639 519 q 396 656 511 656 q 206 571 275 656 q 138 338 138 486 q 200 144 138 211 q 381 78 263 78 m 263 786 l 442 1067 l 494 1067 l 628 786 l 558 786 l 464 1007 l 335 786 l 263 786 z "},"ģ":{"ha":815,"x_min":76,"x_max":719,"o":"m 719 694 l 663 -11 q 368 -310 639 -310 q 226 -290 290 -310 q 101 -231 161 -271 l 121 -175 q 240 -237 186 -219 q 368 -254 294 -254 q 608 -10 586 -254 l 622 165 q 523 59 589 97 q 379 21 457 21 q 158 108 240 21 q 76 343 76 196 q 117 536 76 453 q 231 665 157 619 q 401 711 304 711 q 557 672 492 711 q 653 561 622 633 l 663 694 l 719 694 m 381 78 q 569 163 500 78 q 639 396 639 247 q 575 588 639 519 q 396 656 511 656 q 206 571 275 656 q 138 338 138 486 q 200 144 138 211 q 381 78 263 78 m 519 1040 q 476 981 488 1008 q 460 917 464 953 l 504 917 l 499 826 l 400 826 l 406 901 q 428 994 410 953 q 483 1072 446 1035 l 519 1040 z "},"ġ":{"ha":815,"x_min":76,"x_max":719,"o":"m 719 694 l 663 -11 q 368 -310 639 -310 q 226 -290 290 -310 q 101 -231 161 -271 l 121 -175 q 240 -237 186 -219 q 368 -254 294 -254 q 608 -10 586 -254 l 622 165 q 523 59 589 97 q 379 21 457 21 q 158 108 240 21 q 76 343 76 196 q 117 536 76 453 q 231 665 157 619 q 401 711 304 711 q 557 672 492 711 q 653 561 622 633 l 663 694 l 719 694 m 381 78 q 569 163 500 78 q 639 396 639 247 q 575 588 639 519 q 396 656 511 656 q 206 571 275 656 q 138 338 138 486 q 200 144 138 211 q 381 78 263 78 m 504 972 l 497 883 l 408 883 l 415 972 l 504 972 z "},"ḡ":{"ha":815,"x_min":76,"x_max":719,"o":"m 719 694 l 663 -11 q 368 -310 639 -310 q 226 -290 290 -310 q 101 -231 161 -271 l 121 -175 q 240 -237 186 -219 q 368 -254 294 -254 q 608 -10 586 -254 l 622 165 q 523 59 589 97 q 379 21 457 21 q 158 108 240 21 q 76 343 76 196 q 117 536 76 453 q 231 665 157 619 q 401 711 304 711 q 557 672 492 711 q 653 561 622 633 l 663 694 l 719 694 m 381 78 q 569 163 500 78 q 639 396 639 247 q 575 588 639 519 q 396 656 511 656 q 206 571 275 656 q 138 338 138 486 q 200 144 138 211 q 381 78 263 78 m 254 958 l 663 958 l 658 897 l 249 897 l 254 958 z "},"h":{"ha":792,"x_min":94,"x_max":681,"o":"m 439 711 q 619 653 557 711 q 681 481 681 594 q 679 444 681 457 l 644 0 l 588 0 l 624 439 q 625 472 625 450 q 581 612 625 567 q 444 657 536 657 q 262 590 331 657 q 185 404 193 522 l 153 0 l 94 0 l 175 1022 l 233 1022 l 197 576 q 295 676 232 642 q 439 711 358 711 z "},"ħ":{"ha":792,"x_min":19,"x_max":681,"o":"m 439 711 q 619 653 557 711 q 681 481 681 594 q 679 444 681 457 l 644 0 l 588 0 l 624 439 q 625 472 625 450 q 581 612 625 567 q 444 657 536 657 q 262 590 331 657 q 185 404 193 522 l 153 0 l 94 0 l 158 815 l 19 815 l 26 865 l 163 865 l 174 1010 l 232 1010 l 221 865 l 503 865 l 497 815 l 217 815 l 197 576 q 295 676 232 642 q 439 711 358 711 z "},"ḫ":{"ha":792,"x_min":94,"x_max":681,"o":"m 439 711 q 619 653 557 711 q 681 481 681 594 q 679 444 681 457 l 644 0 l 588 0 l 624 439 q 625 472 625 450 q 581 612 625 567 q 444 657 536 657 q 262 590 331 657 q 185 404 193 522 l 153 0 l 94 0 l 175 1022 l 233 1022 l 197 576 q 295 676 232 642 q 439 711 358 711 m 349 -283 q 224 -244 279 -283 q 146 -121 169 -204 l 204 -97 q 265 -197 228 -167 q 351 -228 301 -228 q 445 -198 403 -228 q 519 -97 488 -168 l 576 -119 q 349 -283 504 -283 z "},"ĥ":{"ha":792,"x_min":28,"x_max":681,"o":"m 439 711 q 619 653 557 711 q 681 481 681 594 q 679 444 681 457 l 644 0 l 588 0 l 624 439 q 625 472 625 450 q 581 612 625 567 q 444 657 536 657 q 262 590 331 657 q 185 404 193 522 l 153 0 l 94 0 l 175 1022 l 233 1022 l 197 576 q 295 676 232 642 q 439 711 358 711 m 28 1107 l 201 1315 l 251 1315 l 392 1107 l 322 1107 l 225 1265 l 100 1107 l 28 1107 z "},"ḥ":{"ha":792,"x_min":94,"x_max":681,"o":"m 439 711 q 619 653 557 711 q 681 481 681 594 q 679 444 681 457 l 644 0 l 588 0 l 624 439 q 625 472 625 450 q 581 612 625 567 q 444 657 536 657 q 262 590 331 657 q 185 404 193 522 l 153 0 l 94 0 l 175 1022 l 233 1022 l 197 576 q 295 676 232 642 q 439 711 358 711 m 407 -153 l 399 -243 l 306 -243 l 314 -153 l 407 -153 z "},"i":{"ha":303,"x_min":96,"x_max":244,"o":"m 151 694 l 210 694 l 154 0 l 96 0 l 151 694 m 244 972 l 238 883 l 149 883 l 156 972 l 244 972 z "},"ı":{"ha":303,"x_min":96,"x_max":210,"o":"m 151 694 l 210 694 l 154 0 l 96 0 l 151 694 z "},"í":{"ha":303,"x_min":96,"x_max":413,"o":"m 151 694 l 210 694 l 154 0 l 96 0 l 151 694 m 161 786 l 322 1067 l 413 1067 l 211 786 l 161 786 z "},"ĭ":{"ha":303,"x_min":-14,"x_max":417,"o":"m 151 694 l 210 694 l 154 0 l 96 0 l 151 694 m 189 835 q 65 874 119 835 q -14 997 11 914 l 46 1021 q 106 921 69 951 q 193 890 143 890 q 286 920 244 890 q 361 1021 328 950 l 417 999 q 189 835 346 835 z "},"î":{"ha":303,"x_min":3,"x_max":368,"o":"m 151 694 l 210 694 l 154 0 l 96 0 l 151 694 m 3 786 l 182 1067 l 235 1067 l 368 786 l 299 786 l 204 1007 l 75 786 l 3 786 z "},"ȉ":{"ha":303,"x_min":0,"x_max":282,"o":"m 151 694 l 210 694 l 154 0 l 96 0 l 151 694 m 0 1067 l 76 1067 l 126 786 l 88 786 l 0 1067 m 157 1067 l 231 1067 l 282 786 l 243 786 l 157 1067 z "},"ï":{"ha":303,"x_min":39,"x_max":357,"o":"m 151 694 l 210 694 l 154 0 l 96 0 l 151 694 m 131 969 l 125 885 l 39 885 l 46 969 l 131 969 m 357 969 l 351 885 l 264 885 l 269 969 l 357 969 z "},"ḯ":{"ha":303,"x_min":39,"x_max":433,"o":"m 151 694 l 210 694 l 154 0 l 96 0 l 151 694 m 131 969 l 125 885 l 39 885 l 46 969 l 131 969 m 357 969 l 351 885 l 264 885 l 269 969 l 357 969 m 182 1060 l 343 1340 l 433 1340 l 232 1060 l 182 1060 z "},"ị":{"ha":303,"x_min":57,"x_max":244,"o":"m 151 694 l 210 694 l 154 0 l 96 0 l 151 694 m 244 972 l 238 883 l 149 883 l 156 972 l 244 972 m 158 -153 l 150 -243 l 57 -243 l 65 -153 l 158 -153 z "},"ì":{"ha":303,"x_min":8,"x_max":211,"o":"m 151 694 l 210 694 l 154 0 l 96 0 l 151 694 m 8 1067 l 90 1067 l 211 786 l 161 786 l 8 1067 z "},"ỉ":{"ha":303,"x_min":96,"x_max":336,"o":"m 151 694 l 210 694 l 154 0 l 96 0 l 151 694 m 217 786 l 161 786 l 164 825 q 183 875 167 854 q 228 922 199 896 q 260 956 250 943 q 269 982 269 968 q 253 1006 269 997 q 210 1015 238 1015 q 118 999 176 1015 l 106 1051 q 214 1074 151 1074 q 302 1049 268 1074 q 336 986 336 1025 q 321 935 336 956 q 275 890 306 915 q 233 849 247 867 q 218 807 219 832 l 217 786 z "},"ȋ":{"ha":303,"x_min":-25,"x_max":406,"o":"m 151 694 l 210 694 l 154 0 l 96 0 l 151 694 m 204 1021 q 329 981 275 1021 q 406 858 383 942 l 349 833 q 288 935 325 904 q 201 965 251 965 q 107 935 149 965 q 32 833 65 906 l -25 857 q 204 1021 50 1021 z "},"ī":{"ha":303,"x_min":-11,"x_max":403,"o":"m 151 694 l 210 694 l 154 0 l 96 0 l 151 694 m -6 958 l 403 958 l 399 897 l -11 897 l -6 958 z "},"į":{"ha":301,"x_min":-58,"x_max":244,"o":"m 244 978 l 238 889 l 147 889 l 157 978 l 244 978 m 149 0 q 38 -35 74 0 q 3 -124 3 -71 q 26 -195 3 -171 q 96 -219 50 -219 q 138 -212 114 -219 q 185 -189 163 -204 l 203 -240 q 153 -263 183 -254 q 90 -272 122 -272 q -18 -235 22 -272 q -58 -132 -58 -197 q -18 -17 -58 -67 q 99 50 22 32 l 150 694 l 208 694 l 153 0 l 149 0 z "},"ĩ":{"ha":303,"x_min":-25,"x_max":417,"o":"m 151 694 l 210 694 l 154 0 l 96 0 l 151 694 m -25 863 q 11 963 -22 928 q 97 999 44 999 q 153 986 126 999 q 215 950 179 974 q 263 922 246 931 q 297 914 281 914 q 350 936 331 914 q 371 994 369 958 l 417 994 q 383 894 415 929 q 297 858 350 858 q 241 871 268 858 q 181 907 214 883 q 133 935 150 926 q 99 943 115 943 q 46 921 65 943 q 24 863 26 899 l -25 863 z "},"j":{"ha":303,"x_min":-119,"x_max":244,"o":"m -115 -237 q -49 -249 -78 -249 q 44 -215 10 -249 q 86 -93 79 -182 l 150 694 l 207 694 l 142 -114 q 83 -256 133 -210 q -44 -303 33 -303 q -119 -293 -74 -303 l -115 -237 m 244 972 l 238 883 l 149 883 l 156 972 l 244 972 z "},"ȷ":{"ha":303,"x_min":-119,"x_max":207,"o":"m -115 -237 q -49 -249 -78 -249 q 44 -215 10 -249 q 86 -93 79 -182 l 150 694 l 207 694 l 142 -114 q 83 -256 133 -210 q -44 -303 33 -303 q -119 -293 -74 -303 l -115 -237 z "},"ĵ":{"ha":303,"x_min":-119,"x_max":368,"o":"m -115 -237 q -49 -249 -78 -249 q 44 -215 10 -249 q 86 -93 79 -182 l 150 694 l 207 694 l 142 -114 q 83 -256 133 -210 q -44 -303 33 -303 q -119 -293 -74 -303 l -115 -237 m 3 786 l 182 1067 l 235 1067 l 368 786 l 299 786 l 204 1007 l 75 786 l 3 786 z "},"k":{"ha":669,"x_min":94,"x_max":653,"o":"m 249 360 l 640 0 l 563 0 l 179 350 l 151 0 l 94 0 l 175 1022 l 232 1022 l 181 368 l 569 694 l 653 694 l 249 360 z "},"ķ":{"ha":669,"x_min":94,"x_max":653,"o":"m 249 360 l 640 0 l 563 0 l 179 350 l 151 0 l 94 0 l 175 1022 l 232 1022 l 181 368 l 569 694 l 653 694 l 249 360 m 349 -107 l 343 -182 q 321 -274 339 -232 q 265 -351 303 -315 l 229 -321 q 273 -261 261 -289 q 289 -197 285 -233 l 244 -197 l 250 -107 l 349 -107 z "},"ĸ":{"ha":669,"x_min":94,"x_max":653,"o":"m 249 360 l 640 0 l 563 0 l 179 350 l 153 0 l 94 0 l 149 694 l 206 694 l 181 368 l 569 694 l 653 694 l 249 360 z "},"l":{"ha":303,"x_min":94,"x_max":235,"o":"m 176 1022 l 235 1022 l 153 0 l 94 0 l 176 1022 z "},"ĺ":{"ha":303,"x_min":94,"x_max":431,"o":"m 176 1022 l 235 1022 l 153 0 l 94 0 l 176 1022 m 186 1107 l 340 1315 l 431 1315 l 236 1107 l 186 1107 z "},"ľ":{"ha":303,"x_min":94,"x_max":371,"o":"m 176 1022 l 235 1022 l 153 0 l 94 0 l 176 1022 m 272 753 l 290 1022 l 371 1022 l 314 753 l 272 753 z "},"ļ":{"ha":303,"x_min":46,"x_max":235,"o":"m 176 1022 l 235 1022 l 153 0 l 94 0 l 176 1022 m 165 -107 l 160 -182 q 138 -274 156 -232 q 82 -351 119 -315 l 46 -321 q 90 -261 78 -289 q 106 -197 101 -233 l 61 -197 l 67 -107 l 165 -107 z "},"ŀ":{"ha":285,"x_min":94,"x_max":338,"o":"m 176 1022 l 235 1022 l 153 0 l 94 0 l 176 1022 m 338 546 l 329 450 l 232 450 l 240 546 l 338 546 z "},"ḷ":{"ha":303,"x_min":58,"x_max":235,"o":"m 176 1022 l 235 1022 l 153 0 l 94 0 l 176 1022 m 160 -153 l 151 -243 l 58 -243 l 67 -153 l 160 -153 z "},"ǉ":{"ha":606,"x_min":94,"x_max":547,"o":"m 176 1022 l 235 1022 l 153 0 l 94 0 l 176 1022 m 188 -237 q 254 -249 225 -249 q 347 -215 313 -249 q 389 -93 382 -182 l 453 694 l 510 694 l 444 -114 q 386 -256 436 -210 q 258 -303 336 -303 q 183 -293 229 -303 l 188 -237 m 547 972 l 540 883 l 451 883 l 458 972 l 547 972 z "},"ḻ":{"ha":303,"x_min":-99,"x_max":317,"o":"m 176 1022 l 235 1022 l 153 0 l 94 0 l 176 1022 m -93 -167 l 317 -167 l 311 -228 l -99 -228 l -93 -167 z "},"ł":{"ha":347,"x_min":4,"x_max":369,"o":"m 213 497 l 174 0 l 118 0 l 154 465 l 29 396 l 4 442 l 160 528 l 199 1024 l 254 1024 l 218 560 l 343 629 l 369 583 l 213 497 z "},"m":{"ha":1194,"x_min":94,"x_max":1083,"o":"m 867 711 q 1028 655 974 711 q 1083 488 1083 599 q 1082 444 1083 460 l 1047 0 l 992 0 l 1026 439 q 1028 481 1028 454 q 989 614 1028 571 q 868 657 950 657 q 702 591 764 657 q 632 406 640 525 l 600 0 l 543 0 l 578 439 q 579 481 579 454 q 540 614 579 571 q 419 657 501 657 q 255 591 317 657 q 185 406 193 525 l 153 0 l 94 0 l 135 503 q 140 642 140 592 q 139 694 140 676 l 192 694 l 193 571 q 281 676 224 640 q 419 711 339 711 q 628 578 589 711 q 724 676 661 642 q 867 711 786 711 z "},"ṃ":{"ha":1194,"x_min":94,"x_max":1083,"o":"m 867 711 q 1028 655 974 711 q 1083 488 1083 599 q 1082 444 1083 460 l 1047 0 l 992 0 l 1026 439 q 1028 481 1028 454 q 989 614 1028 571 q 868 657 950 657 q 702 591 764 657 q 632 406 640 525 l 600 0 l 543 0 l 578 439 q 579 481 579 454 q 540 614 579 571 q 419 657 501 657 q 255 591 317 657 q 185 406 193 525 l 153 0 l 94 0 l 135 503 q 140 642 140 592 q 139 694 140 676 l 192 694 l 193 571 q 281 676 224 640 q 419 711 339 711 q 628 578 589 711 q 724 676 661 642 q 867 711 786 711 m 608 -153 l 600 -243 l 507 -243 l 515 -153 l 608 -153 z "},"n":{"ha":792,"x_min":94,"x_max":681,"o":"m 439 711 q 619 653 557 711 q 681 481 681 594 q 679 444 681 457 l 644 0 l 588 0 l 624 439 q 625 472 625 450 q 581 612 625 567 q 444 657 536 657 q 262 590 331 657 q 185 404 193 522 l 153 0 l 94 0 l 135 503 q 140 631 140 560 q 139 694 140 674 l 192 694 l 193 568 q 292 674 226 638 q 439 711 357 711 z "},"ń":{"ha":792,"x_min":94,"x_max":681,"o":"m 439 711 q 619 653 557 711 q 681 481 681 594 q 679 444 681 457 l 644 0 l 588 0 l 624 439 q 625 472 625 450 q 581 612 625 567 q 444 657 536 657 q 262 590 331 657 q 185 404 193 522 l 153 0 l 94 0 l 135 503 q 140 631 140 560 q 139 694 140 674 l 192 694 l 193 568 q 292 674 226 638 q 439 711 357 711 m 407 786 l 568 1067 l 658 1067 l 457 786 l 407 786 z "},"ŉ":{"ha":792,"x_min":94,"x_max":681,"o":"m 310 1053 l 304 976 q 284 885 301 926 q 228 808 267 843 l 192 838 q 236 897 224 868 q 253 961 249 926 l 207 961 l 213 1053 l 310 1053 m 439 711 q 619 653 557 711 q 681 481 681 594 q 679 444 681 457 l 644 0 l 588 0 l 624 439 q 625 472 625 450 q 581 612 625 567 q 444 657 536 657 q 262 590 331 657 q 185 404 193 522 l 153 0 l 94 0 l 135 503 q 140 631 140 560 q 139 694 140 674 l 192 694 l 193 568 q 292 674 226 638 q 439 711 357 711 z "},"ň":{"ha":792,"x_min":94,"x_max":681,"o":"m 439 711 q 619 653 557 711 q 681 481 681 594 q 679 444 681 457 l 644 0 l 588 0 l 624 439 q 625 472 625 450 q 581 612 625 567 q 444 657 536 657 q 262 590 331 657 q 185 404 193 522 l 153 0 l 94 0 l 135 503 q 140 631 140 560 q 139 694 140 674 l 192 694 l 193 568 q 292 674 226 638 q 439 711 357 711 m 636 1067 l 458 786 l 406 786 l 272 1067 l 342 1067 l 435 844 l 565 1067 l 636 1067 z "},"ņ":{"ha":792,"x_min":94,"x_max":681,"o":"m 439 711 q 619 653 557 711 q 681 481 681 594 q 679 444 681 457 l 644 0 l 588 0 l 624 439 q 625 472 625 450 q 581 612 625 567 q 444 657 536 657 q 262 590 331 657 q 185 404 193 522 l 153 0 l 94 0 l 135 503 q 140 631 140 560 q 139 694 140 674 l 192 694 l 193 568 q 292 674 226 638 q 439 711 357 711 m 413 -107 l 407 -182 q 385 -274 403 -232 q 329 -351 367 -315 l 293 -321 q 337 -261 325 -289 q 353 -197 349 -233 l 308 -197 l 314 -107 l 413 -107 z "},"ṅ":{"ha":792,"x_min":94,"x_max":681,"o":"m 439 711 q 619 653 557 711 q 681 481 681 594 q 679 444 681 457 l 644 0 l 588 0 l 624 439 q 625 472 625 450 q 581 612 625 567 q 444 657 536 657 q 262 590 331 657 q 185 404 193 522 l 153 0 l 94 0 l 135 503 q 140 631 140 560 q 139 694 140 674 l 192 694 l 193 568 q 292 674 226 638 q 439 711 357 711 m 490 972 l 483 883 l 394 883 l 401 972 l 490 972 z "},"ṇ":{"ha":792,"x_min":94,"x_max":681,"o":"m 439 711 q 619 653 557 711 q 681 481 681 594 q 679 444 681 457 l 644 0 l 588 0 l 624 439 q 625 472 625 450 q 581 612 625 567 q 444 657 536 657 q 262 590 331 657 q 185 404 193 522 l 153 0 l 94 0 l 135 503 q 140 631 140 560 q 139 694 140 674 l 192 694 l 193 568 q 292 674 226 638 q 439 711 357 711 m 407 -153 l 399 -243 l 306 -243 l 314 -153 l 407 -153 z "},"ŋ":{"ha":792,"x_min":94,"x_max":681,"o":"m 439 711 q 619 653 557 711 q 681 481 681 594 q 679 444 681 457 l 640 -72 q 582 -215 633 -168 q 453 -261 531 -261 q 379 -251 421 -261 l 383 -196 q 447 -207 417 -207 q 544 -174 508 -207 q 585 -51 579 -140 l 624 439 q 625 472 625 450 q 581 612 625 567 q 444 657 536 657 q 262 590 331 657 q 185 404 193 522 l 153 0 l 94 0 l 135 503 q 140 631 140 560 q 139 694 140 674 l 192 694 l 193 568 q 292 674 226 638 q 439 711 357 711 z "},"ǌ":{"ha":1094,"x_min":94,"x_max":1036,"o":"m 439 711 q 619 653 557 711 q 681 481 681 594 q 679 444 681 457 l 644 0 l 588 0 l 624 439 q 625 472 625 450 q 581 612 625 567 q 444 657 536 657 q 262 590 331 657 q 185 404 193 522 l 153 0 l 94 0 l 135 503 q 140 631 140 560 q 139 694 140 674 l 192 694 l 193 568 q 292 674 226 638 q 439 711 357 711 m 676 -237 q 743 -249 714 -249 q 836 -215 801 -249 q 878 -93 871 -182 l 942 694 l 999 694 l 933 -114 q 875 -256 925 -210 q 747 -303 825 -303 q 672 -293 718 -303 l 676 -237 m 1036 972 l 1029 883 l 940 883 l 947 972 l 1036 972 z "},"ṉ":{"ha":792,"x_min":94,"x_max":681,"o":"m 439 711 q 619 653 557 711 q 681 481 681 594 q 679 444 681 457 l 644 0 l 588 0 l 624 439 q 625 472 625 450 q 581 612 625 567 q 444 657 536 657 q 262 590 331 657 q 185 404 193 522 l 153 0 l 94 0 l 135 503 q 140 631 140 560 q 139 694 140 674 l 192 694 l 193 568 q 292 674 226 638 q 439 711 357 711 m 154 -167 l 564 -167 l 558 -228 l 149 -228 l 154 -167 z "},"ñ":{"ha":792,"x_min":94,"x_max":681,"o":"m 439 711 q 619 653 557 711 q 681 481 681 594 q 679 444 681 457 l 644 0 l 588 0 l 624 439 q 625 472 625 450 q 581 612 625 567 q 444 657 536 657 q 262 590 331 657 q 185 404 193 522 l 153 0 l 94 0 l 135 503 q 140 631 140 560 q 139 694 140 674 l 192 694 l 193 568 q 292 674 226 638 q 439 711 357 711 m 221 863 q 257 963 224 928 q 343 999 290 999 q 399 986 372 999 q 461 950 425 974 q 509 922 492 931 q 543 914 526 914 q 596 936 576 914 q 617 994 615 958 l 663 994 q 628 894 661 929 q 543 858 596 858 q 487 871 514 858 q 426 907 460 883 q 378 935 396 926 q 344 943 361 943 q 292 921 311 943 q 269 863 272 899 l 221 863 z "},"o":{"ha":768,"x_min":75,"x_max":693,"o":"m 374 -10 q 216 31 283 -10 q 112 148 149 72 q 75 324 75 224 q 115 526 75 439 q 227 663 154 614 q 396 711 300 711 q 552 670 485 711 q 656 553 619 629 q 693 376 693 478 q 653 174 693 261 q 540 38 613 86 q 374 -10 468 -10 m 379 46 q 564 134 496 46 q 632 381 632 222 q 569 583 632 510 q 393 656 506 656 q 206 566 275 656 q 136 319 136 476 q 199 117 136 188 q 379 46 261 46 z "},"ó":{"ha":768,"x_min":75,"x_max":693,"o":"m 374 -10 q 216 31 283 -10 q 112 148 149 72 q 75 324 75 224 q 115 526 75 439 q 227 663 154 614 q 396 711 300 711 q 552 670 485 711 q 656 553 619 629 q 693 376 693 478 q 653 174 693 261 q 540 38 613 86 q 374 -10 468 -10 m 379 46 q 564 134 496 46 q 632 381 632 222 q 569 583 632 510 q 393 656 506 656 q 206 566 275 656 q 136 319 136 476 q 199 117 136 188 q 379 46 261 46 m 394 786 l 556 1067 l 646 1067 l 444 786 l 394 786 z "},"ŏ":{"ha":768,"x_min":75,"x_max":693,"o":"m 374 -10 q 216 31 283 -10 q 112 148 149 72 q 75 324 75 224 q 115 526 75 439 q 227 663 154 614 q 396 711 300 711 q 552 670 485 711 q 656 553 619 629 q 693 376 693 478 q 653 174 693 261 q 540 38 613 86 q 374 -10 468 -10 m 379 46 q 564 134 496 46 q 632 381 632 222 q 569 583 632 510 q 393 656 506 656 q 206 566 275 656 q 136 319 136 476 q 199 117 136 188 q 379 46 261 46 m 422 835 q 299 874 353 835 q 219 997 244 914 l 279 1021 q 340 921 303 951 q 426 890 376 890 q 519 920 478 890 q 594 1021 561 950 l 650 999 q 422 835 579 835 z "},"ô":{"ha":768,"x_min":75,"x_max":693,"o":"m 374 -10 q 216 31 283 -10 q 112 148 149 72 q 75 324 75 224 q 115 526 75 439 q 227 663 154 614 q 396 711 300 711 q 552 670 485 711 q 656 553 619 629 q 693 376 693 478 q 653 174 693 261 q 540 38 613 86 q 374 -10 468 -10 m 379 46 q 564 134 496 46 q 632 381 632 222 q 569 583 632 510 q 393 656 506 656 q 206 566 275 656 q 136 319 136 476 q 199 117 136 188 q 379 46 261 46 m 236 786 l 415 1067 l 468 1067 l 601 786 l 532 786 l 438 1007 l 308 786 l 236 786 z "},"ố":{"ha":768,"x_min":75,"x_max":789,"o":"m 374 -10 q 216 31 283 -10 q 112 148 149 72 q 75 324 75 224 q 115 526 75 439 q 227 663 154 614 q 396 711 300 711 q 552 670 485 711 q 656 553 619 629 q 693 376 693 478 q 653 174 693 261 q 540 38 613 86 q 374 -10 468 -10 m 379 46 q 564 134 496 46 q 632 381 632 222 q 569 583 632 510 q 393 656 506 656 q 206 566 275 656 q 136 319 136 476 q 199 117 136 188 q 379 46 261 46 m 542 928 l 699 1126 l 789 1126 l 592 928 l 542 928 m 236 786 l 411 999 l 461 999 l 601 786 l 532 786 l 435 947 l 310 786 l 236 786 z "},"ộ":{"ha":768,"x_min":75,"x_max":693,"o":"m 374 -10 q 216 31 283 -10 q 112 148 149 72 q 75 324 75 224 q 115 526 75 439 q 227 663 154 614 q 396 711 300 711 q 552 670 485 711 q 656 553 619 629 q 693 376 693 478 q 653 174 693 261 q 540 38 613 86 q 374 -10 468 -10 m 379 46 q 564 134 496 46 q 632 381 632 222 q 569 583 632 510 q 393 656 506 656 q 206 566 275 656 q 136 319 136 476 q 199 117 136 188 q 379 46 261 46 m 393 -153 l 385 -243 l 292 -243 l 300 -153 l 393 -153 m 236 786 l 415 1067 l 468 1067 l 601 786 l 532 786 l 438 1007 l 308 786 l 236 786 z "},"ồ":{"ha":768,"x_min":75,"x_max":693,"o":"m 374 -10 q 216 31 283 -10 q 112 148 149 72 q 75 324 75 224 q 115 526 75 439 q 227 663 154 614 q 396 711 300 711 q 552 670 485 711 q 656 553 619 629 q 693 376 693 478 q 653 174 693 261 q 540 38 613 86 q 374 -10 468 -10 m 379 46 q 564 134 496 46 q 632 381 632 222 q 569 583 632 510 q 393 656 506 656 q 206 566 275 656 q 136 319 136 476 q 199 117 136 188 q 379 46 261 46 m 471 1126 l 553 1126 l 651 928 l 601 928 l 471 1126 m 411 999 l 461 999 l 601 786 l 532 786 l 435 947 l 310 786 l 236 786 l 411 999 z "},"ổ":{"ha":768,"x_min":75,"x_max":714,"o":"m 374 -10 q 216 31 283 -10 q 112 148 149 72 q 75 324 75 224 q 115 526 75 439 q 227 663 154 614 q 396 711 300 711 q 552 670 485 711 q 656 553 619 629 q 693 376 693 478 q 653 174 693 261 q 540 38 613 86 q 374 -10 468 -10 m 379 46 q 564 134 496 46 q 632 381 632 222 q 569 583 632 510 q 393 656 506 656 q 206 566 275 656 q 136 319 136 476 q 199 117 136 188 q 379 46 261 46 m 542 949 q 560 985 543 972 q 604 1010 576 999 q 635 1025 625 1018 q 646 1044 646 1032 q 629 1066 646 1058 q 585 1074 613 1074 q 494 1056 544 1074 l 483 1111 q 535 1128 507 1122 q 588 1133 564 1133 q 681 1111 647 1133 q 714 1051 714 1089 q 697 1009 714 1024 q 647 979 681 994 q 612 960 622 968 q 600 940 601 953 l 599 928 l 540 928 l 542 949 m 411 999 l 461 999 l 601 786 l 532 786 l 435 947 l 310 786 l 236 786 l 411 999 z "},"ỗ":{"ha":768,"x_min":75,"x_max":693,"o":"m 374 -10 q 216 31 283 -10 q 112 148 149 72 q 75 324 75 224 q 115 526 75 439 q 227 663 154 614 q 396 711 300 711 q 552 670 485 711 q 656 553 619 629 q 693 376 693 478 q 653 174 693 261 q 540 38 613 86 q 374 -10 468 -10 m 379 46 q 564 134 496 46 q 632 381 632 222 q 569 583 632 510 q 393 656 506 656 q 206 566 275 656 q 136 319 136 476 q 199 117 136 188 q 379 46 261 46 m 221 1017 q 257 1115 224 1079 q 343 1150 290 1150 q 399 1140 374 1150 q 464 1111 425 1131 q 510 1090 493 1097 q 543 1083 526 1083 q 595 1105 575 1083 q 617 1156 615 1126 l 665 1156 q 629 1058 663 1093 q 542 1022 596 1022 q 485 1033 513 1022 q 424 1063 458 1043 q 377 1085 394 1078 q 343 1092 360 1092 q 290 1069 310 1092 q 269 1017 269 1046 l 221 1017 m 411 999 l 461 999 l 601 786 l 532 786 l 435 947 l 310 786 l 236 786 l 411 999 z "},"ȍ":{"ha":768,"x_min":75,"x_max":693,"o":"m 374 -10 q 216 31 283 -10 q 112 148 149 72 q 75 324 75 224 q 115 526 75 439 q 227 663 154 614 q 396 711 300 711 q 552 670 485 711 q 656 553 619 629 q 693 376 693 478 q 653 174 693 261 q 540 38 613 86 q 374 -10 468 -10 m 379 46 q 564 134 496 46 q 632 381 632 222 q 569 583 632 510 q 393 656 506 656 q 206 566 275 656 q 136 319 136 476 q 199 117 136 188 q 379 46 261 46 m 233 1067 l 310 1067 l 360 786 l 321 786 l 233 1067 m 390 1067 l 464 1067 l 515 786 l 476 786 l 390 1067 z "},"ö":{"ha":768,"x_min":75,"x_max":693,"o":"m 374 -10 q 216 31 283 -10 q 112 148 149 72 q 75 324 75 224 q 115 526 75 439 q 227 663 154 614 q 396 711 300 711 q 552 670 485 711 q 656 553 619 629 q 693 376 693 478 q 653 174 693 261 q 540 38 613 86 q 374 -10 468 -10 m 379 46 q 564 134 496 46 q 632 381 632 222 q 569 583 632 510 q 393 656 506 656 q 206 566 275 656 q 136 319 136 476 q 199 117 136 188 q 379 46 261 46 m 364 969 l 358 885 l 272 885 l 279 969 l 364 969 m 590 969 l 585 885 l 497 885 l 503 969 l 590 969 z "},"ȫ":{"ha":768,"x_min":75,"x_max":693,"o":"m 374 -10 q 216 31 283 -10 q 112 148 149 72 q 75 324 75 224 q 115 526 75 439 q 227 663 154 614 q 396 711 300 711 q 552 670 485 711 q 656 553 619 629 q 693 376 693 478 q 653 174 693 261 q 540 38 613 86 q 374 -10 468 -10 m 379 46 q 564 134 496 46 q 632 381 632 222 q 569 583 632 510 q 393 656 506 656 q 206 566 275 656 q 136 319 136 476 q 199 117 136 188 q 379 46 261 46 m 364 969 l 358 885 l 272 885 l 279 969 l 364 969 m 590 969 l 585 885 l 497 885 l 503 969 l 590 969 m 249 1232 l 657 1232 l 653 1171 l 243 1171 l 249 1232 z "},"ȱ":{"ha":768,"x_min":75,"x_max":693,"o":"m 374 -10 q 216 31 283 -10 q 112 148 149 72 q 75 324 75 224 q 115 526 75 439 q 227 663 154 614 q 396 711 300 711 q 552 670 485 711 q 656 553 619 629 q 693 376 693 478 q 653 174 693 261 q 540 38 613 86 q 374 -10 468 -10 m 379 46 q 564 134 496 46 q 632 381 632 222 q 569 583 632 510 q 393 656 506 656 q 206 566 275 656 q 136 319 136 476 q 199 117 136 188 q 379 46 261 46 m 478 972 l 471 883 l 382 883 l 389 972 l 478 972 m 249 1232 l 657 1232 l 653 1171 l 243 1171 l 249 1232 z "},"ọ":{"ha":768,"x_min":75,"x_max":693,"o":"m 374 -10 q 216 31 283 -10 q 112 148 149 72 q 75 324 75 224 q 115 526 75 439 q 227 663 154 614 q 396 711 300 711 q 552 670 485 711 q 656 553 619 629 q 693 376 693 478 q 653 174 693 261 q 540 38 613 86 q 374 -10 468 -10 m 379 46 q 564 134 496 46 q 632 381 632 222 q 569 583 632 510 q 393 656 506 656 q 206 566 275 656 q 136 319 136 476 q 199 117 136 188 q 379 46 261 46 m 393 -153 l 385 -243 l 292 -243 l 300 -153 l 393 -153 z "},"ò":{"ha":768,"x_min":75,"x_max":693,"o":"m 374 -10 q 216 31 283 -10 q 112 148 149 72 q 75 324 75 224 q 115 526 75 439 q 227 663 154 614 q 396 711 300 711 q 552 670 485 711 q 656 553 619 629 q 693 376 693 478 q 653 174 693 261 q 540 38 613 86 q 374 -10 468 -10 m 379 46 q 564 134 496 46 q 632 381 632 222 q 569 583 632 510 q 393 656 506 656 q 206 566 275 656 q 136 319 136 476 q 199 117 136 188 q 379 46 261 46 m 242 1067 l 324 1067 l 444 786 l 394 786 l 242 1067 z "},"ỏ":{"ha":768,"x_min":75,"x_max":693,"o":"m 374 -10 q 216 31 283 -10 q 112 148 149 72 q 75 324 75 224 q 115 526 75 439 q 227 663 154 614 q 396 711 300 711 q 552 670 485 711 q 656 553 619 629 q 693 376 693 478 q 653 174 693 261 q 540 38 613 86 q 374 -10 468 -10 m 379 46 q 564 134 496 46 q 632 381 632 222 q 569 583 632 510 q 393 656 506 656 q 206 566 275 656 q 136 319 136 476 q 199 117 136 188 q 379 46 261 46 m 450 786 l 394 786 l 397 825 q 416 875 400 854 q 461 922 432 896 q 493 956 483 943 q 503 982 503 968 q 487 1006 503 997 q 443 1015 471 1015 q 351 999 410 1015 l 339 1051 q 447 1074 385 1074 q 535 1049 501 1074 q 569 986 569 1025 q 554 935 569 956 q 508 890 539 915 q 467 849 481 867 q 451 807 453 832 l 450 786 z "},"ơ":{"ha":768,"x_min":75,"x_max":721,"o":"m 719 856 q 569 658 707 694 q 662 538 631 613 q 693 376 693 464 q 653 174 693 261 q 540 38 613 86 q 374 -10 468 -10 q 216 31 283 -10 q 112 148 149 72 q 75 324 75 224 q 115 526 75 439 q 228 663 156 614 q 397 711 301 711 q 476 707 418 711 q 508 704 501 704 q 622 743 586 704 q 664 867 658 782 l 665 883 l 721 883 l 719 856 m 632 381 q 569 583 632 510 q 393 656 506 656 q 206 566 275 656 q 136 319 136 476 q 199 117 136 188 q 379 46 261 46 q 564 134 496 46 q 632 381 632 222 z "},"ớ":{"ha":768,"x_min":75,"x_max":721,"o":"m 719 856 q 569 658 707 694 q 662 538 631 613 q 693 376 693 464 q 653 174 693 261 q 540 38 613 86 q 374 -10 468 -10 q 216 31 283 -10 q 112 148 149 72 q 75 324 75 224 q 115 526 75 439 q 228 663 156 614 q 397 711 301 711 q 476 707 418 711 q 508 704 501 704 q 622 743 586 704 q 664 867 658 782 l 665 883 l 721 883 l 719 856 m 632 381 q 569 583 632 510 q 393 656 506 656 q 206 566 275 656 q 136 319 136 476 q 199 117 136 188 q 379 46 261 46 q 564 134 496 46 q 632 381 632 222 m 394 786 l 556 1067 l 646 1067 l 444 786 l 394 786 z "},"ợ":{"ha":768,"x_min":75,"x_max":721,"o":"m 719 856 q 569 658 707 694 q 662 538 631 613 q 693 376 693 464 q 653 174 693 261 q 540 38 613 86 q 374 -10 468 -10 q 216 31 283 -10 q 112 148 149 72 q 75 324 75 224 q 115 526 75 439 q 228 663 156 614 q 397 711 301 711 q 476 707 418 711 q 508 704 501 704 q 622 743 586 704 q 664 867 658 782 l 665 883 l 721 883 l 719 856 m 632 381 q 569 583 632 510 q 393 656 506 656 q 206 566 275 656 q 136 319 136 476 q 199 117 136 188 q 379 46 261 46 q 564 134 496 46 q 632 381 632 222 m 393 -153 l 385 -243 l 292 -243 l 300 -153 l 393 -153 z "},"ờ":{"ha":768,"x_min":75,"x_max":721,"o":"m 719 856 q 569 658 707 694 q 662 538 631 613 q 693 376 693 464 q 653 174 693 261 q 540 38 613 86 q 374 -10 468 -10 q 216 31 283 -10 q 112 148 149 72 q 75 324 75 224 q 115 526 75 439 q 228 663 156 614 q 397 711 301 711 q 476 707 418 711 q 508 704 501 704 q 622 743 586 704 q 664 867 658 782 l 665 883 l 721 883 l 719 856 m 632 381 q 569 583 632 510 q 393 656 506 656 q 206 566 275 656 q 136 319 136 476 q 199 117 136 188 q 379 46 261 46 q 564 134 496 46 q 632 381 632 222 m 242 1067 l 324 1067 l 444 786 l 394 786 l 242 1067 z "},"ở":{"ha":768,"x_min":75,"x_max":721,"o":"m 719 856 q 569 658 707 694 q 662 538 631 613 q 693 376 693 464 q 653 174 693 261 q 540 38 613 86 q 374 -10 468 -10 q 216 31 283 -10 q 112 148 149 72 q 75 324 75 224 q 115 526 75 439 q 228 663 156 614 q 397 711 301 711 q 476 707 418 711 q 508 704 501 704 q 622 743 586 704 q 664 867 658 782 l 665 883 l 721 883 l 719 856 m 632 381 q 569 583 632 510 q 393 656 506 656 q 206 566 275 656 q 136 319 136 476 q 199 117 136 188 q 379 46 261 46 q 564 134 496 46 q 632 381 632 222 m 450 786 l 394 786 l 397 825 q 416 875 400 854 q 461 922 432 896 q 493 956 483 943 q 503 982 503 968 q 487 1006 503 997 q 443 1015 471 1015 q 351 999 410 1015 l 339 1051 q 447 1074 385 1074 q 535 1049 501 1074 q 569 986 569 1025 q 554 935 569 956 q 508 890 539 915 q 467 849 481 867 q 451 807 453 832 l 450 786 z "},"ỡ":{"ha":768,"x_min":75,"x_max":721,"o":"m 719 856 q 569 658 707 694 q 662 538 631 613 q 693 376 693 464 q 653 174 693 261 q 540 38 613 86 q 374 -10 468 -10 q 216 31 283 -10 q 112 148 149 72 q 75 324 75 224 q 115 526 75 439 q 228 663 156 614 q 397 711 301 711 q 476 707 418 711 q 508 704 501 704 q 622 743 586 704 q 664 867 658 782 l 665 883 l 721 883 l 719 856 m 632 381 q 569 583 632 510 q 393 656 506 656 q 206 566 275 656 q 136 319 136 476 q 199 117 136 188 q 379 46 261 46 q 564 134 496 46 q 632 381 632 222 m 208 863 q 244 963 211 928 q 331 999 278 999 q 386 986 360 999 q 449 950 413 974 q 497 922 479 931 q 531 914 514 914 q 583 936 564 914 q 604 994 603 958 l 650 994 q 616 894 649 929 q 531 858 583 858 q 474 871 501 858 q 414 907 447 883 q 366 935 383 926 q 332 943 349 943 q 279 921 299 943 q 257 863 260 899 l 208 863 z "},"ő":{"ha":768,"x_min":75,"x_max":693,"o":"m 374 -10 q 216 31 283 -10 q 112 148 149 72 q 75 324 75 224 q 115 526 75 439 q 227 663 154 614 q 396 711 300 711 q 552 670 485 711 q 656 553 619 629 q 693 376 693 478 q 653 174 693 261 q 540 38 613 86 q 374 -10 468 -10 m 379 46 q 564 134 496 46 q 632 381 632 222 q 569 583 632 510 q 393 656 506 656 q 206 566 275 656 q 136 319 136 476 q 199 117 136 188 q 379 46 261 46 m 321 786 l 417 1067 l 494 1067 l 360 786 l 321 786 m 476 786 l 571 1067 l 650 1067 l 515 786 l 476 786 z "},"ȏ":{"ha":768,"x_min":75,"x_max":693,"o":"m 374 -10 q 216 31 283 -10 q 112 148 149 72 q 75 324 75 224 q 115 526 75 439 q 227 663 154 614 q 396 711 300 711 q 552 670 485 711 q 656 553 619 629 q 693 376 693 478 q 653 174 693 261 q 540 38 613 86 q 374 -10 468 -10 m 379 46 q 564 134 496 46 q 632 381 632 222 q 569 583 632 510 q 393 656 506 656 q 206 566 275 656 q 136 319 136 476 q 199 117 136 188 q 379 46 261 46 m 438 1021 q 563 981 508 1021 q 639 858 617 942 l 582 833 q 522 935 558 904 q 435 965 485 965 q 340 935 382 965 q 265 833 299 906 l 208 857 q 438 1021 283 1021 z "},"ō":{"ha":768,"x_min":75,"x_max":693,"o":"m 374 -10 q 216 31 283 -10 q 112 148 149 72 q 75 324 75 224 q 115 526 75 439 q 227 663 154 614 q 396 711 300 711 q 552 670 485 711 q 656 553 619 629 q 693 376 693 478 q 653 174 693 261 q 540 38 613 86 q 374 -10 468 -10 m 379 46 q 564 134 496 46 q 632 381 632 222 q 569 583 632 510 q 393 656 506 656 q 206 566 275 656 q 136 319 136 476 q 199 117 136 188 q 379 46 261 46 m 228 958 l 636 958 l 632 897 l 222 897 l 228 958 z "},"ṓ":{"ha":768,"x_min":75,"x_max":693,"o":"m 374 -10 q 216 31 283 -10 q 112 148 149 72 q 75 324 75 224 q 115 526 75 439 q 227 663 154 614 q 396 711 300 711 q 552 670 485 711 q 656 553 619 629 q 693 376 693 478 q 653 174 693 261 q 540 38 613 86 q 374 -10 468 -10 m 379 46 q 564 134 496 46 q 632 381 632 222 q 569 583 632 510 q 393 656 506 656 q 206 566 275 656 q 136 319 136 476 q 199 117 136 188 q 379 46 261 46 m 228 958 l 636 958 l 632 897 l 222 897 l 228 958 m 415 1060 l 576 1340 l 667 1340 l 465 1060 l 415 1060 z "},"ṑ":{"ha":768,"x_min":75,"x_max":693,"o":"m 374 -10 q 216 31 283 -10 q 112 148 149 72 q 75 324 75 224 q 115 526 75 439 q 227 663 154 614 q 396 711 300 711 q 552 670 485 711 q 656 553 619 629 q 693 376 693 478 q 653 174 693 261 q 540 38 613 86 q 374 -10 468 -10 m 379 46 q 564 134 496 46 q 632 381 632 222 q 569 583 632 510 q 393 656 506 656 q 206 566 275 656 q 136 319 136 476 q 199 117 136 188 q 379 46 261 46 m 228 958 l 636 958 l 632 897 l 222 897 l 228 958 m 263 1340 l 344 1340 l 465 1060 l 415 1060 l 263 1340 z "},"ǫ":{"ha":768,"x_min":75,"x_max":693,"o":"m 469 6 q 359 -49 392 -19 q 326 -126 326 -78 q 350 -196 326 -172 q 417 -219 374 -219 q 458 -212 435 -219 q 504 -189 482 -204 l 524 -240 q 475 -263 506 -254 q 414 -272 444 -272 q 304 -235 344 -272 q 264 -136 264 -199 q 322 -7 264 -54 q 143 97 211 8 q 75 324 75 186 q 115 526 75 439 q 227 663 154 614 q 396 711 300 711 q 552 670 485 711 q 656 553 619 629 q 693 376 693 478 q 629 130 693 224 q 469 6 565 36 m 136 319 q 199 117 136 188 q 379 46 261 46 q 564 134 496 46 q 632 381 632 222 q 569 583 632 510 q 393 656 506 656 q 206 566 275 656 q 136 319 136 476 z "},"ø":{"ha":768,"x_min":75,"x_max":693,"o":"m 603 631 q 669 522 646 586 q 693 376 693 457 q 653 174 693 261 q 540 38 613 86 q 374 -10 468 -10 q 211 35 279 -10 l 154 -51 l 104 -22 l 165 71 q 99 180 122 115 q 75 324 75 244 q 115 526 75 439 q 227 663 154 614 q 396 711 300 711 q 560 665 488 711 l 617 751 l 664 725 l 603 631 m 138 319 q 197 118 138 190 l 528 618 q 393 656 474 656 q 206 566 275 656 q 138 319 138 476 m 379 46 q 563 135 496 46 q 631 381 631 224 q 569 581 631 507 l 242 81 q 379 46 299 46 z "},"ǿ":{"ha":768,"x_min":75,"x_max":693,"o":"m 603 631 q 669 522 646 586 q 693 376 693 457 q 653 174 693 261 q 540 38 613 86 q 374 -10 468 -10 q 211 35 279 -10 l 154 -51 l 104 -22 l 165 71 q 99 180 122 115 q 75 324 75 244 q 115 526 75 439 q 227 663 154 614 q 396 711 300 711 q 560 665 488 711 l 617 751 l 664 725 l 603 631 m 138 319 q 197 118 138 190 l 528 618 q 393 656 474 656 q 206 566 275 656 q 138 319 138 476 m 379 46 q 563 135 496 46 q 631 381 631 224 q 569 581 631 507 l 242 81 q 379 46 299 46 m 394 786 l 556 1067 l 646 1067 l 444 786 l 394 786 z "},"õ":{"ha":768,"x_min":75,"x_max":693,"o":"m 374 -10 q 216 31 283 -10 q 112 148 149 72 q 75 324 75 224 q 115 526 75 439 q 227 663 154 614 q 396 711 300 711 q 552 670 485 711 q 656 553 619 629 q 693 376 693 478 q 653 174 693 261 q 540 38 613 86 q 374 -10 468 -10 m 379 46 q 564 134 496 46 q 632 381 632 222 q 569 583 632 510 q 393 656 506 656 q 206 566 275 656 q 136 319 136 476 q 199 117 136 188 q 379 46 261 46 m 208 863 q 244 963 211 928 q 331 999 278 999 q 386 986 360 999 q 449 950 413 974 q 497 922 479 931 q 531 914 514 914 q 583 936 564 914 q 604 994 603 958 l 650 994 q 616 894 649 929 q 531 858 583 858 q 474 871 501 858 q 414 907 447 883 q 366 935 383 926 q 332 943 349 943 q 279 921 299 943 q 257 863 260 899 l 208 863 z "},"ṍ":{"ha":768,"x_min":75,"x_max":693,"o":"m 374 -10 q 216 31 283 -10 q 112 148 149 72 q 75 324 75 224 q 115 526 75 439 q 227 663 154 614 q 396 711 300 711 q 552 670 485 711 q 656 553 619 629 q 693 376 693 478 q 653 174 693 261 q 540 38 613 86 q 374 -10 468 -10 m 379 46 q 564 134 496 46 q 632 381 632 222 q 569 583 632 510 q 393 656 506 656 q 206 566 275 656 q 136 319 136 476 q 199 117 136 188 q 379 46 261 46 m 208 863 q 244 963 211 928 q 331 999 278 999 q 386 986 360 999 q 449 950 413 974 q 497 922 479 931 q 531 914 514 914 q 583 936 564 914 q 604 994 603 958 l 650 994 q 616 894 649 929 q 531 858 583 858 q 474 871 501 858 q 414 907 447 883 q 366 935 383 926 q 332 943 349 943 q 279 921 299 943 q 257 863 260 899 l 208 863 m 415 1060 l 576 1340 l 667 1340 l 465 1060 l 415 1060 z "},"ṏ":{"ha":768,"x_min":75,"x_max":693,"o":"m 374 -10 q 216 31 283 -10 q 112 148 149 72 q 75 324 75 224 q 115 526 75 439 q 227 663 154 614 q 396 711 300 711 q 552 670 485 711 q 656 553 619 629 q 693 376 693 478 q 653 174 693 261 q 540 38 613 86 q 374 -10 468 -10 m 379 46 q 564 134 496 46 q 632 381 632 222 q 569 583 632 510 q 393 656 506 656 q 206 566 275 656 q 136 319 136 476 q 199 117 136 188 q 379 46 261 46 m 208 863 q 244 963 211 928 q 331 999 278 999 q 386 986 360 999 q 449 950 413 974 q 497 922 479 931 q 531 914 514 914 q 583 936 564 914 q 604 994 603 958 l 650 994 q 616 894 649 929 q 531 858 583 858 q 474 871 501 858 q 414 907 447 883 q 366 935 383 926 q 332 943 349 943 q 279 921 299 943 q 257 863 260 899 l 208 863 m 385 1243 l 379 1158 l 293 1158 l 300 1243 l 385 1243 m 611 1243 l 606 1158 l 518 1158 l 524 1243 l 611 1243 z "},"ȭ":{"ha":768,"x_min":75,"x_max":693,"o":"m 374 -10 q 216 31 283 -10 q 112 148 149 72 q 75 324 75 224 q 115 526 75 439 q 227 663 154 614 q 396 711 300 711 q 552 670 485 711 q 656 553 619 629 q 693 376 693 478 q 653 174 693 261 q 540 38 613 86 q 374 -10 468 -10 m 379 46 q 564 134 496 46 q 632 381 632 222 q 569 583 632 510 q 393 656 506 656 q 206 566 275 656 q 136 319 136 476 q 199 117 136 188 q 379 46 261 46 m 208 863 q 244 963 211 928 q 331 999 278 999 q 386 986 360 999 q 449 950 413 974 q 497 922 479 931 q 531 914 514 914 q 583 936 564 914 q 604 994 603 958 l 650 994 q 616 894 649 929 q 531 858 583 858 q 474 871 501 858 q 414 907 447 883 q 366 935 383 926 q 332 943 349 943 q 279 921 299 943 q 257 863 260 899 l 208 863 m 249 1232 l 657 1232 l 653 1171 l 243 1171 l 249 1232 z "},"œ":{"ha":1300,"x_min":75,"x_max":1235,"o":"m 692 342 l 692 318 q 757 118 692 190 q 947 46 822 46 q 1064 67 1003 46 q 1176 132 1125 89 l 1201 85 q 1088 17 1160 43 q 949 -10 1015 -10 q 760 43 833 -10 q 657 192 686 96 q 548 45 621 100 q 376 -10 475 -10 q 217 31 285 -10 q 112 148 149 72 q 75 324 75 224 q 115 526 75 439 q 228 663 156 614 q 397 711 301 711 q 570 658 501 711 q 667 501 639 606 q 778 656 701 601 q 965 711 854 711 q 1163 635 1092 711 q 1235 408 1235 560 q 1232 342 1235 365 l 692 342 m 969 660 q 783 590 853 660 q 697 397 713 521 l 1179 397 q 1128 592 1185 525 q 969 660 1071 660 m 379 46 q 564 134 496 46 q 632 381 632 222 q 569 583 632 510 q 393 656 506 656 q 206 566 275 656 q 136 319 136 476 q 199 117 136 188 q 379 46 261 46 z "},"p":{"ha":810,"x_min":71,"x_max":735,"o":"m 438 711 q 592 669 525 711 q 697 552 660 628 q 735 375 735 476 q 694 173 735 260 q 580 38 653 86 q 411 -10 507 -10 q 256 30 322 -10 q 163 142 190 69 l 128 -300 l 71 -300 l 135 503 q 140 631 140 560 q 139 694 140 674 l 192 694 l 193 569 q 292 674 225 636 q 438 711 360 711 m 421 46 q 605 135 538 46 q 672 382 672 225 q 610 583 672 511 q 435 656 547 656 q 247 565 315 656 q 178 318 178 475 q 240 116 178 186 q 421 46 303 46 z "},"þ":{"ha":810,"x_min":72,"x_max":733,"o":"m 438 711 q 592 669 525 711 q 697 552 660 628 q 733 375 733 476 q 693 172 733 260 q 579 38 653 85 q 410 -10 506 -10 q 258 29 322 -10 q 164 139 193 68 l 129 -300 l 72 -300 l 176 1011 l 233 1011 l 199 581 q 298 676 233 642 q 438 711 363 711 m 421 46 q 605 135 538 46 q 672 382 672 225 q 610 583 672 511 q 435 656 547 656 q 246 565 314 656 q 178 318 178 475 q 240 116 178 186 q 421 46 303 46 z "},"q":{"ha":810,"x_min":74,"x_max":722,"o":"m 722 694 q 697 503 703 574 l 633 -300 l 576 -300 l 610 124 q 510 26 575 61 q 369 -10 444 -10 q 215 32 282 -10 q 110 150 147 74 q 74 328 74 226 q 115 529 74 442 q 228 664 156 617 q 397 711 301 711 q 554 669 488 711 q 649 553 621 628 l 669 694 l 722 694 m 374 46 q 562 136 493 46 q 631 383 631 226 q 568 585 631 515 q 390 656 506 656 q 202 566 271 656 q 133 319 133 476 q 197 119 133 192 q 374 46 261 46 z "},"r":{"ha":467,"x_min":94,"x_max":483,"o":"m 426 711 q 483 707 465 711 l 475 656 q 421 660 453 660 q 292 623 344 660 q 215 531 240 586 q 186 417 190 476 l 153 0 l 94 0 l 135 503 q 140 642 140 594 q 139 694 140 676 l 192 694 l 193 578 q 290 676 226 640 q 426 711 353 711 z "},"ŕ":{"ha":467,"x_min":94,"x_max":551,"o":"m 426 711 q 483 707 465 711 l 475 656 q 421 660 453 660 q 292 623 344 660 q 215 531 240 586 q 186 417 190 476 l 153 0 l 94 0 l 135 503 q 140 642 140 594 q 139 694 140 676 l 192 694 l 193 578 q 290 676 226 640 q 426 711 353 711 m 300 786 l 461 1067 l 551 1067 l 350 786 l 300 786 z "},"ř":{"ha":467,"x_min":94,"x_max":529,"o":"m 426 711 q 483 707 465 711 l 475 656 q 421 660 453 660 q 292 623 344 660 q 215 531 240 586 q 186 417 190 476 l 153 0 l 94 0 l 135 503 q 140 642 140 594 q 139 694 140 676 l 192 694 l 193 578 q 290 676 226 640 q 426 711 353 711 m 529 1067 l 351 786 l 299 786 l 165 1067 l 235 1067 l 328 844 l 458 1067 l 529 1067 z "},"ŗ":{"ha":467,"x_min":46,"x_max":483,"o":"m 426 711 q 483 707 465 711 l 475 656 q 421 660 453 660 q 292 623 344 660 q 215 531 240 586 q 186 417 190 476 l 153 0 l 94 0 l 135 503 q 140 642 140 594 q 139 694 140 676 l 192 694 l 193 578 q 290 676 226 640 q 426 711 353 711 m 165 -107 l 160 -182 q 138 -274 156 -232 q 82 -351 119 -315 l 46 -321 q 90 -261 78 -289 q 106 -197 101 -233 l 61 -197 l 67 -107 l 165 -107 z "},"ȑ":{"ha":467,"x_min":94,"x_max":483,"o":"m 426 711 q 483 707 465 711 l 475 656 q 421 660 453 660 q 292 623 344 660 q 215 531 240 586 q 186 417 190 476 l 153 0 l 94 0 l 135 503 q 140 642 140 594 q 139 694 140 676 l 192 694 l 193 578 q 290 676 226 640 q 426 711 353 711 m 139 1067 l 215 1067 l 265 786 l 226 786 l 139 1067 m 296 1067 l 369 1067 l 421 786 l 382 786 l 296 1067 z "},"ṛ":{"ha":467,"x_min":58,"x_max":483,"o":"m 426 711 q 483 707 465 711 l 475 656 q 421 660 453 660 q 292 623 344 660 q 215 531 240 586 q 186 417 190 476 l 153 0 l 94 0 l 135 503 q 140 642 140 594 q 139 694 140 676 l 192 694 l 193 578 q 290 676 226 640 q 426 711 353 711 m 160 -153 l 151 -243 l 58 -243 l 67 -153 l 160 -153 z "},"ȓ":{"ha":467,"x_min":94,"x_max":544,"o":"m 426 711 q 483 707 465 711 l 475 656 q 421 660 453 660 q 292 623 344 660 q 215 531 240 586 q 186 417 190 476 l 153 0 l 94 0 l 135 503 q 140 642 140 594 q 139 694 140 676 l 192 694 l 193 578 q 290 676 226 640 q 426 711 353 711 m 343 1021 q 468 981 414 1021 q 544 858 522 942 l 488 833 q 427 935 464 904 q 340 965 390 965 q 246 935 288 965 q 171 833 204 906 l 114 857 q 343 1021 189 1021 z "},"ṟ":{"ha":467,"x_min":-99,"x_max":483,"o":"m 426 711 q 483 707 465 711 l 475 656 q 421 660 453 660 q 292 623 344 660 q 215 531 240 586 q 186 417 190 476 l 153 0 l 94 0 l 135 503 q 140 642 140 594 q 139 694 140 676 l 192 694 l 193 578 q 290 676 226 640 q 426 711 353 711 m -93 -167 l 317 -167 l 311 -228 l -99 -228 l -93 -167 z "},"s":{"ha":683,"x_min":60,"x_max":608,"o":"m 317 -10 q 174 15 242 -10 q 60 85 106 40 l 90 132 q 199 67 147 86 q 318 47 251 47 q 469 80 417 47 q 521 178 521 113 q 497 244 521 218 q 438 285 472 271 q 340 318 403 300 q 225 358 269 339 q 150 415 181 378 q 119 513 119 453 q 188 658 118 604 q 376 711 258 711 q 508 687 447 711 q 608 618 569 663 l 576 568 q 378 656 488 656 q 233 619 283 656 q 182 514 182 583 q 206 448 182 474 q 266 408 231 422 q 363 376 301 394 q 480 337 436 356 q 554 281 524 318 q 585 182 585 243 q 511 42 585 93 q 317 -10 438 -10 z "},"ś":{"ha":683,"x_min":60,"x_max":614,"o":"m 317 -10 q 174 15 242 -10 q 60 85 106 40 l 90 132 q 199 67 147 86 q 318 47 251 47 q 469 80 417 47 q 521 178 521 113 q 497 244 521 218 q 438 285 472 271 q 340 318 403 300 q 225 358 269 339 q 150 415 181 378 q 119 513 119 453 q 188 658 118 604 q 376 711 258 711 q 508 687 447 711 q 608 618 569 663 l 576 568 q 378 656 488 656 q 233 619 283 656 q 182 514 182 583 q 206 448 182 474 q 266 408 231 422 q 363 376 301 394 q 480 337 436 356 q 554 281 524 318 q 585 182 585 243 q 511 42 585 93 q 317 -10 438 -10 m 363 786 l 524 1067 l 614 1067 l 413 786 l 363 786 z "},"ṥ":{"ha":683,"x_min":60,"x_max":608,"o":"m 317 -10 q 174 15 242 -10 q 60 85 106 40 l 90 132 q 199 67 147 86 q 318 47 251 47 q 469 80 417 47 q 521 178 521 113 q 497 244 521 218 q 438 285 472 271 q 340 318 403 300 q 225 358 269 339 q 150 415 181 378 q 119 513 119 453 q 188 658 118 604 q 376 711 258 711 q 508 687 447 711 q 608 618 569 663 l 576 568 q 378 656 488 656 q 233 619 283 656 q 182 514 182 583 q 206 448 182 474 q 266 408 231 422 q 363 376 301 394 q 480 337 436 356 q 554 281 524 318 q 585 182 585 243 q 511 42 585 93 q 317 -10 438 -10 m 354 771 l 515 1051 l 606 1051 l 404 771 l 354 771 m 310 1056 l 303 967 l 214 967 l 221 1056 l 310 1056 z "},"š":{"ha":683,"x_min":60,"x_max":608,"o":"m 317 -10 q 174 15 242 -10 q 60 85 106 40 l 90 132 q 199 67 147 86 q 318 47 251 47 q 469 80 417 47 q 521 178 521 113 q 497 244 521 218 q 438 285 472 271 q 340 318 403 300 q 225 358 269 339 q 150 415 181 378 q 119 513 119 453 q 188 658 118 604 q 376 711 258 711 q 508 687 447 711 q 608 618 569 663 l 576 568 q 378 656 488 656 q 233 619 283 656 q 182 514 182 583 q 206 448 182 474 q 266 408 231 422 q 363 376 301 394 q 480 337 436 356 q 554 281 524 318 q 585 182 585 243 q 511 42 585 93 q 317 -10 438 -10 m 592 1067 l 414 786 l 361 786 l 228 1067 l 297 1067 l 390 844 l 521 1067 l 592 1067 z "},"ṧ":{"ha":683,"x_min":60,"x_max":608,"o":"m 317 -10 q 174 15 242 -10 q 60 85 106 40 l 90 132 q 199 67 147 86 q 318 47 251 47 q 469 80 417 47 q 521 178 521 113 q 497 244 521 218 q 438 285 472 271 q 340 318 403 300 q 225 358 269 339 q 150 415 181 378 q 119 513 119 453 q 188 658 118 604 q 376 711 258 711 q 508 687 447 711 q 608 618 569 663 l 576 568 q 378 656 488 656 q 233 619 283 656 q 182 514 182 583 q 206 448 182 474 q 266 408 231 422 q 363 376 301 394 q 480 337 436 356 q 554 281 524 318 q 585 182 585 243 q 511 42 585 93 q 317 -10 438 -10 m 592 1067 l 414 786 l 361 786 l 228 1067 l 297 1067 l 390 844 l 521 1067 l 592 1067 m 467 1246 l 460 1157 l 371 1157 l 378 1246 l 467 1246 z "},"ş":{"ha":683,"x_min":60,"x_max":608,"o":"m 182 514 q 206 448 182 474 q 266 408 231 422 q 363 376 301 394 q 480 337 436 356 q 554 281 524 318 q 585 182 585 243 q 515 44 585 96 q 329 -10 446 -7 l 318 -62 q 356 -57 336 -57 q 427 -82 400 -57 q 454 -151 454 -107 q 414 -235 454 -204 q 301 -267 374 -267 q 242 -260 274 -267 q 183 -240 210 -254 l 204 -192 q 306 -211 254 -211 q 373 -197 350 -211 q 396 -154 396 -182 q 383 -122 396 -133 q 344 -111 369 -111 q 276 -126 313 -111 l 251 -107 l 269 -7 q 153 24 208 0 q 60 85 99 49 l 90 132 q 199 67 147 86 q 318 47 251 47 q 469 80 417 47 q 521 178 521 113 q 497 244 521 218 q 438 285 472 271 q 340 318 403 300 q 225 358 269 339 q 150 415 181 378 q 119 513 119 453 q 188 658 118 604 q 376 711 258 711 q 508 687 447 711 q 608 618 569 663 l 576 568 q 378 656 488 656 q 233 619 283 656 q 182 514 182 583 z "},"ŝ":{"ha":683,"x_min":60,"x_max":608,"o":"m 317 -10 q 174 15 242 -10 q 60 85 106 40 l 90 132 q 199 67 147 86 q 318 47 251 47 q 469 80 417 47 q 521 178 521 113 q 497 244 521 218 q 438 285 472 271 q 340 318 403 300 q 225 358 269 339 q 150 415 181 378 q 119 513 119 453 q 188 658 118 604 q 376 711 258 711 q 508 687 447 711 q 608 618 569 663 l 576 568 q 378 656 488 656 q 233 619 283 656 q 182 514 182 583 q 206 448 182 474 q 266 408 231 422 q 363 376 301 394 q 480 337 436 356 q 554 281 524 318 q 585 182 585 243 q 511 42 585 93 q 317 -10 438 -10 m 204 786 l 383 1067 l 436 1067 l 569 786 l 500 786 l 406 1007 l 276 786 l 204 786 z "},"ș":{"ha":683,"x_min":60,"x_max":608,"o":"m 317 -10 q 174 15 242 -10 q 60 85 106 40 l 90 132 q 199 67 147 86 q 318 47 251 47 q 469 80 417 47 q 521 178 521 113 q 497 244 521 218 q 438 285 472 271 q 340 318 403 300 q 225 358 269 339 q 150 415 181 378 q 119 513 119 453 q 188 658 118 604 q 376 711 258 711 q 508 687 447 711 q 608 618 569 663 l 576 568 q 378 656 488 656 q 233 619 283 656 q 182 514 182 583 q 206 448 182 474 q 266 408 231 422 q 363 376 301 394 q 480 337 436 356 q 554 281 524 318 q 585 182 585 243 q 511 42 585 93 q 317 -10 438 -10 m 353 -107 l 347 -182 q 325 -274 343 -232 q 269 -351 307 -315 l 233 -321 q 277 -261 265 -289 q 293 -197 289 -233 l 249 -197 l 254 -107 l 353 -107 z "},"ṡ":{"ha":683,"x_min":60,"x_max":608,"o":"m 317 -10 q 174 15 242 -10 q 60 85 106 40 l 90 132 q 199 67 147 86 q 318 47 251 47 q 469 80 417 47 q 521 178 521 113 q 497 244 521 218 q 438 285 472 271 q 340 318 403 300 q 225 358 269 339 q 150 415 181 378 q 119 513 119 453 q 188 658 118 604 q 376 711 258 711 q 508 687 447 711 q 608 618 569 663 l 576 568 q 378 656 488 656 q 233 619 283 656 q 182 514 182 583 q 206 448 182 474 q 266 408 231 422 q 363 376 301 394 q 480 337 436 356 q 554 281 524 318 q 585 182 585 243 q 511 42 585 93 q 317 -10 438 -10 m 446 972 l 439 883 l 350 883 l 357 972 l 446 972 z "},"ṣ":{"ha":683,"x_min":60,"x_max":608,"o":"m 317 -10 q 174 15 242 -10 q 60 85 106 40 l 90 132 q 199 67 147 86 q 318 47 251 47 q 469 80 417 47 q 521 178 521 113 q 497 244 521 218 q 438 285 472 271 q 340 318 403 300 q 225 358 269 339 q 150 415 181 378 q 119 513 119 453 q 188 658 118 604 q 376 711 258 711 q 508 687 447 711 q 608 618 569 663 l 576 568 q 378 656 488 656 q 233 619 283 656 q 182 514 182 583 q 206 448 182 474 q 266 408 231 422 q 363 376 301 394 q 480 337 436 356 q 554 281 524 318 q 585 182 585 243 q 511 42 585 93 q 317 -10 438 -10 m 347 -153 l 339 -243 l 246 -243 l 254 -153 l 347 -153 z "},"ṩ":{"ha":683,"x_min":60,"x_max":608,"o":"m 317 -10 q 174 15 242 -10 q 60 85 106 40 l 90 132 q 199 67 147 86 q 318 47 251 47 q 469 80 417 47 q 521 178 521 113 q 497 244 521 218 q 438 285 472 271 q 340 318 403 300 q 225 358 269 339 q 150 415 181 378 q 119 513 119 453 q 188 658 118 604 q 376 711 258 711 q 508 687 447 711 q 608 618 569 663 l 576 568 q 378 656 488 656 q 233 619 283 656 q 182 514 182 583 q 206 448 182 474 q 266 408 231 422 q 363 376 301 394 q 480 337 436 356 q 554 281 524 318 q 585 182 585 243 q 511 42 585 93 q 317 -10 438 -10 m 347 -153 l 339 -243 l 246 -243 l 254 -153 l 347 -153 m 446 972 l 439 883 l 350 883 l 357 972 l 446 972 z "},"ß":{"ha":832,"x_min":94,"x_max":768,"o":"m 440 513 q 688 397 607 471 q 768 211 768 322 q 736 97 768 147 q 647 19 704 47 q 517 -10 589 -10 q 381 16 449 -10 q 267 85 313 42 l 297 132 q 404 66 353 86 q 521 46 456 46 q 656 91 607 46 q 706 213 706 136 q 626 368 706 306 q 364 482 547 431 l 368 532 q 568 657 501 586 q 635 818 635 728 q 467 972 635 972 q 282 910 344 972 q 210 713 219 847 l 153 0 l 94 0 l 151 710 q 464 1026 178 1026 q 631 971 571 1026 q 692 814 692 915 q 627 642 692 719 q 440 513 563 565 z "},"t":{"ha":450,"x_min":36,"x_max":446,"o":"m 196 201 q 194 171 194 190 q 225 73 194 100 q 314 46 256 46 q 389 58 356 46 l 386 3 q 304 -8 346 -8 q 182 33 228 -8 q 136 157 136 74 l 138 181 l 174 646 l 36 646 l 39 694 l 178 694 l 192 883 l 250 908 l 233 694 l 446 694 l 442 646 l 231 646 l 196 201 z "},"ŧ":{"ha":464,"x_min":43,"x_max":453,"o":"m 238 646 l 221 429 l 404 429 l 400 378 l 217 378 l 203 201 q 201 171 201 190 q 232 73 201 100 q 321 46 263 46 q 397 58 361 46 l 393 3 q 311 -8 353 -8 q 184 38 229 -8 q 144 181 139 85 l 160 378 l 50 378 l 54 429 l 164 429 l 181 646 l 43 646 l 46 694 l 185 694 l 200 883 l 257 908 l 240 694 l 453 694 l 450 646 l 238 646 z "},"ť":{"ha":450,"x_min":36,"x_max":446,"o":"m 356 754 l 318 754 l 338 992 l 410 992 l 356 754 m 196 201 q 194 171 194 190 q 225 73 194 100 q 314 46 256 46 q 389 58 356 46 l 386 3 q 304 -8 346 -8 q 182 33 228 -8 q 136 157 136 74 l 138 181 l 174 646 l 36 646 l 39 694 l 178 694 l 192 883 l 250 908 l 233 694 l 446 694 l 442 646 l 231 646 l 196 201 z "},"ţ":{"ha":450,"x_min":36,"x_max":446,"o":"m 196 201 q 194 171 194 190 q 225 73 194 100 q 314 46 256 46 q 389 58 356 46 l 386 3 q 304 -8 346 -8 q 283 -7 290 -8 l 272 -62 q 310 -57 290 -57 q 381 -82 354 -57 q 408 -151 408 -107 q 368 -235 408 -204 q 256 -267 328 -267 q 196 -260 228 -267 q 138 -240 164 -254 l 158 -192 q 260 -211 208 -211 q 327 -197 304 -211 q 350 -154 350 -182 q 337 -122 350 -133 q 299 -111 324 -111 q 231 -126 267 -111 l 206 -107 l 226 4 q 160 60 183 22 q 136 157 136 97 l 138 181 l 174 646 l 36 646 l 39 694 l 178 694 l 192 883 l 250 908 l 233 694 l 446 694 l 442 646 l 231 646 l 196 201 z "},"ț":{"ha":450,"x_min":36,"x_max":446,"o":"m 196 201 q 194 171 194 190 q 225 73 194 100 q 314 46 256 46 q 389 58 356 46 l 386 3 q 304 -8 346 -8 q 182 33 228 -8 q 136 157 136 74 l 138 181 l 174 646 l 36 646 l 39 694 l 178 694 l 192 883 l 250 908 l 233 694 l 446 694 l 442 646 l 231 646 l 196 201 m 307 -107 l 301 -182 q 279 -274 297 -232 q 224 -351 261 -315 l 188 -321 q 231 -261 219 -289 q 247 -197 243 -233 l 203 -197 l 208 -107 l 307 -107 z "},"ẗ":{"ha":450,"x_min":36,"x_max":446,"o":"m 196 201 q 194 171 194 190 q 225 73 194 100 q 314 46 256 46 q 389 58 356 46 l 386 3 q 304 -8 346 -8 q 182 33 228 -8 q 136 157 136 74 l 138 181 l 174 646 l 36 646 l 39 694 l 178 694 l 192 883 l 250 908 l 233 694 l 446 694 l 442 646 l 231 646 l 196 201 m 174 1144 l 167 1060 l 81 1060 l 88 1144 l 174 1144 m 399 1144 l 392 1060 l 306 1060 l 311 1144 l 399 1144 z "},"ṭ":{"ha":450,"x_min":36,"x_max":446,"o":"m 196 201 q 194 171 194 190 q 225 73 194 100 q 314 46 256 46 q 389 58 356 46 l 386 3 q 304 -8 346 -8 q 182 33 228 -8 q 136 157 136 74 l 138 181 l 174 646 l 36 646 l 39 694 l 178 694 l 192 883 l 250 908 l 233 694 l 446 694 l 442 646 l 231 646 l 196 201 m 301 -153 l 293 -243 l 200 -243 l 208 -153 l 301 -153 z "},"ṯ":{"ha":450,"x_min":36,"x_max":458,"o":"m 196 201 q 194 171 194 190 q 225 73 194 100 q 314 46 256 46 q 389 58 356 46 l 386 3 q 304 -8 346 -8 q 182 33 228 -8 q 136 157 136 74 l 138 181 l 174 646 l 36 646 l 39 694 l 178 694 l 192 883 l 250 908 l 233 694 l 446 694 l 442 646 l 231 646 l 196 201 m 49 -167 l 458 -167 l 453 -228 l 43 -228 l 49 -167 z "},"u":{"ha":779,"x_min":110,"x_max":685,"o":"m 685 694 l 631 0 l 575 0 l 585 128 q 488 26 550 61 q 347 -10 425 -10 q 171 49 232 -10 q 110 222 110 108 q 111 258 110 246 l 146 694 l 203 694 l 168 263 q 167 226 167 250 q 343 44 167 44 q 520 112 453 44 q 597 299 588 179 l 628 694 l 685 694 z "},"ú":{"ha":779,"x_min":110,"x_max":685,"o":"m 685 694 l 631 0 l 575 0 l 585 128 q 488 26 550 61 q 347 -10 425 -10 q 171 49 232 -10 q 110 222 110 108 q 111 258 110 246 l 146 694 l 203 694 l 168 263 q 167 226 167 250 q 343 44 167 44 q 520 112 453 44 q 597 299 588 179 l 628 694 l 685 694 m 401 786 l 563 1067 l 653 1067 l 451 786 l 401 786 z "},"ŭ":{"ha":779,"x_min":110,"x_max":685,"o":"m 685 694 l 631 0 l 575 0 l 585 128 q 488 26 550 61 q 347 -10 425 -10 q 171 49 232 -10 q 110 222 110 108 q 111 258 110 246 l 146 694 l 203 694 l 168 263 q 167 226 167 250 q 343 44 167 44 q 520 112 453 44 q 597 299 588 179 l 628 694 l 685 694 m 429 835 q 306 874 360 835 q 226 997 251 914 l 286 1021 q 347 921 310 951 q 433 890 383 890 q 526 920 485 890 q 601 1021 568 950 l 657 999 q 429 835 586 835 z "},"û":{"ha":779,"x_min":110,"x_max":685,"o":"m 685 694 l 631 0 l 575 0 l 585 128 q 488 26 550 61 q 347 -10 425 -10 q 171 49 232 -10 q 110 222 110 108 q 111 258 110 246 l 146 694 l 203 694 l 168 263 q 167 226 167 250 q 343 44 167 44 q 520 112 453 44 q 597 299 588 179 l 628 694 l 685 694 m 243 786 l 422 1067 l 475 1067 l 608 786 l 539 786 l 444 1007 l 315 786 l 243 786 z "},"ȕ":{"ha":779,"x_min":110,"x_max":685,"o":"m 685 694 l 631 0 l 575 0 l 585 128 q 488 26 550 61 q 347 -10 425 -10 q 171 49 232 -10 q 110 222 110 108 q 111 258 110 246 l 146 694 l 203 694 l 168 263 q 167 226 167 250 q 343 44 167 44 q 520 112 453 44 q 597 299 588 179 l 628 694 l 685 694 m 240 1067 l 317 1067 l 367 786 l 328 786 l 240 1067 m 397 1067 l 471 1067 l 522 786 l 483 786 l 397 1067 z "},"ü":{"ha":779,"x_min":110,"x_max":685,"o":"m 685 694 l 631 0 l 575 0 l 585 128 q 488 26 550 61 q 347 -10 425 -10 q 171 49 232 -10 q 110 222 110 108 q 111 258 110 246 l 146 694 l 203 694 l 168 263 q 167 226 167 250 q 343 44 167 44 q 520 112 453 44 q 597 299 588 179 l 628 694 l 685 694 m 371 969 l 365 885 l 279 885 l 286 969 l 371 969 m 597 969 l 592 885 l 504 885 l 510 969 l 597 969 z "},"ụ":{"ha":779,"x_min":110,"x_max":685,"o":"m 685 694 l 631 0 l 575 0 l 585 128 q 488 26 550 61 q 347 -10 425 -10 q 171 49 232 -10 q 110 222 110 108 q 111 258 110 246 l 146 694 l 203 694 l 168 263 q 167 226 167 250 q 343 44 167 44 q 520 112 453 44 q 597 299 588 179 l 628 694 l 685 694 m 400 -153 l 392 -243 l 299 -243 l 307 -153 l 400 -153 z "},"ù":{"ha":779,"x_min":110,"x_max":685,"o":"m 685 694 l 631 0 l 575 0 l 585 128 q 488 26 550 61 q 347 -10 425 -10 q 171 49 232 -10 q 110 222 110 108 q 111 258 110 246 l 146 694 l 203 694 l 168 263 q 167 226 167 250 q 343 44 167 44 q 520 112 453 44 q 597 299 588 179 l 628 694 l 685 694 m 249 1067 l 331 1067 l 451 786 l 401 786 l 249 1067 z "},"ủ":{"ha":779,"x_min":110,"x_max":685,"o":"m 685 694 l 631 0 l 575 0 l 585 128 q 488 26 550 61 q 347 -10 425 -10 q 171 49 232 -10 q 110 222 110 108 q 111 258 110 246 l 146 694 l 203 694 l 168 263 q 167 226 167 250 q 343 44 167 44 q 520 112 453 44 q 597 299 588 179 l 628 694 l 685 694 m 457 786 l 401 786 l 404 825 q 423 875 407 854 q 468 922 439 896 q 500 956 490 943 q 510 982 510 968 q 494 1006 510 997 q 450 1015 478 1015 q 358 999 417 1015 l 346 1051 q 454 1074 392 1074 q 542 1049 508 1074 q 576 986 576 1025 q 561 935 576 956 q 515 890 546 915 q 474 849 488 867 q 458 807 460 832 l 457 786 z "},"ư":{"ha":790,"x_min":110,"x_max":871,"o":"m 871 883 l 869 856 q 815 714 864 767 q 682 651 767 661 l 631 0 l 575 0 l 585 128 q 488 26 550 61 q 347 -10 425 -10 q 171 49 232 -10 q 110 222 110 108 q 111 258 110 246 l 146 694 l 203 694 l 168 263 q 167 226 167 250 q 343 44 167 44 q 520 112 453 44 q 597 299 588 179 l 628 694 l 646 694 q 768 737 728 696 q 815 867 808 778 l 817 883 l 871 883 z "},"ứ":{"ha":790,"x_min":110,"x_max":871,"o":"m 871 883 l 869 856 q 815 714 864 767 q 682 651 767 661 l 631 0 l 575 0 l 585 128 q 488 26 550 61 q 347 -10 425 -10 q 171 49 232 -10 q 110 222 110 108 q 111 258 110 246 l 146 694 l 203 694 l 168 263 q 167 226 167 250 q 343 44 167 44 q 520 112 453 44 q 597 299 588 179 l 628 694 l 646 694 q 768 737 728 696 q 815 867 808 778 l 817 883 l 871 883 m 401 786 l 563 1067 l 653 1067 l 451 786 l 401 786 z "},"ự":{"ha":790,"x_min":110,"x_max":871,"o":"m 871 883 l 869 856 q 815 714 864 767 q 682 651 767 661 l 631 0 l 575 0 l 585 128 q 488 26 550 61 q 347 -10 425 -10 q 171 49 232 -10 q 110 222 110 108 q 111 258 110 246 l 146 694 l 203 694 l 168 263 q 167 226 167 250 q 343 44 167 44 q 520 112 453 44 q 597 299 588 179 l 628 694 l 646 694 q 768 737 728 696 q 815 867 808 778 l 817 883 l 871 883 m 400 -153 l 392 -243 l 299 -243 l 307 -153 l 400 -153 z "},"ừ":{"ha":790,"x_min":110,"x_max":871,"o":"m 871 883 l 869 856 q 815 714 864 767 q 682 651 767 661 l 631 0 l 575 0 l 585 128 q 488 26 550 61 q 347 -10 425 -10 q 171 49 232 -10 q 110 222 110 108 q 111 258 110 246 l 146 694 l 203 694 l 168 263 q 167 226 167 250 q 343 44 167 44 q 520 112 453 44 q 597 299 588 179 l 628 694 l 646 694 q 768 737 728 696 q 815 867 808 778 l 817 883 l 871 883 m 249 1067 l 331 1067 l 451 786 l 401 786 l 249 1067 z "},"ử":{"ha":790,"x_min":110,"x_max":871,"o":"m 871 883 l 869 856 q 815 714 864 767 q 682 651 767 661 l 631 0 l 575 0 l 585 128 q 488 26 550 61 q 347 -10 425 -10 q 171 49 232 -10 q 110 222 110 108 q 111 258 110 246 l 146 694 l 203 694 l 168 263 q 167 226 167 250 q 343 44 167 44 q 520 112 453 44 q 597 299 588 179 l 628 694 l 646 694 q 768 737 728 696 q 815 867 808 778 l 817 883 l 871 883 m 457 786 l 401 786 l 404 825 q 423 875 407 854 q 468 922 439 896 q 500 956 490 943 q 510 982 510 968 q 494 1006 510 997 q 450 1015 478 1015 q 358 999 417 1015 l 346 1051 q 454 1074 392 1074 q 542 1049 508 1074 q 576 986 576 1025 q 561 935 576 956 q 515 890 546 915 q 474 849 488 867 q 458 807 460 832 l 457 786 z "}}}
